<svg xmlns="http://www.w3.org/2000/svg" viewBox="0 0 421.23 100">
  <defs>
    <linearGradient id="e27eceb7-fc03-4211-a2df-bd21c4957a8a" x1="-198.53" y1="349.26" x2="-196.43" y2="349.26" gradientTransform="matrix(19.98 0 0 -19.98 4083.36 7004.39)" gradientUnits="userSpaceOnUse">
      <stop offset="0" stop-color="#fff"/>
      <stop offset=".25" stop-color="#fff"/>
      <stop offset=".27" stop-color="#f9f9f9"/>
      <stop offset=".47" stop-color="#b3b3b3"/>
      <stop offset=".65" stop-color="#7c7c7c"/>
      <stop offset=".8" stop-color="#545454"/>
      <stop offset=".92" stop-color="#3c3c3c"/>
      <stop offset="1" stop-color="#333"/>
    </linearGradient>
    <linearGradient id="a2a47bbc-dc76-44f6-8fa4-75c6b9a6425a" x1="-198.53" y1="349.26" x2="-196.43" y2="349.26" gradientTransform="matrix(19.98 0 0 -19.98 4083.36 7004.39)" gradientUnits="userSpaceOnUse">
      <stop offset="0" stop-color="#692474"/>
      <stop offset=".25" stop-color="#692474"/>
      <stop offset="1" stop-color="#692474"/>
    </linearGradient>
    <clipPath id="acb64513-a2fb-4dec-b11e-5da4344ef9cc">
      <path d="M138.39 16.61a20.91 20.91 0 00-21 20.42l8.42.46a12.33 12.33 0 013.62-8.81 12.56 12.56 0 018.87-3.63 12.25 12.25 0 0112.43 11.56l4.27-4.25 4.21 4.21a20.79 20.79 0 00-20.56-20z" fill="none"/>
    </clipPath>
    <mask id="bc227496-4b76-460c-b92d-62d0782f29f2" x="117.35" y="16.61" width="41.82" height="20.89" maskUnits="userSpaceOnUse">
      <path fill="url(#e27eceb7-fc03-4211-a2df-bd21c4957a8a)" d="M117.35 16.61h41.82V37.5h-41.82z"/>
    </mask>
  </defs>
  <path d="M118.21 85.37l2.79 7.82h-5.56zm-2.38-3.87L109 99.67h4.31l1.12-3.08H122l1.12 3.08h4.3l-6.83-18.17z" fill="#f7a800"/>
  <g fill="#f7a800">
    <path d="M136 92.4V81.5h3.85v10.79c0 2.53 1.45 4.28 4.2 4.28s4.18-1.75 4.18-4.28V81.5h3.88v10.9c0 4.49-2.63 7.6-8.06 7.6s-8-3.11-8-7.6M161.88 97.11l2.09-3a7.78 7.78 0 005.67 2.48c2.11 0 3.1-1 3.1-2 0-3.16-10.27-1-10.27-7.79 0-3 2.57-5.54 6.77-5.54a9.77 9.77 0 016.95 2.54l-2.11 2.89a7.56 7.56 0 00-5.19-2c-1.61 0-2.52.71-2.52 1.79 0 2.87 10.25.93 10.25 7.72 0 3.32-2.36 5.83-7.14 5.83a10.2 10.2 0 01-7.6-2.89M190.5 99.67V84.9h-5.22v-3.4h14.23v3.4h-5.19v14.77h-3.82zM219.25 99.67l-3.51-6.46H213v6.46h-3.8V81.5h8.35a5.62 5.62 0 016 5.86 5.24 5.24 0 01-3.93 5.39l4 6.92zm.37-12.34A2.43 2.43 0 00217 84.9h-4v4.91h4a2.44 2.44 0 002.65-2.48M246.18 99.67l-1.12-3.08h-7.65l-1.13 3.08H232l6.87-18.17h4.76l6.88 18.17zm-5-14.3l-2.78 7.82h5.6zM259.6 99.67V81.5h3.83v14.77h7.54v3.4H259.6zM280.76 81.5h3.8v18.18h-3.8zM307.91 99.67l-1.13-3.08h-7.65L298 99.67h-4.3l6.88-18.17h4.76l6.87 18.17zm-5-14.3l-2.78 7.82h5.56z"/>
  </g>
  <g mask="url(#bc227496-4b76-460c-b92d-62d0782f29f2)" clip-path="url(#acb64513-a2fb-4dec-b11e-5da4344ef9cc)">
    <path fill="url(#a2a47bbc-dc76-44f6-8fa4-75c6b9a6425a)" d="M117.35 16.61h41.82V37.5h-41.82z"/>
  </g>
  <g fill="#522058">
    <path d="M150.62 39.05a12.48 12.48 0 01-3.56 7.31 12.28 12.28 0 01-8.77 3.64 12.56 12.56 0 01-12.52-12.5l-4.23-1.5-4.19 1a21.3 21.3 0 005.88 15 20.17 20.17 0 0014.46 6.44h.3a20.91 20.91 0 0021.14-19.54L155 34.71zM235.68 0v21a20.85 20.85 0 00-7.8-3.73 13.6 13.6 0 00-1-.2h-.25L226 17a21.76 21.76 0 00-7.42.33 19.72 19.72 0 00-5.21 1.86h-.07a20.82 20.82 0 009.78 39.18 21.85 21.85 0 0014.23-5.5l.07-.06a20.73 20.73 0 006.68-14.47V0zm-.07 37.46a12.32 12.32 0 01-3.61 8.8 12.47 12.47 0 01-21.36-8.76 12.05 12.05 0 013.58-8.6 12.51 12.51 0 018.91-3.71 12.47 12.47 0 0112.44 12.27M72.24 44.11A12.64 12.64 0 0166.75 49a11.71 11.71 0 01-5.26 1.22 13.2 13.2 0 01-4.14-.68c-3.67-1.21-7.34-5-8-8.25v-.23h32.59a26.68 26.68 0 00.16-5.81c-.85-9-8-16.52-17.32-18.32a18.3 18.3 0 00-3.47-.33 21.18 21.18 0 00-20.26 16.31 20.69 20.69 0 002.62 15.52A20.67 20.67 0 0081 44.11zM49.5 32.93a10.41 10.41 0 011.93-3.29 12.7 12.7 0 0121.8 3.33l.09.23h-23.9z"/>
    <path d="M198.94 32.42a16.22 16.22 0 00-5.65-11.18 18.1 18.1 0 00-8-4.06 17.47 17.47 0 00-8.62 0 18.09 18.09 0 00-8 4.06 16.22 16.22 0 00-5.65 11.18c-.09 1.45-.21 4.09-.25 7v18.19h8.27V34.89a9 9 0 015.4-8.73 10.13 10.13 0 014.21-1.05h.61a10.08 10.08 0 014.17 1.05 9 9 0 015.41 8.73v22.73h8.27v-9.14c0-5.26.09-10.72-.25-16.06M111.06 17.48L99.95 43.34 88.83 17.48h-9.2l15.72 36.55-7.14 16.55h9.23l22.83-53.1h-9.21zM405.13 34.93l12.38-17.45h-9.9l-12.37 17.45 16.09 22.69h9.9l-16.1-22.69zM386.52.02h8.45v57.6h-8.45zM343.17 36.83a20.64 20.64 0 00-6.68-14.47l-.06-.06a21.85 21.85 0 00-14.24-5.51 20.77 20.77 0 00-16.7 33.11 20.76 20.76 0 006.94 6.1h.06a19.77 19.77 0 005.2 1.86 23.64 23.64 0 004.73.5 22 22 0 002.7-.17l.65-.1h.26c.31 0 .62-.12 1-.2a20.88 20.88 0 007.79-3.73l.16-.13v3.62h8.23V36.83zm-20.89 13.64a12.34 12.34 0 01-8.92-3.82 12.85 12.85 0 018.86-21.73 12.33 12.33 0 018.92 3.84 12.89 12.89 0 013.62 9.07 12.67 12.67 0 01-12.44 12.64M382.78 32.42a16.22 16.22 0 00-5.65-11.18 18.1 18.1 0 00-8-4.06 17.51 17.51 0 00-8.63 0 18.1 18.1 0 00-8 4.06 16.22 16.22 0 00-5.65 11.18c-.1 1.45-.21 4.09-.25 7v18.19h8.4V34.89a9 9 0 015.41-8.73 10.09 10.09 0 014.2-1.05h.62a10.15 10.15 0 014.17 1.05 9 9 0 015.4 8.73v22.73h8.2v-9.14c0-5.26.1-10.72-.24-16.06M295 28.09a16.38 16.38 0 00-5.75-4.74c5-5.54 4-14.09-1.24-19A17.1 17.1 0 00277.22.1h-16V57.64H280a18.5 18.5 0 0015-29.55M269.73 8.37h7.2a6.89 6.89 0 016.79 7 5.94 5.94 0 01-2 4.43 7 7 0 01-4.94 2.05H269.71zm11.6 41h-11.68V28.83H280a10.42 10.42 0 017.41 3.08 10.05 10.05 0 013 7.14 10.42 10.42 0 01-9.06 10.29M33.72 28.09A16.41 16.41 0 0028 23.35c5-5.55 4-14.09-1.23-19A17.15 17.15 0 0016 .1H0V57.64h18.78a18.76 18.76 0 0012.82-5.08 18.78 18.78 0 002.12-24.47M8.46 8.37h7.2a6.88 6.88 0 016.79 7 5.94 5.94 0 01-2 4.43 6.94 6.94 0 01-4.94 2.05 4.83 4.83 0 01-.6 0H8.46zm11.6 41H8.38V28.83h10.36a10.42 10.42 0 017.41 3.08 10.05 10.05 0 013 7.14 10.4 10.4 0 01-9.06 10.28"/>
  </g>
</svg>
