<svg width="147px" height="57px" xmlns="http://www.w3.org/2000/svg" viewBox="0 0 147.03 56.63"><g id="Layer_2" data-name="Layer 2"><g id="Layer_1-2" data-name="Layer 1"><path d="M27.41,52.64q-.15-.24-.42-.78a10.56,10.56,0,0,0-.73-1.28,1.73,1.73,0,0,0-.78-.68,2.07,2.07,0,0,0,1.18-.9,2.6,2.6,0,0,0,.41-1.4,2.31,2.31,0,0,0-.31-1.25,1.92,1.92,0,0,0-1-.7A5.9,5.9,0,0,0,24,45.42c-.25,0-.57,0-.95,0l-.38,0H20.57v.67l.82.15V52.9l-.86.11v.66H24V53l-1-.11V50.15h1.13a1.24,1.24,0,0,1,.56.62,15.26,15.26,0,0,1,.63,1.41,12.3,12.3,0,0,0,.5,1.13c.13.24.25.36.37.36h1.87V53l-.37-.11A.55.55,0,0,1,27.41,52.64ZM25,49a1.17,1.17,0,0,1-1,.45h-.37c-.34,0-.55,0-.64,0v-3.3l.28,0a3.84,3.84,0,0,1,.52,0,1.56,1.56,0,0,1,1.2.39,1.72,1.72,0,0,1,.34,1.18A2.21,2.21,0,0,1,25,49Zm6.07-1.63a3.12,3.12,0,0,0-1.55.38,2.66,2.66,0,0,0-1,1.11,3.86,3.86,0,0,0-.37,1.72,3.56,3.56,0,0,0,.71,2.33,2.69,2.69,0,0,0,2.16.85,3.54,3.54,0,0,0,1.35-.27,2.78,2.78,0,0,0,1-.59l-.27-.6a2.69,2.69,0,0,1-.72.34,3.17,3.17,0,0,1-.89.14,1.46,1.46,0,0,1-1.22-.56,2.74,2.74,0,0,1-.47-1.55h3.57a4.8,4.8,0,0,0,.09-1.08A2.21,2.21,0,0,0,32.76,48,2.3,2.3,0,0,0,31.07,47.4ZM31.84,50H29.72a2.93,2.93,0,0,1,.33-1.51,1,1,0,0,1,.83-.43c.66,0,1,.49,1,1.47A4.57,4.57,0,0,1,31.84,50ZM39,49.62a3.36,3.36,0,0,0-.21-1.3,1.35,1.35,0,0,0-.69-.7,3.18,3.18,0,0,0-1.32-.22,4.13,4.13,0,0,0-1.11.15,5.22,5.22,0,0,0-.93.34,4,4,0,0,0-.56.34l.34.71a6.49,6.49,0,0,1,.9-.36,3.13,3.13,0,0,1,1-.14,1.65,1.65,0,0,1,.72.13.64.64,0,0,1,.34.38,1.89,1.89,0,0,1,.1.7v.28a6,6,0,0,0-2.6.51,1.62,1.62,0,0,0-1,1.51,2,2,0,0,0,.25,1,1.69,1.69,0,0,0,.68.62,1.93,1.93,0,0,0,.93.22,2.13,2.13,0,0,0,1.07-.27,3,3,0,0,0,.77-.59v.3a.64.64,0,0,0,.12.45.83.83,0,0,0,.5.11,5,5,0,0,0,.72-.06,4,4,0,0,0,.62-.11V53H39Zm-1.46,2.72a2.1,2.1,0,0,1-.52.33,1.31,1.31,0,0,1-.53.14.83.83,0,0,1-.67-.28,1.13,1.13,0,0,1-.25-.8,1,1,0,0,1,.49-.86,2.57,2.57,0,0,1,1.48-.34Zm4.91.58.81.09v.66H40.15V53l.76-.1V45.64l-.81-.14v-.6l2.06-.24.29.21Zm14.78-6.75-.7.15-2.09,7.35H53l-1.52-5.1L50,53.67H48.59l-2.26-7.34-.68-.16V45.5H49v.67l-1,.15,1.38,4.92.25,1.21.26-1.21,1.17-4-.3-.92L50,46.17V45.5h3.44v.67l-1,.15,1.37,4.92.3,1.31.23-1.31,1.25-4.92-1-.15V45.5h2.65Zm2.43,1.23a3.1,3.1,0,0,0-1.55.38,2.6,2.6,0,0,0-1,1.11,3.73,3.73,0,0,0-.37,1.72,3.56,3.56,0,0,0,.71,2.33,2.67,2.67,0,0,0,2.16.85,3.61,3.61,0,0,0,1.35-.27,2.78,2.78,0,0,0,1-.59l-.28-.6a2.42,2.42,0,0,1-.72.34,3.1,3.1,0,0,1-.88.14,1.44,1.44,0,0,1-1.22-.56,2.67,2.67,0,0,1-.48-1.55h3.58A4.8,4.8,0,0,0,62,49.62,2.25,2.25,0,0,0,61.35,48,2.31,2.31,0,0,0,59.66,47.4ZM60.43,50H58.3a3.15,3.15,0,0,1,.33-1.51,1,1,0,0,1,.84-.43c.65,0,1,.49,1,1.47C60.45,49.68,60.44,49.83,60.43,50Zm4.45,2.88.81.09v.66H62.57V53l.77-.1V45.64l-.81-.14v-.6l2.06-.24.29.21Zm3.7,0,.81.09v.66H66.28V53l.76-.1V45.64l-.81-.14v-.6l2.06-.24.29.21ZM79.42,47.4a3.12,3.12,0,0,0-1.55.38,2.66,2.66,0,0,0-1,1.11,3.73,3.73,0,0,0-.37,1.72,3.56,3.56,0,0,0,.71,2.33,2.67,2.67,0,0,0,2.16.85,3.57,3.57,0,0,0,1.35-.27,2.78,2.78,0,0,0,1-.59l-.27-.6a2.69,2.69,0,0,1-.72.34,3.17,3.17,0,0,1-.89.14,1.46,1.46,0,0,1-1.22-.56,2.67,2.67,0,0,1-.47-1.55h3.57a4.8,4.8,0,0,0,.09-1.08A2.25,2.25,0,0,0,81.11,48,2.3,2.3,0,0,0,79.42,47.4ZM80.19,50H78.07a2.93,2.93,0,0,1,.33-1.51,1,1,0,0,1,.83-.43c.66,0,1,.49,1,1.47C80.21,49.68,80.2,49.83,80.19,50Zm19.36-2.66h-.38a1.63,1.63,0,0,0-.71.16,1.49,1.49,0,0,0-.48.35,3.05,3.05,0,0,0-1.91-.49,3.49,3.49,0,0,0-1.35.25,2.45,2.45,0,0,0-1,.72,1.76,1.76,0,0,0-.37,1.1,2.06,2.06,0,0,0,.3,1.12,1.78,1.78,0,0,0,.9.7,1.78,1.78,0,0,0-.63.52,1.21,1.21,0,0,0-.24.71,1,1,0,0,0,.51.95,1.83,1.83,0,0,0-.73.6,1.4,1.4,0,0,0-.3.85,1.43,1.43,0,0,0,.65,1.25,3.82,3.82,0,0,0,2.14.46,4.78,4.78,0,0,0,1.7-.29A3.15,3.15,0,0,0,99,55.5a1.78,1.78,0,0,0,.48-1.22c0-1.08-.75-1.63-2.24-1.63H96a2.28,2.28,0,0,1-.93-.13.5.5,0,0,1-.25-.49.79.79,0,0,1,.06-.28.9.9,0,0,1,.17-.3,4.2,4.2,0,0,0,.86.07,2.94,2.94,0,0,0,2-.6,2,2,0,0,0,.71-1.6,1.71,1.71,0,0,0-.17-.74h1.13ZM95,53.69a3.89,3.89,0,0,0,.51,0h1.19a1.41,1.41,0,0,1,.89.21.87.87,0,0,1,.25.68,1,1,0,0,1-.51.93,2.17,2.17,0,0,1-1.2.34,1.57,1.57,0,0,1-1.1-.32,1.24,1.24,0,0,1-.33-.93A1.51,1.51,0,0,1,95,53.69Zm1-2.85c-.73,0-1.09-.48-1.09-1.44a1.54,1.54,0,0,1,.28-1,1,1,0,0,1,.79-.33.94.94,0,0,1,.79.33,1.76,1.76,0,0,1,.26,1C97.06,50.38,96.72,50.84,96,50.84ZM82.84,45.58a.93.93,0,1,1,.93.92A.93.93,0,0,1,82.84,45.58ZM73.41,47.4a2.26,2.26,0,0,0-.94.2,2.68,2.68,0,0,0-.71.48V44.87l-.3-.21-2.06.24v.6l.82.14v7.73a3,3,0,0,0,.81.27,6.7,6.7,0,0,0,1.51.15,3.27,3.27,0,0,0,1.72-.45,3,3,0,0,0,1.14-1.21,3.78,3.78,0,0,0,.39-1.72,3.34,3.34,0,0,0-.66-2.27A2.23,2.23,0,0,0,73.41,47.4Zm.31,5a1.3,1.3,0,0,1-1.13.65A1.87,1.87,0,0,1,72,53a.56.56,0,0,1-.28-.17v-4a1.72,1.72,0,0,1,.44-.32,1.48,1.48,0,0,1,.62-.14,1.11,1.11,0,0,1,1,.52,3,3,0,0,1,.36,1.63A3.55,3.55,0,0,1,73.72,52.44Zm11,.48.81.09v.66H82.37V53l.77-.1V48.38l-.81-.14v-.6l2.06-.24.29.21Zm7.49,0L93,53v.66H89.86V53l.77-.1V49.85a3.5,3.5,0,0,0-.08-.89.77.77,0,0,0-.28-.48.92.92,0,0,0-.57-.15,2.37,2.37,0,0,0-1.38.54v4.05l.81.09v.66H86V53l.77-.1V48.38L86,48.24v-.6L88,47.4l.29.21v.55a4.05,4.05,0,0,1,.85-.5,3.21,3.21,0,0,1,1.24-.26,1.85,1.85,0,0,1,1,.25,1.32,1.32,0,0,1,.55.77,5,5,0,0,1,.16,1.43Z" style="fill:#2a2a2a"/><path d="M116.05,27.42c-4,4.72-.79,4.92-2.39,6.8-1.32,1.53-5.71,1.69-5.71,1.69-1,0-.08-.54-.08-.54,1.94-1.34,2.65-2.94,1.52-2.32-3.64,1.88-4.39,1.86-4.39,1.86-1,.27-.2-.26-.2-.26a56.24,56.24,0,0,0,9.63-7.73,4.59,4.59,0,0,1-3.19-.87c-.2-.14-.16-.34.07-.32a2.79,2.79,0,0,0,1.79-1c.16-.21-.13-.17-.13-.17-2.24.89-4-.63-5.1-1.7-.26-.25,0-.29.12-.28,4.47.23,6.39-1.45,6.64-1.6s.11-.28-.13-.15a20.5,20.5,0,0,1-2.14.52c-2.41.51-5.76-.36-6.58-1.82-.18-.32,0-.43.18-.41a12.84,12.84,0,0,0,5.34-.28c.31-.08.27-.33,0-.28-4.92.33-7.15-.72-8.17-3.81-.09-.27-.16-.64.13-.45a5,5,0,0,0,3.43.65c.21,0,.21-.13,0-.18-4.92-1.27-5.16-6.87-5.18-7.65s.22-.29.22-.29c1.29,2.19,4.18,3.85,6.32,4.9.41.2.58-.09.15-.28a19.83,19.83,0,0,1-1.79-1,8,8,0,0,1-3.85-5.77A11.45,11.45,0,0,1,103,.57c.25-.79.48-.69.67-.11,2,5.17,7.6,9.6,11.92,11.3s7.11,3.46,7.4,6.37S120.06,22.7,116.05,27.42ZM130.33,9.69a1,1,0,0,0,.59-.06.82.82,0,0,0,.33-.34.89.89,0,0,0,.05-.66.78.78,0,0,0-1.08-.38.77.77,0,0,0-.49,1A.71.71,0,0,0,130.33,9.69Zm16.31,8.11c-1.19,1.09-5.62,2.74-9.9,1.41s-4.54,0-4.63.31-.23.19-.23,0-.13-1.94-.17-2.59.48-1.31.84-2.25,1.08-3.42,1.51-3.76A34.18,34.18,0,0,0,137.32,8a9.07,9.07,0,0,0,1.26-2.13c-2.06-.51-4.82,1.09-5.33,1.38a8.89,8.89,0,0,0-5.5-.51,5.29,5.29,0,0,0-3.7,3.85c-.42,2-1,2.76-1.69,3.14s-.93,0-.7.31a1.65,1.65,0,0,0,2.5.37c2.15-2,1.68-3.5,3-5.14s2.26-1.59,3.57-1.72,1.88.23,1.79.48a4.42,4.42,0,0,1-.58,1.15,1.91,1.91,0,0,1-.55.51,3.77,3.77,0,0,1-1,.45,14.57,14.57,0,0,0-1.65.48c-2.27,1.05-2.3,1.89-2.34,2.41a4,4,0,0,0,2.31-.52c.91-.62.86-1.06,1.38-1.54a14.44,14.44,0,0,1,2.25-1.38c1.15-.7,3-1.46,5-2.51-.61,1.07-4.19,3.33-4.75,3.64s-.1.58.47.46c-.18.23-.51.56-.51.56a30.28,30.28,0,0,1-1.66,4.1c-.06.14-.17.15-.09,1.59,0,.63,0,1.5,0,1.5.1,3.59-1.77,5.54-4.75,7.54s-5.32,2.09-9.19,6.89c0,0-1.07,1.4,1.58-.94a22.46,22.46,0,0,1,3.66-2.4c3-1.48,2.74-.15,2.95.19s.87-2,1.45-1.33a2.45,2.45,0,0,0,1.82,1.2c.22.05.31.06.25-.11a2,2,0,0,1,0-1.19c.12-.35.27-.53.45-.12a2.62,2.62,0,0,0,2.27,1.57c.22,0,.25-.07.12-.22a5.12,5.12,0,0,1-.84-1.23c-.16-.45,0-.56.22-.22.59.78,2.25,1.22,3.71,1.22.25,0,.31-.14.13-.26a11,11,0,0,1-2.2-1.61c-.2-.21-.12-.44.07-.28a5.22,5.22,0,0,0,5.35.58c.41-.18.32-.32-.07-.37a8.07,8.07,0,0,1-3.4-1.19c-.3-.21-.13-.33.13-.23,3.71,1.48,5.39.29,7.19-1.74.36-.41.23-.53-.21-.35a8.56,8.56,0,0,1-2.73,0c-.39,0-.33-.23,0-.25,4.24-.3,7.81-5.42,8.19-6.16C147.13,17.62,146.85,17.61,146.64,17.8Z" style="fill:#fc5400"/><path d="M79.89,33.25v2.47a4.84,4.84,0,0,1-1.42.17c-1.77,0-2.69-.92-2.69-2.92V25.42H79v6.94C79,32.94,79.22,33.25,79.89,33.25Zm-2.5-9.13a1.71,1.71,0,1,0-1.78-1.71A1.72,1.72,0,0,0,77.39,24.12Zm18.93,7A1.84,1.84,0,0,1,94.58,33c-.73,0-1.23-.52-1.23-1.64v-3c0-2-.92-2.92-2.68-2.92H85.05V22.17H81.8v3.25H80.28V28H81.8v3.11c0,3.08,1.23,4.82,4.43,4.82a4.41,4.41,0,0,0,2.82-1l-.94-2.37a2.39,2.39,0,0,1-1.51.5c-1.06,0-1.55-.65-1.55-2.07V28h4.22c.64,0,.84.3.84.88v3.33c0,2.13.81,3.72,3.29,3.72a3.39,3.39,0,0,0,3.12-1.44V36A2.22,2.22,0,0,1,94,38.22a3.08,3.08,0,0,1-2.49-1.15l-1.68,1.75a5.18,5.18,0,0,0,4.65,2.28,4.76,4.76,0,0,0,5-5.08V25.42H96.32ZM58.59,29.8c0,1.64-.54,3-2.43,3s-2.49-1.35-2.49-3V20.72H50.18l0,8.83c0,4.79,2.75,6.36,6,6.36s5.92-1.57,5.92-6.36V20.72H58.59Zm15.17,2.56V29.42c0-2.26-1-4.14-3.68-4.14-1.89,0-2.69.84-3,1.64v-.19a2,2,0,0,0-2.24-1.42,5.08,5.08,0,0,0-1.44.17V28c.67,0,.86.33.86.86v7h3.25V29.85a1.56,1.56,0,0,1,1.57-1.62,1.44,1.44,0,0,1,1.4,1.62V33c0,2,.92,2.92,2.69,2.92a4.84,4.84,0,0,0,1.42-.17V33.25C74,33.25,73.76,32.94,73.76,32.36ZM9.16,3.83l5.52,15.05H11.07l-1.2-3.57h-5L3.66,18.88H0l5.55-15ZM9,12.73l-1.68-5-1.67,5ZM73.66,7.22a1.7,1.7,0,1,0-1.78-1.7A1.72,1.72,0,0,0,73.66,7.22Zm3.67,6.5c0-3.87,2.11-5.33,4.37-5.33a4.13,4.13,0,0,1,2.86,1.12v-1h2.86v6.94c0,.58.19.88.86.88v2.48a5,5,0,0,1-1.42.17,2.07,2.07,0,0,1-2.3-1.57v-.11A3.13,3.13,0,0,1,81.5,19C79.51,19,77.33,17.38,77.33,13.72Zm3.23,0c0,1.76,1,2.45,1.87,2.45a1.85,1.85,0,0,0,1.74-1.51V12.86a1.76,1.76,0,0,0-1.76-1.59C81.33,11.27,80.56,12.07,80.56,13.68ZM69.13,19a4.75,4.75,0,0,0,1.42-.17V16.34c-.64,0-.84-.3-.84-.88V3.83H66.44V16.06C66.44,18.06,67.37,19,69.13,19Zm-15-5.27c0-3.87,2.1-5.33,4.36-5.33a4.13,4.13,0,0,1,2.86,1.12v-1h2.86v6.94c0,.58.19.88.86.88v2.48a5,5,0,0,1-1.42.17,2.08,2.08,0,0,1-2.3-1.57v-.11a3.11,3.11,0,0,1-3,1.7C56.31,19,54.14,17.38,54.14,13.72Zm3.22,0c0,1.76,1,2.45,1.87,2.45A1.85,1.85,0,0,0,61,14.62V12.86a1.76,1.76,0,0,0-1.76-1.59C58.14,11.27,57.36,12.07,57.36,13.68ZM42.91,16.11c-1,0-1.54-.65-1.54-2.07v-3h3.41V8.52H41.37V5.27H38.12V8.52H36.59v2.56h1.53v3.11c0,3.08,1.23,4.82,4.43,4.82a4.41,4.41,0,0,0,2.82-1l-.95-2.37A2.39,2.39,0,0,1,42.91,16.11Zm-18.27-.65V8.52H21.39v5.65a1.83,1.83,0,0,1-1.76,1.89c-.73,0-1.2-.51-1.2-1.63V8.52H15.16v6.77c0,2.13.82,3.72,3.29,3.72a3.32,3.32,0,0,0,3.31-1.78v.15A2.1,2.1,0,0,0,24.08,19a5,5,0,0,0,1.42-.17V16.34C24.83,16.34,24.64,16,24.64,15.46Zm74.93,0V12.52c0-2.26-1-4.13-3.67-4.13-1.9,0-2.69.84-3,1.63V9.83a2,2,0,0,0-2.24-1.42,5.08,5.08,0,0,0-1.44.17v2.48c.67,0,.86.32.86.86v7h3.25V13a1.56,1.56,0,0,1,1.57-1.61A1.43,1.43,0,0,1,96.32,13v3.11c0,2,.93,2.93,2.69,2.93a4.75,4.75,0,0,0,1.42-.17V16.34C99.79,16.34,99.57,16,99.57,15.46Zm-48-4.12A2.25,2.25,0,0,1,53,11.7l1.34-2.86a3,3,0,0,0-1.77-.45c-2,0-2.7.95-3,1.72V9.94a2.16,2.16,0,0,0-2.28-1.53,4.08,4.08,0,0,0-1.36.17v2.47c.67,0,.86.33.86.87v7H50V13A1.55,1.55,0,0,1,51.56,11.34Zm24.59,5c-.66,0-.86-.3-.86-.88V8.52H72.05v7.54c0,2,.92,2.93,2.68,2.93a4.75,4.75,0,0,0,1.42-.17Zm-46-4.86c0-.33.31-.63,1.29-.63a3.62,3.62,0,0,1,2.45,1l1.84-1.75c-.49-.61-1.75-1.69-4.58-1.69-3.17.08-4.31,1.69-4.31,3.13,0,3.95,5.48,2.9,5.48,4.3,0,.43-.3.93-1.24.93a4,4,0,0,1-3-1.51L26.27,17a3.52,3.52,0,0,0,1.42,1.42,7,7,0,0,0,2.8.81c.23,0,.46,0,.71,0,3.24,0,4.77-1.34,4.77-3.55C36,12.14,30.12,13.31,30.12,11.48Z" style="fill:#2a2a2a"/></g></g></svg>