<?xml version="1.0" encoding="utf-8"?>
<!-- Generator: Adobe Illustrator 24.3.0, SVG Export Plug-In . SVG Version: 6.00 Build 0)  -->
<svg version="1.1" id="Layer_1" xmlns="http://www.w3.org/2000/svg" xmlns:xlink="http://www.w3.org/1999/xlink" x="0px" y="0px"
	 viewBox="0 0 189.1 78.7" style="enable-background:new 0 0 189.1 78.7;" xml:space="preserve">
<style type="text/css">
	.st0{fill:#003C44;}
	.st1{fill:#BAF029;}
</style>
<path class="st0" d="M148.7,34.8c-0.2,0.3-0.4,0.8-0.3,1.2c0,0.4,0.1,0.9,0.2,1.2c0.2,0.3,0.4,0.5,0.6,0.8c0.3,0.2,0.6,0.4,0.9,0.5
	c0.4,0.1,0.7,0.2,1.1,0.2h6.3v2.9H146v-2.8h1.6c-0.5-0.3-1-0.6-1.3-1.2c-0.5-0.7-0.7-1.5-0.6-2.2c0-0.7,0.1-1.3,0.4-1.9
	c0.2-0.5,0.5-0.9,1-1.3c0.5-0.3,0.9-0.5,1.5-0.7c0.5-0.2,1.2-0.2,1.7-0.2h7.2v2.9h-5.8c-0.3,0-0.7,0-1.1,0.1c-0.4,0-0.8,0.1-1.1,0.2
	C149.1,34.4,148.9,34.6,148.7,34.8z M146.2,52.2c-0.3-0.7-0.5-1.5-0.5-2.3c-0.1-1.5,0.6-3,1.9-3.9H146v-2.9h11.5V46h-1.6
	c1.3,0.9,2,2.3,1.9,3.9c0,0.8-0.2,1.6-0.5,2.3c-0.3,0.7-0.7,1.3-1.2,1.8c-0.5,0.5-1.2,0.9-1.9,1.2c-1.5,0.5-3.2,0.5-4.7,0
	c-0.7-0.2-1.4-0.6-1.9-1.2C147,53.5,146.5,52.9,146.2,52.2z M148.3,49.3c0,1.9,1.5,3.4,3.4,3.4s3.4-1.5,3.4-3.4
	c0-1.9-1.5-3.4-3.4-3.4l0,0C149.8,45.9,148.4,47.4,148.3,49.3L148.3,49.3z M14.3,69h13.2V31.3H14.3C14.3,31.3,14.3,69,14.3,69z
	 M140.2,50.1c0,10.8-8.2,19.7-18.3,19.7c-4.3,0-8.4-1.9-11.3-5.1V69H97.5V18.4h13.2v17.3c2.9-3.3,7-5.1,11.3-5.1l0,0
	C132.1,30.6,140.2,39.3,140.2,50.1z M128.5,50.1c0-5.3-4.3-9.5-9.5-9.5s-9.5,4.3-9.5,9.5s4.3,9.5,9.5,9.5l0,0
	C124.2,59.7,128.5,55.4,128.5,50.1z M155.8,66.2h1.6V69h-15.3v-2.9h5.5c-1.3-0.9-2-2.3-1.9-3.9c0-0.8,0.2-1.6,0.5-2.3
	c0.3-0.7,0.7-1.3,1.2-1.8c0.5-0.5,1.2-0.9,1.9-1.2c1.5-0.5,3.2-0.5,4.7,0c0.7,0.2,1.3,0.6,1.9,1.2c0.5,0.5,1,1.1,1.2,1.8
	c0.3,0.7,0.5,1.5,0.5,2.3C157.9,63.8,157.1,65.3,155.8,66.2z M155.2,62.9c0-1.9-1.5-3.4-3.4-3.4c-1.9,0-3.4,1.5-3.4,3.4
	s1.5,3.4,3.4,3.4l0,0C153.6,66.3,155.2,64.8,155.2,62.9L155.2,62.9L155.2,62.9z M78.6,30.6c-4.3,0-8.4,1.9-11.3,5.1
	c-5.4-6.2-14.9-6.9-21-1.5c-0.5,0.5-1,0.9-1.5,1.5v-4.4H31.7V69h13.1V46.3c-0.1-3.1,2.3-5.7,5.4-5.8s5.7,2.3,5.8,5.4
	c0,0.2,0,0.3,0,0.4V69h13.2V46.3c-0.1-3.1,2.3-5.7,5.4-5.8s5.7,2.3,5.8,5.4c0,0.2,0,0.3,0,0.4V69h13V45.4
	C93.4,37.2,86.8,30.6,78.6,30.6z M157.5,26.6h-5l5-4.3v-3.8l-5.7,5l-5.7-5v3.8l5,4.3h-8.9v2.9h15.3L157.5,26.6z"/>
<circle class="st1" cx="20.9" cy="18.4" r="9.5"/>
</svg>
