<svg id="Logo" xmlns="http://www.w3.org/2000/svg" width="317.679" height="58" viewBox="0 0 317.679 58">
  <g id="Group_2" data-name="Group 2">
    <path id="Path_1" data-name="Path 1" d="M283.018,170.326c-1.005,0-3.9,4.148,0,20.97,3.9-16.823,1-20.97,0-20.97" transform="translate(-245.839 -170.326)" fill="#ffc600"/>
    <path id="Path_2" data-name="Path 2" d="M291.836,171.721c-.945-.344-5.082,2.564-7.172,19.7,9.417-14.474,8.117-19.36,7.172-19.7" transform="translate(-243.823 -169.564)" fill="#64beab"/>
    <path id="Path_3" data-name="Path 3" d="M302.78,170.453c-.77-.646-5.652.671-13.478,16.063,13.8-10.38,14.248-15.417,13.478-16.063" transform="translate(-241.241 -170.326)" fill="#57ac33"/>
    <path id="Path_4" data-name="Path 4" d="M304.929,179.781c-.5-.87-5.541-1.3-18.16,10.485,16.518-5.035,18.663-9.615,18.16-10.485" transform="translate(-242.651 -165.28)" fill="#64beab"/>
    <path id="Path_5" data-name="Path 5" d="M313.576,184.278c-.174-.99-4.761-3.119-20.65,3.641,17.243.918,20.825-2.651,20.65-3.641" transform="translate(-239.225 -163.182)" fill="#57ac33"/>
    <path id="Path_6" data-name="Path 6" d="M283.018,215.086c-1.005,0-3.9-4.148,0-20.969,3.9,16.823,1,20.969,0,20.969" transform="translate(-245.839 -157.086)" fill="#ffc600"/>
    <path id="Path_7" data-name="Path 7" d="M291.836,213.248c-.945.344-5.082-2.564-7.172-19.7,9.417,14.474,8.117,19.36,7.172,19.7" transform="translate(-243.823 -157.405)" fill="#64beab"/>
    <path id="Path_8" data-name="Path 8" d="M302.78,213.25c-.77.646-5.652-.671-13.478-16.063,13.8,10.38,14.248,15.417,13.478,16.063" transform="translate(-241.241 -155.377)" fill="#57ac33"/>
    <path id="Path_9" data-name="Path 9" d="M304.929,202.022c-.5.87-5.541,1.3-18.16-10.485,16.518,5.035,18.663,9.615,18.16,10.485" transform="translate(-242.651 -158.522)" fill="#64beab"/>
    <path id="Path_10" data-name="Path 10" d="M313.576,195.391c-.174.99-4.761,3.119-20.65-3.641,17.243-.918,20.825,2.651,20.65,3.641" transform="translate(-239.225 -158.486)" fill="#57ac33"/>
    <path id="Path_11" data-name="Path 11" d="M308.43,189.665c0,1.006-4.147,3.9-20.97,0,16.823-3.9,20.97-1.006,20.97,0" transform="translate(-242.267 -160.665)" fill="#ffc600"/>
    <path id="Path_12" data-name="Path 12" d="M275.584,171.721c.945-.344,5.082,2.564,7.172,19.7-9.417-14.474-8.117-19.36-7.172-19.7" transform="translate(-249.24 -169.564)" fill="#64beab"/>
    <path id="Path_13" data-name="Path 13" d="M266.742,170.453c.77-.646,5.652.671,13.478,16.063-13.8-10.38-14.248-15.417-13.478-16.063" transform="translate(-253.923 -170.326)" fill="#57ac33"/>
    <path id="Path_14" data-name="Path 14" d="M266.209,179.781c.5-.87,5.541-1.3,18.16,10.485-16.518-5.035-18.663-9.615-18.16-10.485" transform="translate(-254.129 -165.28)" fill="#64beab"/>
    <path id="Path_15" data-name="Path 15" d="M258.431,184.278c.174-.99,4.761-3.119,20.65,3.641-17.243.918-20.825-2.651-20.65-3.641" transform="translate(-258.425 -163.182)" fill="#57ac33"/>
    <path id="Path_16" data-name="Path 16" d="M275.584,213.248c.945.344,5.082-2.564,7.172-19.7-9.417,14.474-8.117,19.36-7.172,19.7" transform="translate(-249.24 -157.405)" fill="#64beab"/>
    <path id="Path_17" data-name="Path 17" d="M266.742,213.25c.77.646,5.652-.671,13.478-16.063-13.8,10.38-14.248,15.417-13.478,16.063" transform="translate(-253.923 -155.377)" fill="#57ac33"/>
    <path id="Path_18" data-name="Path 18" d="M266.209,202.022c.5.87,5.541,1.3,18.16-10.485-16.518,5.035-18.663,9.615-18.16,10.485" transform="translate(-254.129 -158.522)" fill="#64beab"/>
    <path id="Path_19" data-name="Path 19" d="M258.431,195.391c.174.99,4.761,3.119,20.65-3.641-17.243-.918-20.825,2.651-20.65,3.641" transform="translate(-258.425 -158.486)" fill="#57ac33"/>
    <path id="Path_20" data-name="Path 20" d="M263.69,189.665c0,1.006,4.147,3.9,20.969,0-16.823-3.9-20.969-1.006-20.969,0" transform="translate(-255.495 -160.665)" fill="#ffc600"/>
    <path id="Path_21" data-name="Path 21" d="M321.927,179.7a3.135,3.135,0,0,0-1.793.487,3.865,3.865,0,0,0-1.178,1.258,5.443,5.443,0,0,0-.646,1.7,9.187,9.187,0,0,0-.188,1.84,8.828,8.828,0,0,0,.188,1.793,5.586,5.586,0,0,0,.613,1.65,3.519,3.519,0,0,0,1.149,1.211,3.155,3.155,0,0,0,1.76.472,3.27,3.27,0,0,0,2.47-.9,4.236,4.236,0,0,0,1.085-2.4H329.7a7.363,7.363,0,0,1-2.515,4.937,8.126,8.126,0,0,1-5.316,1.7,8.884,8.884,0,0,1-3.35-.613,7.377,7.377,0,0,1-2.595-1.714,7.757,7.757,0,0,1-1.667-2.626,9.105,9.105,0,0,1-.6-3.35,10.825,10.825,0,0,1,.549-3.507,7.9,7.9,0,0,1,1.62-2.8,7.419,7.419,0,0,1,2.61-1.84,8.868,8.868,0,0,1,3.522-.66,10.244,10.244,0,0,1,2.785.377,7.442,7.442,0,0,1,2.389,1.149,5.936,5.936,0,0,1,2.47,4.638H325.23a3,3,0,0,0-3.3-2.8" transform="translate(-227.688 -166.98)" fill="#464749"/>
    <path id="Path_22" data-name="Path 22" d="M330.011,186.828a5.1,5.1,0,0,0,.644,1.667,3.43,3.43,0,0,0,1.211,1.178,3.686,3.686,0,0,0,1.887.44,3.781,3.781,0,0,0,1.9-.44,3.387,3.387,0,0,0,1.227-1.178,5.1,5.1,0,0,0,.644-1.667,9.51,9.51,0,0,0,.188-1.9,9.73,9.73,0,0,0-.188-1.918,4.923,4.923,0,0,0-.644-1.669,3.575,3.575,0,0,0-1.227-1.178,3.687,3.687,0,0,0-1.9-.456,3.437,3.437,0,0,0-3.1,1.634,4.923,4.923,0,0,0-.644,1.669,9.732,9.732,0,0,0-.188,1.918,9.512,9.512,0,0,0,.188,1.9m-4.058-5.442a7.429,7.429,0,0,1,4.341-4.435,9.269,9.269,0,0,1,3.459-.613,9.4,9.4,0,0,1,3.476.613,7.4,7.4,0,0,1,4.357,4.435,9.979,9.979,0,0,1,.6,3.538,9.843,9.843,0,0,1-.6,3.522,7.646,7.646,0,0,1-1.7,2.69,7.4,7.4,0,0,1-2.659,1.714,9.625,9.625,0,0,1-3.476.6,9.494,9.494,0,0,1-3.459-.6,7.426,7.426,0,0,1-2.643-1.714,7.645,7.645,0,0,1-1.7-2.69,9.841,9.841,0,0,1-.6-3.522,9.977,9.977,0,0,1,.6-3.538" transform="translate(-221.177 -166.98)" fill="#464749"/>
    <path id="Path_23" data-name="Path 23" d="M341.916,176.779v2.2h.064a6.337,6.337,0,0,1,2.123-1.95,5.748,5.748,0,0,1,2.845-.693,6.55,6.55,0,0,1,2.816.6,3.952,3.952,0,0,1,1.935,2.108,6.9,6.9,0,0,1,1.964-1.886,5.222,5.222,0,0,1,2.942-.819,8.725,8.725,0,0,1,2.391.314,4.832,4.832,0,0,1,1.887,1.007,4.629,4.629,0,0,1,1.227,1.809,7.351,7.351,0,0,1,.441,2.69v10.882h-4.466v-9.216q0-.817-.064-1.541a3.283,3.283,0,0,0-.346-1.258,2.1,2.1,0,0,0-.834-.85,3.023,3.023,0,0,0-1.493-.314,2.855,2.855,0,0,0-1.525.363,2.626,2.626,0,0,0-.914.943,3.782,3.782,0,0,0-.439,1.321,9.936,9.936,0,0,0-.11,1.494v9.057h-4.466v-9.121q0-.724-.033-1.43a4.045,4.045,0,0,0-.266-1.306,2.016,2.016,0,0,0-.788-.959,2.961,2.961,0,0,0-1.619-.363,3.4,3.4,0,0,0-.834.142,2.753,2.753,0,0,0-1.006.535,3.117,3.117,0,0,0-.834,1.132,4.6,4.6,0,0,0-.346,1.935v9.436H337.7V176.779Z" transform="translate(-214.306 -166.98)" fill="#464749"/>
    <path id="Path_24" data-name="Path 24" d="M360.022,176.779v2.2h.064a6.337,6.337,0,0,1,2.123-1.95,5.748,5.748,0,0,1,2.845-.693,6.55,6.55,0,0,1,2.816.6,3.952,3.952,0,0,1,1.935,2.108,6.9,6.9,0,0,1,1.964-1.886,5.226,5.226,0,0,1,2.942-.819,8.725,8.725,0,0,1,2.391.314,4.832,4.832,0,0,1,1.887,1.007,4.629,4.629,0,0,1,1.227,1.809,7.353,7.353,0,0,1,.44,2.69v10.882H376.19v-9.216q0-.817-.064-1.541a3.281,3.281,0,0,0-.345-1.258,2.1,2.1,0,0,0-.834-.85,3.023,3.023,0,0,0-1.493-.314,2.855,2.855,0,0,0-1.525.363,2.625,2.625,0,0,0-.914.943,3.783,3.783,0,0,0-.439,1.321,9.936,9.936,0,0,0-.111,1.494v9.057H366v-9.121q0-.724-.033-1.43a4.045,4.045,0,0,0-.266-1.306,2.015,2.015,0,0,0-.788-.959,2.961,2.961,0,0,0-1.619-.363,3.4,3.4,0,0,0-.834.142,2.753,2.753,0,0,0-1.005.535,3.117,3.117,0,0,0-.834,1.132,4.606,4.606,0,0,0-.346,1.935v9.436h-4.467V176.779Z" transform="translate(-204.23 -166.98)" fill="#464749"/>
    <path id="Path_25" data-name="Path 25" d="M384.739,192.883v-2.265h-.095a5.028,5.028,0,0,1-2.2,2.045,6.506,6.506,0,0,1-2.767.629,7.808,7.808,0,0,1-2.94-.472,4.254,4.254,0,0,1-1.81-1.337,5.249,5.249,0,0,1-.928-2.108,13.163,13.163,0,0,1-.266-2.752v-10H378.2v9.184a5.7,5.7,0,0,0,.629,3,2.44,2.44,0,0,0,2.234.992,3.1,3.1,0,0,0,2.643-1.086,6.031,6.031,0,0,0,.817-3.569v-8.524h4.466v16.261Z" transform="translate(-194.255 -166.822)" fill="#464749"/>
    <path id="Path_26" data-name="Path 26" d="M389.959,176.779v2.265h.1a5.139,5.139,0,0,1,2.2-2.061,6.378,6.378,0,0,1,2.768-.644,7.61,7.61,0,0,1,2.942.487,4.377,4.377,0,0,1,1.809,1.353,5.25,5.25,0,0,1,.928,2.108,13.176,13.176,0,0,1,.268,2.752v10H396.5v-9.184a5.691,5.691,0,0,0-.629-3,2.437,2.437,0,0,0-2.232-.992A3.094,3.094,0,0,0,391,180.948a6.019,6.019,0,0,0-.817,3.569v8.524h-4.467V176.779Z" transform="translate(-187.586 -166.98)" fill="#464749"/>
  </g>
  <path id="Path_27" data-name="Path 27" d="M401.839,195.1h-4.466V178.838h4.466Zm-4.466-22.458h4.466v3.68h-4.466Z" transform="translate(-181.097 -169.038)" fill="#464749"/>
  <g id="Group_3" data-name="Group 3" transform="translate(222.754 3.605)">
    <path id="Path_28" data-name="Path 28" d="M411.978,178.365v2.989h-3.272v8.052a1.512,1.512,0,0,0,1.888,1.887c.251,0,.492-.009.724-.031a5.7,5.7,0,0,0,.66-.095v3.46a10.934,10.934,0,0,1-1.258.126c-.462.02-.912.031-1.353.031a12.949,12.949,0,0,1-1.966-.142,4.615,4.615,0,0,1-1.636-.549,2.916,2.916,0,0,1-1.116-1.164,4.157,4.157,0,0,1-.409-1.981v-9.593h-2.705v-2.989h2.705V173.49h4.466v4.875Z" transform="translate(-401.535 -172.17)" fill="#464749"/>
    <path id="Path_29" data-name="Path 29" d="M416.694,197.727a6.483,6.483,0,0,1-3.586.85c-.462,0-.918-.017-1.37-.048s-.906-.068-1.368-.111v-3.68q.63.063,1.29.126a9.365,9.365,0,0,0,1.322.031,1.736,1.736,0,0,0,1.3-.691,2.229,2.229,0,0,0,.425-1.321,2.714,2.714,0,0,0-.188-1.007l-5.694-15.254h4.749l3.681,11.134h.062l3.555-11.134H425.5L418.705,194.9a5.512,5.512,0,0,1-2.011,2.831" transform="translate(-397.476 -170.427)" fill="#464749"/>
    <path id="Path_30" data-name="Path 30" d="M425.036,181.826v-2.989h2.674v-1.258a4.871,4.871,0,0,1,1.351-3.554,5.478,5.478,0,0,1,4.089-1.384q.6,0,1.2.047t1.164.078V176.1a13.877,13.877,0,0,0-1.636-.093,1.714,1.714,0,0,0-1.3.423,2.087,2.087,0,0,0-.394,1.432v.974h3.082v2.989h-3.082V195.1H427.71V181.826Z" transform="translate(-388.456 -172.642)" fill="#464749"/>
  </g>
  <path id="Path_31" data-name="Path 31" d="M437.6,195.1h-4.466V178.838H437.6Zm-4.466-22.458H437.6v3.68h-4.466Z" transform="translate(-161.192 -169.038)" fill="#464749"/>
  <g id="Group_4" data-name="Group 4" transform="translate(85.811 4.925)">
    <path id="Path_32" data-name="Path 32" d="M442.315,176.779v3.02h.064a5.461,5.461,0,0,1,.848-1.4,5.567,5.567,0,0,1,1.227-1.1,5.959,5.959,0,0,1,1.479-.708,5.318,5.318,0,0,1,1.636-.252,3.5,3.5,0,0,1,.974.157v4.153c-.21-.042-.461-.079-.755-.111a8.09,8.09,0,0,0-.848-.048,4.762,4.762,0,0,0-2.076.409,3.577,3.577,0,0,0-1.368,1.118,4.471,4.471,0,0,0-.739,1.65,8.945,8.945,0,0,0-.221,2.045v7.328h-4.466V176.779Z" transform="translate(-244.26 -171.904)" fill="#464749"/>
    <path id="Path_33" data-name="Path 33" d="M449.971,189a2.628,2.628,0,0,0,.77.85,3.293,3.293,0,0,0,1.083.487,5.079,5.079,0,0,0,1.275.157,4.67,4.67,0,0,0,.99-.111,3.344,3.344,0,0,0,.945-.346,2.124,2.124,0,0,0,.707-.629,1.659,1.659,0,0,0,.283-.991q0-1.006-1.337-1.51a26.808,26.808,0,0,0-3.725-1.006c-.654-.146-1.287-.319-1.905-.52a6.5,6.5,0,0,1-1.65-.786,3.772,3.772,0,0,1-1.163-1.227,3.468,3.468,0,0,1-.44-1.809,4.905,4.905,0,0,1,.61-2.579,4.528,4.528,0,0,1,1.622-1.588,7.1,7.1,0,0,1,2.263-.819,13.975,13.975,0,0,1,2.581-.235,12.878,12.878,0,0,1,2.564.252,6.766,6.766,0,0,1,2.216.848,5.107,5.107,0,0,1,1.62,1.589,5.352,5.352,0,0,1,.772,2.5H455.8a1.949,1.949,0,0,0-.974-1.745,4.434,4.434,0,0,0-2.075-.458,7.831,7.831,0,0,0-.819.048,2.718,2.718,0,0,0-.8.2,1.651,1.651,0,0,0-.613.456,1.2,1.2,0,0,0-.252.8,1.223,1.223,0,0,0,.44.976,3.4,3.4,0,0,0,1.147.613,14.43,14.43,0,0,0,1.622.425q.911.187,1.854.409a18.557,18.557,0,0,1,1.9.534,6.3,6.3,0,0,1,1.651.833,4.057,4.057,0,0,1,1.166,1.29,3.807,3.807,0,0,1,.437,1.9,4.936,4.936,0,0,1-2.327,4.435,6.9,6.9,0,0,1-2.375.929,13.887,13.887,0,0,1-2.719.266,13.5,13.5,0,0,1-2.769-.282,7.313,7.313,0,0,1-2.4-.945,5.359,5.359,0,0,1-1.731-1.745,5.462,5.462,0,0,1-.741-2.721h4.246a2.431,2.431,0,0,0,.3,1.242" transform="translate(-240.167 -171.904)" fill="#464749"/>
    <path id="Path_34" data-name="Path 34" d="M466.254,178.365v2.989h-3.272v8.052a1.512,1.512,0,0,0,1.888,1.887c.251,0,.492-.009.722-.031a5.683,5.683,0,0,0,.661-.095v3.46a10.963,10.963,0,0,1-1.259.126q-.691.03-1.353.031a12.944,12.944,0,0,1-1.964-.142,4.615,4.615,0,0,1-1.636-.549,2.93,2.93,0,0,1-1.118-1.164,4.158,4.158,0,0,1-.408-1.981v-9.593h-2.705v-2.989h2.705V173.49h4.466v4.875Z" transform="translate(-234.386 -173.49)" fill="#464749"/>
    <path id="Path_35" data-name="Path 35" d="M326.451,199.78a4.69,4.69,0,0,0-.551-1.886,4.213,4.213,0,0,0-1.178-1.353,5.386,5.386,0,0,0-1.684-.819,7.261,7.261,0,0,0-2.059-.282,5.647,5.647,0,0,0-2.674.613,5.906,5.906,0,0,0-1.95,1.634,7.413,7.413,0,0,0-1.194,2.329,8.9,8.9,0,0,0-.409,2.688,11.483,11.483,0,0,0,.377,3.02,6.849,6.849,0,0,0,1.164,2.406,5.4,5.4,0,0,0,1.95,1.588,6.175,6.175,0,0,0,2.736.567,5.586,5.586,0,0,0,3.79-1.415,5.389,5.389,0,0,0,1.211-1.588,6.493,6.493,0,0,0,.629-2.03h1.2a7.616,7.616,0,0,1-.786,2.579,6.337,6.337,0,0,1-1.51,1.9,6.56,6.56,0,0,1-2.076,1.178,8.048,8.048,0,0,1-5.834-.3,6.484,6.484,0,0,1-2.3-1.9,8.106,8.106,0,0,1-1.32-2.752,12.314,12.314,0,0,1-.425-3.256,10.373,10.373,0,0,1,.487-3.208,7.833,7.833,0,0,1,1.432-2.641,6.791,6.791,0,0,1,2.327-1.793,7.29,7.29,0,0,1,3.177-.66,8.862,8.862,0,0,1,2.469.33,6.405,6.405,0,0,1,2.045.99,5.189,5.189,0,0,1,1.462,1.683,5.99,5.99,0,0,1,.693,2.375Z" transform="translate(-313.555 -161.852)" fill="#818386"/>
    <path id="Path_36" data-name="Path 36" d="M325.7,198.265h.095a3.921,3.921,0,0,1,.8-1.479,5.653,5.653,0,0,1,1.415-1.2,7.047,7.047,0,0,1,1.857-.77,7.488,7.488,0,0,1,2.122-.235v1.2a5.641,5.641,0,0,0-2.154.188,5.223,5.223,0,0,0-2.311,1.384,11.35,11.35,0,0,0-.771.912,4.418,4.418,0,0,0-.549.976,6.121,6.121,0,0,0-.347,1.194,10.341,10.341,0,0,0-.157,1.574v8.838h-1.2V194.679h1.2Z" transform="translate(-307.46 -161.752)" fill="#818386"/>
    <path id="Path_37" data-name="Path 37" d="M342.481,201.982a9.651,9.651,0,0,0-.441-2.5,6.177,6.177,0,0,0-1.121-2.076,5.559,5.559,0,0,0-1.8-1.43,5.277,5.277,0,0,0-2.413-.535,5.641,5.641,0,0,0-2.554.551,5.777,5.777,0,0,0-1.862,1.446,6.468,6.468,0,0,0-1.167,2.092,9.868,9.868,0,0,0-.5,2.453Zm-11.889,1.038v.188a9.555,9.555,0,0,0,.378,2.705,6.888,6.888,0,0,0,1.121,2.265,5.286,5.286,0,0,0,1.86,1.541,5.676,5.676,0,0,0,2.6.567,5.547,5.547,0,0,0,3.848-1.273,6.661,6.661,0,0,0,1.955-3.54h1.2a7.234,7.234,0,0,1-2.311,4.341,7.021,7.021,0,0,1-4.7,1.51,7.125,7.125,0,0,1-3.129-.646,6.346,6.346,0,0,1-2.234-1.76,7.481,7.481,0,0,1-1.337-2.643,11.775,11.775,0,0,1-.44-3.286,11.542,11.542,0,0,1,.456-3.256A8.188,8.188,0,0,1,331.221,197a6.781,6.781,0,0,1,2.28-1.887,6.929,6.929,0,0,1,3.224-.708,6.847,6.847,0,0,1,3,.629,6.316,6.316,0,0,1,2.187,1.715,7.612,7.612,0,0,1,1.335,2.515,10.025,10.025,0,0,1,.458,3.068c0,.1-.006.224-.017.361s-.016.246-.016.33Z" transform="translate(-304.738 -161.852)" fill="#818386"/>
    <path id="Path_38" data-name="Path 38" d="M347.118,212.4a5.328,5.328,0,0,0,2.659-.63,5.668,5.668,0,0,0,1.855-1.665,7.364,7.364,0,0,0,1.1-2.375,10.368,10.368,0,0,0,.363-2.721,10.488,10.488,0,0,0-.363-2.752,7.774,7.774,0,0,0-1.085-2.391,5.379,5.379,0,0,0-1.871-1.683,5.521,5.521,0,0,0-2.69-.629,5.668,5.668,0,0,0-2.736.613,5.444,5.444,0,0,0-1.871,1.651,6.867,6.867,0,0,0-1.069,2.391,11.7,11.7,0,0,0-.331,2.8,10.479,10.479,0,0,0,.363,2.752,7.365,7.365,0,0,0,1.1,2.375,5.459,5.459,0,0,0,1.873,1.65,5.59,5.59,0,0,0,2.7.615m6.008-2.8h-.064a7.344,7.344,0,0,1-2.515,2.878,7.524,7.524,0,0,1-6.825.268,6.2,6.2,0,0,1-2.17-1.857,8.062,8.062,0,0,1-1.259-2.688,12.831,12.831,0,0,1,.033-6.542,7.6,7.6,0,0,1,1.336-2.69,6.42,6.42,0,0,1,2.249-1.793,7.182,7.182,0,0,1,3.177-.66,6.985,6.985,0,0,1,1.919.268,6.691,6.691,0,0,1,1.745.771,5.517,5.517,0,0,1,2.311,2.956h.064V190.6h1.2v22.458h-1.2Z" transform="translate(-298.902 -163.966)" fill="#818386"/>
  </g>
  <path id="Path_39" data-name="Path 39" d="M351.787,213.061h1.2V196.893h-1.2Zm0-19.217h1.2V190.6h-1.2Z" transform="translate(-206.467 -159.041)" fill="#818386"/>
  <g id="Group_5" data-name="Group 5" transform="translate(148.558 32.821)">
    <path id="Path_40" data-name="Path 40" d="M361.573,197.482h-3.522v11.291a4.373,4.373,0,0,0,.219,1.541,1.753,1.753,0,0,0,.677.865,2.382,2.382,0,0,0,1.1.361,11.37,11.37,0,0,0,1.494.033v1.037a11.077,11.077,0,0,1-1.778-.016,3.543,3.543,0,0,1-1.525-.472,2.761,2.761,0,0,1-1.054-1.178,4.456,4.456,0,0,1-.33-2.171V197.482h-2.989v-1.038h2.989v-5.032h1.2v5.032h3.522Z" transform="translate(-353.867 -191.412)" fill="#818386"/>
    <path id="Path_41" data-name="Path 41" d="M378.651,210.811h-1.2v-3.46h-.064a5.23,5.23,0,0,1-.9,1.62,5.955,5.955,0,0,1-3.035,1.966,6.932,6.932,0,0,1-1.855.251,7.343,7.343,0,0,1-2.406-.346,4.679,4.679,0,0,1-1.62-.912,4.412,4.412,0,0,1-.992-1.273,5.85,5.85,0,0,1-.518-1.43,8.453,8.453,0,0,1-.188-1.4c-.022-.45-.031-.844-.031-1.178v-10h1.194v10.222a15.141,15.141,0,0,0,.095,1.525,4.56,4.56,0,0,0,.551,1.729,4.028,4.028,0,0,0,1.368,1.432,4.69,4.69,0,0,0,2.579.6,5.718,5.718,0,0,0,2.438-.5,5.269,5.269,0,0,0,1.84-1.4,6.163,6.163,0,0,0,1.147-2.139,8.991,8.991,0,0,0,.394-2.721v-8.743h1.2Z" transform="translate(-347.198 -189.613)" fill="#818386"/>
    <path id="Path_42" data-name="Path 42" d="M376.337,194.78h1.2v3.46h.062a5.2,5.2,0,0,1,.9-1.62,5.956,5.956,0,0,1,3.035-1.966,6.934,6.934,0,0,1,1.855-.251,7.362,7.362,0,0,1,2.408.346,4.726,4.726,0,0,1,1.619.912,4.46,4.46,0,0,1,.991,1.273,5.991,5.991,0,0,1,.518,1.432,8.573,8.573,0,0,1,.188,1.4c.02.451.031.844.031,1.18v10h-1.2V200.724q0-.6-.093-1.51a4.618,4.618,0,0,0-.551-1.745,3.982,3.982,0,0,0-1.384-1.43,4.711,4.711,0,0,0-2.564-.6,5.686,5.686,0,0,0-2.453.5,5.316,5.316,0,0,0-1.824,1.4,6.165,6.165,0,0,0-1.149,2.139,9,9,0,0,0-.392,2.721v8.743h-1.2Z" transform="translate(-341.362 -189.747)" fill="#818386"/>
  </g>
  <path id="Path_43" data-name="Path 43" d="M387.006,213.061h1.2V196.893h-1.2Zm0-19.217h1.2V190.6h-1.2Z" transform="translate(-186.867 -159.041)" fill="#818386"/>
  <path id="Path_44" data-name="Path 44" d="M390.929,202.863a9.407,9.407,0,0,0,.409,2.783,7.506,7.506,0,0,0,1.194,2.375,5.83,5.83,0,0,0,1.95,1.651,6.133,6.133,0,0,0,5.347,0,5.846,5.846,0,0,0,1.95-1.651,7.574,7.574,0,0,0,1.2-2.375,9.67,9.67,0,0,0,0-5.568,7.566,7.566,0,0,0-1.2-2.374,5.827,5.827,0,0,0-1.95-1.651,6.133,6.133,0,0,0-5.347,0,5.812,5.812,0,0,0-1.95,1.651,7.5,7.5,0,0,0-1.194,2.374,9.424,9.424,0,0,0-.409,2.785m-1.2,0a10.617,10.617,0,0,1,.487-3.255,8.14,8.14,0,0,1,1.43-2.69,6.771,6.771,0,0,1,2.329-1.84,7.788,7.788,0,0,1,6.352,0,6.786,6.786,0,0,1,2.329,1.84,8.169,8.169,0,0,1,1.43,2.69,10.617,10.617,0,0,1,.487,3.255,10.769,10.769,0,0,1-.487,3.27,7.958,7.958,0,0,1-1.43,2.69,6.876,6.876,0,0,1-2.329,1.824,7.8,7.8,0,0,1-6.352,0,6.861,6.861,0,0,1-2.329-1.824,7.931,7.931,0,0,1-1.43-2.69,10.769,10.769,0,0,1-.487-3.27" transform="translate(-185.348 -156.927)" fill="#818386"/>
  <path id="Path_45" data-name="Path 45" d="M401.07,194.78h1.2v3.46h.062a5.2,5.2,0,0,1,.9-1.62,5.956,5.956,0,0,1,3.035-1.966,6.934,6.934,0,0,1,1.855-.251,7.345,7.345,0,0,1,2.406.346,4.72,4.72,0,0,1,1.62.912,4.462,4.462,0,0,1,.991,1.273,5.992,5.992,0,0,1,.518,1.432,8.573,8.573,0,0,1,.188,1.4c.02.451.031.844.031,1.18v10h-1.2V200.724q0-.6-.093-1.51a4.619,4.619,0,0,0-.551-1.745,3.983,3.983,0,0,0-1.384-1.43,4.711,4.711,0,0,0-2.564-.6,5.686,5.686,0,0,0-2.453.5,5.316,5.316,0,0,0-1.824,1.4,6.165,6.165,0,0,0-1.149,2.139,9,9,0,0,0-.392,2.721v8.743h-1.2Z" transform="translate(-179.04 -156.927)" fill="#818386"/>
</svg>
