<svg width="193" height="39" viewBox="0 0 193 39" fill="none" xmlns="http://www.w3.org/2000/svg">
<path d="M66.5131 26.1569C66.5131 31.1522 62.9633 33.9677 57.078 33.9677H43.9996V6.17603H56.2372C62.2159 6.17603 65.7658 8.71905 65.7658 13.7143C65.7658 16.7114 64.0843 18.8911 61.9357 19.6177C64.5514 20.4351 66.5131 23.069 66.5131 26.1569ZM55.3031 17.1655C57.4517 17.1655 58.6661 16.3481 58.6661 14.6225C58.6661 12.8969 57.5451 12.1703 55.3031 12.1703H51.0059V17.1655H55.3031ZM51.0059 27.9734H56.0504C58.1056 27.9734 59.32 26.8835 59.32 25.3395C59.32 23.7047 58.199 22.6149 56.0504 22.6149H51.0059V27.9734Z" fill="#2B40C7"/>
<path d="M81.0862 21.7065C81.0862 20.1625 79.5915 18.9818 76.6021 18.9818C74.6404 18.9818 72.5852 19.4359 70.9037 20.435V14.7132C72.5852 13.8049 75.3877 13.1692 78.3771 13.1692C84.5426 13.1692 88.0925 15.9847 88.0925 21.434V33.9675H81.0862V32.9685C80.4323 33.6042 78.3771 34.3308 76.1351 34.3308C72.0247 34.3308 68.4749 32.0602 68.4749 27.7916C68.4749 23.8862 72.0247 21.3432 76.5087 21.3432C78.2837 21.3432 80.2454 21.8881 81.0862 22.4331V21.7065ZM81.0862 27.065C80.6191 26.2476 79.4981 25.7027 78.1902 25.7027C76.789 25.7027 75.2943 26.2476 75.2943 27.6099C75.2943 28.9723 76.6956 29.608 78.1902 29.608C79.4981 29.608 80.6191 29.0631 81.0862 28.2457V27.065Z" fill="#2B40C7"/>
<path d="M91.6423 13.6233H98.9288V15.3489C100.05 14.0774 102.105 13.1692 104.534 13.1692C109.205 13.1692 111.914 16.0755 111.914 20.6166V33.9675H104.627V22.3422C104.627 20.7074 103.787 19.4359 101.918 19.4359C100.517 19.4359 99.3025 20.2533 98.9288 21.6157V33.8767H91.6423V13.6233Z" fill="#2B40C7"/>
<path d="M137.323 33.9677H129.103L122.75 25.0671V33.9677H115.464V4.54126H122.75V21.2526L128.729 13.5327H137.136L129.383 22.9782L137.323 33.9677Z" fill="#2B40C7"/>
<path d="M146.385 33.9672L135.735 6.26636H143.769L150.215 24.1583L156.661 6.26636H164.321L153.671 33.9672H146.385Z" fill="#2B40C7"/>
<path d="M170.019 11.8976C167.777 11.8976 165.909 10.4445 165.909 8.08309C165.909 5.72171 167.777 4.26855 170.019 4.26855C172.261 4.26855 174.13 5.72171 174.13 8.08309C174.223 10.4445 172.261 11.8976 170.019 11.8976ZM173.663 33.9675H166.376V13.6233H173.663V33.9675Z" fill="#2B40C7"/>
<path d="M187.395 13.1692C189.544 13.1692 191.505 13.5325 193 14.6223V20.6166C191.692 19.7084 190.197 19.1635 188.516 19.1635C185.807 19.1635 183.658 20.7074 183.658 23.7954C183.658 26.8834 185.807 28.4273 188.516 28.4273C190.197 28.4273 191.692 27.9732 193 26.9742V32.9685C191.505 33.9675 189.544 34.4216 187.395 34.4216C181.136 34.4216 176.465 30.3346 176.465 23.7954C176.465 17.2562 181.136 13.1692 187.395 13.1692Z" fill="#2B40C7"/>
<path fill-rule="evenodd" clip-rule="evenodd" d="M19.1505 7.44743L0 0L19.1505 38.5995L38.3011 0L19.1505 7.44743ZM25.97 13.5325L23.3543 15.349L24.3819 12.3518L21.7662 10.5354H24.9424L25.97 7.62908L26.9976 10.5354H30.1738L27.5581 12.3518L28.5857 15.349L25.97 13.5325Z" fill="#2B40C7"/>
</svg>
