<svg xmlns="http://www.w3.org/2000/svg" viewBox="0 0 531.8 271.3" enable-background="new 0 0 531.8 271.3"><linearGradient id="a" gradientUnits="userSpaceOnUse" x1="356.414" y1="89.864" x2="502.867" y2="71.463"><stop offset=".341" stop-color="#0083C2"/><stop offset=".629" stop-color="#0081C0"/><stop offset=".733" stop-color="#007CB9"/><stop offset=".807" stop-color="#0072AE"/><stop offset=".867" stop-color="#00659D"/><stop offset=".918" stop-color="#005387"/><stop offset=".951" stop-color="#004474"/></linearGradient><path fill="url(#a)" d="M487.4 12.3c-1.5-.9-3.1-1.7-4.7-2.4l-2.5-1.2.1.1c-3.5-1.6-7.2-2.9-11-3.9-8.5-2.4-18.7-3.4-27-3.8-40.4-2.2-72.5 15.6-84.9 44.5-13.4 30.4 5.8 59.4 39.4 68.3 24.6 6.5 52.5-2.4 62.5-21.1l-3.6-3.6c-2.3-2.3-2.3-6 0-8.4l7.2-7.1.1-.1c-2-12.2-12.6-20.3-23.5-23.3-17.4-4.8-33.3 1.1-41.1 11.8-1 1.4 1.1 2.3 1.1 2.3s7.5 3.5 8.7 4.1c1.1.6 2.2-.5 2.8-1 4.6-3.8 11.4-6.5 19.1-4.3 10.7 3.2 14.8 11.8 10.4 20.6-5.7 11.8-22.4 14.6-34.6 11.5-19.9-5-26.8-22.1-20.1-38.4 7.8-18.9 37.7-29.6 63.8-21.9 29.7 9.4 43.6 34.2 31.5 61.6-2.6 5.9-6.8 12-12.4 17.8-.5.6-1.1 1.1-1.7 1.7l-.5.4c-.7.7-1.5 1.4-2.3 2.1 0 0-.1 0-.1.1-.8.7-1.6 1.4-2.5 2.1l-.1.1c-.9.7-1.8 1.4-2.7 2.2l1.6.6.2.1c1.7.7 3.4 1.5 5 2.3l.2.1c.4.2.8.4 1.1.6.2.1.4.2.5.3l1.2.7c.1.1.3.2.4.2 1.1.6 2.1 1.3 3.2 2 6.4 4.5 11.6 10.3 15.3 17.3l.7 1.4.1.3.6 1.2.1.2 1.2 2.8c24.4-17.1 34.4-40.3 36.2-45.1 0-.1 0-.1.1-.2 11.6-32.3 3.3-72.4-39.1-95.6z"/><linearGradient id="b" gradientUnits="userSpaceOnUse" x1="526.884" y1="7.255" x2="445.824" y2="182.959"><stop offset="0" stop-color="#6DCFF6"/><stop offset=".431" stop-color="#00AEEF"/><stop offset=".782" stop-color="#0088C7"/><stop offset="1" stop-color="#0072AA"/></linearGradient><path fill="url(#b)" d="M480.2 8.6c16.7 16.3 18.9 43.4 11.8 68.2-1.7 6.1-11.9 26.8-23.2 37.2-3 3.1-6.4 6.2-10.2 9.1 4.8 1.8 9.3 4.1 13.4 7 6.4 4.5 11.6 10.3 15.3 17.3 1 1.9 1.9 3.9 2.6 5.8 24.4-17.2 34.5-40.4 36.2-45.2 12.6-34.1 2.8-76.9-45.9-99.4z"/><linearGradient id="c" gradientUnits="userSpaceOnUse" x1="239.622" y1="154.018" x2="243.572" y2="226.83"><stop offset="0" stop-color="#00B6F1"/><stop offset=".144" stop-color="#00AEEF"/><stop offset=".316" stop-color="#00A0E0"/><stop offset=".643" stop-color="#007DBA"/><stop offset=".644" stop-color="#007DBA"/><stop offset="1" stop-color="#005282"/></linearGradient><path fill="url(#c)" d="M471.3 194.8c-4.5-2.9-9-5.1-13.5-6.4-4.4-1.3-7.8-2.2-10.2-2.7-8.2-2.1-14.8-3.8-19.8-5.1-4.9-1.3-8.8-2.6-11.5-3.9-3-1.4-4.3-2.7-4.8-3.5-.7-1.2-1.1-2.9-1.1-5 0-2.3.5-4.2 1.4-5.6 1-1.6 2.4-2.9 4-3.9 1.6-1.1 3.5-1.8 5.5-2.2 5.5-1.2 11.2-.8 15.8.2 2.7.6 5.1 1.5 7.2 2.8l.8.6c3.3 2.1 6.5 6.4 7.8 8.3 2.1 3.1 4.3 3.3 7.6 2.2 3.3-1.1 11.2-4.4 16.9-8 2.8-1.8 3.7-5.1 2.6-8.1-.2-.5-.5-1-.8-1.5-.3-.6-.7-1.2-1-1.7l-.9-1.4-.3-.5-.7-1c-.3-.4-.6-.8-.9-1.3l-.1-.1c-1.9-2.4-4.1-4.6-6.5-6.5l-.2-.1c-.6-.5-1.2-.9-1.8-1.3-5.1-3.6-11-6.2-17.5-7.8-12-2.9-25.4-3.4-38.4.1-6.1 1.7-11.6 4.2-16.5 7.7s-8.9 7.9-11.9 13.1c-3.1 5.3-4.6 11.6-4.6 18.7 0 6.3 1.2 11.9 3.7 16.4 2.4 4.5 5.6 8.3 9.5 11.3 3.8 2.9 8.2 5.4 13 7.2 4.7 1.8 9.6 3.3 14.5 4.6 4.7 1.3 9.5 2.6 14.2 3.7 4.5 1.1 8.6 2.3 12.1 3.7 3.4 1.3 6.1 3 8.1 5 1.8 1.8 2.7 4 2.7 6.9 0 2.8-.7 5-2 6.7-1.5 1.8-3.4 3.3-5.6 4.4-2.3 1.1-4.9 1.9-7.6 2.3-6.9 1-12.7.8-18.3-.7-3.2-.8-6.1-2.1-8.5-3.8-2.3-1.7-4.2-3.9-5.6-6.6-1.1-2.2-1.8-4.3-1.9-6-.3-3.7-2.6-6.4-6.2-6.4h-20c-2.3 0-4.2 1.2-5.4 2.9v-84.2c-.2-3.4-3-6-6.4-6h-33.4c-2.9 0-5.3 1.9-6.1 4.5l-26 80.7-27.5-80.8c-.9-2.6-3.2-4.4-6.1-4.4h-33.4c-3.6 0-6.5 2.9-6.5 6.4v100.5l-38.4-103.2c-.9-2.4-3.2-4.2-6-4.2h-23.9c-2.5 0-4.7 1.5-5.8 3.6l-41.9 110.8c-.1-1.8-.3-3.5-.3-5.2-.1-2.8-.2-5.3-.4-7.4-.3-3.4-.7-6.8-1.4-10.2-.7-3.5-1.9-6.8-3.4-9.7-1.6-3-3.7-5.6-6.2-7.8-1.4-1.2-3-2.2-4.7-3.1 5.4-3 9.5-6.8 12.3-11.6 3.4-5.9 5.2-13 5.2-21.1 0-5.3-.9-10.3-2.8-14.9s-4.6-8.7-8.2-12.2c-3.6-3.5-7.9-6.3-12.8-8.3-5-2-10.6-3-16.7-3h-66.4c-3.4 0-6.2 2.7-6.4 6.1v122.8c0 3.6 2.9 6.4 6.4 6.4h20.6c3.5 0 6.3-2.8 6.4-6.3v-44.8h26.4c6.5 0 11.2 1.4 13.9 4.1 2.8 2.8 4.7 7.4 5.6 13.7.7 5.2 1.3 10.6 1.6 16.3.3 4.6 1 8.8 2.1 12.5.8 2.6 3.3 4.5 6.1 4.5h44.9c2.8 0 5.2-1.8 6.1-4.4l8.7-24.7h45.2l8.4 24.7c.8 2.5 3.2 4.4 6 4.4h44.800000000000004c3.6 0 6.4-2.9 6.4-6.4v-74.7l26.9 77c.9 2.4 3.2 4.2 6 4.2h16.4c2.8 0 5.2-1.9 6.1-4.4l26.8-77.5v75.5c0 3.6 2.9 6.4 6.4 6.4h18.7c3.6 0 6.4-2.9 6.4-6.4v-27.4c.8 3.6 1.9 7 3.5 10.1 3.2 6.2 7.6 11.3 13.1 15.3 5.4 3.9 11.7 6.9 18.7 8.7 6.9 1.8 14.2 2.7 21.5 2.7 9.1 0 17.2-1.1 24.2-3.2 7-2.2 13-5.2 17.8-9.1 4.8-3.9 8.5-8.7 11-14.1 2.4-5.4 3.7-11.3 3.7-17.6 0-7.8-1.7-14.3-5.1-19.3-3-5.1-6.9-9.1-11.4-12zm-394.7-7.7c-2.8 2.5-7.3 3.8-13.3 3.8h-29.1v-32.1h29.1c6 0 10.4 1.3 13.3 3.7 2.7 2.4 4.1 6.4 4.1 12 0 5.9-1.4 10.1-4.1 12.6zm82.1 24.8l13.8-39 13.4 39h-27.2z"/><g fill="#78C339"><path d="M287.7 262.9c.9 2.4 3.2 4.2 6 4.2h16.4c2.8 0 5.2-1.9 6.1-4.4l18.1-52.4c-10.3 2-20.7 3.9-31.3 5.6l-.4 1.2-.4-1.1c-9.8 1.5-19.6 2.9-29.5 4.2l15 42.7zM80 233.8c.7 5.2 1.3 10.6 1.6 16.3.3 4.6 1 8.8 2.1 12.5.8 2.6 3.3 4.5 6.1 4.5h44.9c2.8 0 5.2-1.8 6.1-4.4l8.7-24.7h45.5l8.4 24.7c.8 2.5 3.2 4.4 6 4.4h44.800000000000004c3.6 0 6.4-2.9 6.4-6.4v-39c-10.5 1.2-21.1 2.3-31.6 3.3v13.8l-5-13.4c-35.6 3.1-71.1 4.7-105.1 5.6l-5.8 15.4c-.1-1.8-.3-3.5-.3-5.2-.1-2.8-.2-5.3-.4-7.4l-.2-2.6c-11.1.3-22 .4-32.6.5.2.6.3 1.4.4 2.1zM7.2 267.1h20.6c3.5 0 6.3-2.8 6.4-6.3v-29h-33.4v28.8c0 3.6 2.9 6.5 6.4 6.5zM343 208.5v52.2c0 3.6 2.9 6.4 6.4 6.4h18.7c3.6 0 6.4-2.9 6.4-6.4v-27.4c.8 3.6 1.9 7 3.5 10.1 3.2 6.2 7.6 11.3 13.1 15.3 5.4 3.9 11.7 6.9 18.7 8.7 6.9 1.8 14.2 2.7 21.5 2.7 9.1 0 17.2-1.1 24.2-3.2 7-2.2 13-5.2 17.8-9.1 4.8-3.9 8.5-8.7 11-14.1 2.4-5.4 3.7-11.3 3.7-17.6 0-7.8-1.7-14.3-5.1-19.3-3.3-4.9-7.2-8.9-11.7-11.9-4.5-2.9-9-5.1-13.5-6.4-4.4-1.3-7.8-2.2-10.2-2.7-5.1-1.3-9.6-2.5-13.5-3.5-12.6 4.8-27.4 9.8-44.6 14.7.5.4 1 .9 1.6 1.3 3.8 2.9 8.2 5.4 13 7.2 4.7 1.8 9.6 3.3 14.5 4.6 4.7 1.3 9.5 2.6 14.2 3.7 4.5 1.1 8.6 2.3 12.1 3.7 3.4 1.3 6.1 3 8.1 5 1.8 1.8 2.7 4 2.7 6.9 0 2.8-.7 5-2 6.7-1.5 1.8-3.4 3.3-5.6 4.4-2.3 1.1-4.9 1.9-7.6 2.3-6.9 1-12.7.8-18.3-.7-3.2-.8-6.1-2.1-8.5-3.8-2.3-1.7-4.2-3.9-5.6-6.6-1.1-2.2-1.8-4.3-1.9-6-.3-3.7-2.6-6.4-6.2-6.4h-20c-2.3 0-4.2 1.2-5.4 2.9v-21c-10.3 2.5-20.8 5-31.5 7.3z"/></g><path fill="#0083C2" d="M468.5 93.5c-.9.9-2.3.9-3.1 0l-7.1-7.1c-.9-.9-.9-2.3 0-3.1l7.1-7.1c.9-.9 2.3-.9 3.1 0l7.1 7.1c.9.9.9 2.3 0 3.1l-7.1 7.1z"/><path fill="none" d="M-67.4-66.4h666.8v401.4h-666.8z"/></svg>