<?xml version="1.0" encoding="utf-8"?>
<!-- Generator: Adobe Illustrator 24.1.2, SVG Export Plug-In . SVG Version: 6.00 Build 0)  -->
<svg version="1.1" id="Layer_1" xmlns="http://www.w3.org/2000/svg" xmlns:xlink="http://www.w3.org/1999/xlink" x="0px" y="0px"
	 viewBox="0 0 477.9 97.3" style="enable-background:new 0 0 477.9 97.3;" xml:space="preserve">
<style type="text/css">
	.st0{fill:#163C84;}
	.st1{fill:#75D7E3;}
	.st2{fill:#4D4D4F;}
	.st3{fill:#1AA1AD;}
	.st4{fill:none;stroke:#4D4D4F;stroke-miterlimit:10;}
</style>
<g>
	<path class="st0" d="M48.3,68.2c-11,4-23.2-1.6-27.3-12.6c-4-11,1.6-23.2,12.6-27.3s23.2,1.6,27.3,12.6c1.7,4.7,1.7,9.8,0,14.5
		l13.1,13.1C85.3,50.3,79.6,26.3,61.3,15S19,9.5,7.8,27.8S2.2,70.1,20.5,81.3c12.5,7.7,28.3,7.7,40.8,0L48.3,68.2z"/>
	<path class="st1" d="M43.9,63.8l-5.7-5.7l12.7-12.7l5.7,5.7l-11.9,0.8L43.9,63.8z M69.7,64.2L57.8,65L57,76.9l4.4,4.4l0.8-11.9
		L74,68.6L69.7,64.2z M70.9,78.1l9.4-0.6l1.4-1.4l-3.2-3.2l-11.9,0.8l-0.8,11.9l3.2,3.2l1.4-1.4L70.9,78.1z M49.1,56.3l-0.8,11.9
		l4.4,4.4l0.8-11.9l11.9-0.8L61,55.4L49.1,56.3z"/>
	<path class="st2" d="M109.1,79.5H96.3V52.1h12.2c4.1,0,7.4,2.3,7.4,6.4c0,2.5-1.4,4.8-3.6,6c3,1.1,4.9,4,4.8,7.1
		C117,75.9,114.1,79.5,109.1,79.5 M107.9,54.8h-8.8v8.8h8.8c2.8,0,5-1.9,5-4.8S110.7,54.8,107.9,54.8 M109,66.3h-9.9v10.5h9.9
		c2.8,0,4.9-2,4.9-5.1C114,68.5,111.9,66.3,109,66.3"/>
	<path class="st2" d="M138,79.8c-2,0-3.8-1.1-4-3.6c-2.1,3-4.8,3.8-7.7,3.8c-4,0-6.9-2.4-6.9-6.2c0-5,4.2-6,7.1-6.4
		c3.9-0.5,7.3-0.7,7.3-3.6c0-2.6-2.8-3.4-5.3-3.4c-2.4,0-4.6,0.8-6.5,2.3l-1.5-2c2.3-1.8,5-2.8,7.9-2.8c4.9,0,8.1,2.1,8.1,6.7V75
		c0,1.8,0.5,2.6,1.9,2.6c0.4,0,0.9-0.1,1.3-0.2l0.4,2.2C139.5,79.7,138.8,79.8,138,79.8 M134,67.1c-1.4,1.8-3.2,1.9-6.9,2.5
		c-2.8,0.4-4.9,1.2-4.9,3.9c0,2.9,2.2,4,4.8,4c3.5,0,6.9-1.8,6.9-6.4V67.1z"/>
	<path class="st2" d="M142.6,79.5V58.3h2.6v3.9c1.8-2.8,4.4-4.3,7.4-4.3c5.3,0,7.7,3.6,7.7,8.1v13.5h-2.6V66.8
		c0-3.9-1.4-6.4-5.5-6.4c-3.8,0-7,3.1-7,7.5v11.6L142.6,79.5z"/>
	<polygon class="st2" points="183.7,79.5 172.2,67.9 182.2,58.1 178.7,58.1 166.9,70 166.9,50.2 164.3,50.2 164.3,79.5 166.9,79.5 
		166.9,73.2 170.4,69.7 180.2,79.5 	"/>
	<path class="st3" d="M70.9,78.1l9.4-0.6l-10,10L70.9,78.1z M78.4,72.9L74,68.6l-11.9,0.8l-0.8,11.9l4.4,4.4l0.8-11.9L78.4,72.9z
		 M69.7,64.2l-4.4-4.4l-11.9,0.8l-0.8,11.9l4.4,4.4L57.8,65L69.7,64.2z M61,55.4l-4.4-4.4l-11.9,0.8l-0.8,11.9l4.4,4.4l0.8-11.9
		L61,55.4z"/>
	<path d="M137.7,45v-2c-1.7,1.6-3.9,2.5-6.3,2.5c-5.1,0-7.4-3.7-7.4-7.8V22.8h7.5V36c0,1.5,0.6,2.9,2.8,2.9c1.7,0,3.3-1,3.3-3.3
		V22.8h7.5V45H137.7z M164.3,45V43c-1.7,1.7-4,2.6-6.3,2.5c-6.2,0-10.1-5-10.1-11.6c0-6.6,3.9-11.6,10.1-11.6c2.4,0,4.6,0.9,6.3,2.5
		v-9.2h7.5V45L164.3,45z M160,28.8c-2.8,0-4.2,2.5-4.2,5.3s1.3,5.1,4.2,5.1c2.8,0,4.3-2.3,4.3-5.1C164.3,31.2,162.8,28.8,160,28.8
		 M186.5,45.5c-7.4,0-12.2-4.5-12.2-11.5s4.8-11.6,12.2-11.6c7.4,0,12.2,4.6,12.2,11.6S193.9,45.5,186.5,45.5 M186.5,28.6
		c-2.8,0-4.2,2.2-4.2,5.4s1.4,5.4,4.2,5.4s4.2-2.1,4.2-5.4S189.3,28.6,186.5,28.6 M210.7,45.5c-5.3,0-9.3-1.8-11.4-6l6-2.1
		c1.2,2,3.1,2.9,5.9,2.9c1.6,0,2.8-0.6,2.8-1.7c0-1.3-1.5-1.7-4.1-2c-4.8-0.6-9.5-1.7-9.5-6.9c0-4.9,4.3-7.2,9.9-7.2
		c5,0,8.5,1.9,10.8,5.1l-5.4,2.5c-1.3-1.6-3.4-2.5-5.5-2.4c-1.3,0-2.4,0.4-2.4,1.6s1.3,1.5,3.7,1.8c6.3,0.7,9.8,2.5,9.8,7.1
		C221.4,42.4,217.6,45.5,210.7,45.5 M121.5,43l-2.9-3c1.8-2.6,2.7-5.7,2.6-8.8c0-8.6-5.6-14.4-14.3-14.4s-14.3,5.8-14.3,14.4
		s5.6,14.3,14.3,14.3c2.4,0,4.8-0.5,7-1.5l3.2,3.3L121.5,43z M106.9,38.7c-4.1,0-6.7-3.3-6.7-7.6s2.6-7.6,6.7-7.6
		c4.1,0,6.7,3.3,6.7,7.6c0,1.1-0.2,2.2-0.6,3.2l-3.2-3.3l-4.4,4.3l3.1,3.1C108,38.7,107.4,38.7,106.9,38.7"/>
	<line class="st4" x1="245.9" y1="0.8" x2="245.9" y2="96.3"/>
	<path d="M273.7,16.7h-3.6v-0.6h23.1v6.7h-0.5c-1.5-3.7-3.2-6.1-7.4-6.1h-5.9v12.6h2.2c3.8,0,5.2-2.3,5.9-5.8h0.5v12.2h-0.5
		c-0.7-3-1.9-5.8-5.5-5.8h-2.6v13.6h3.6V44h-12.9v-0.6h3.6L273.7,16.7z"/>
	<path d="M311.4,35.6c0,4.9-4.1,9-9.5,9s-9.5-4.1-9.5-9s4.1-8.9,9.5-8.9S311.4,30.8,311.4,35.6z M306.1,35.6c0-4.2-0.2-8.4-4.3-8.4
		c-4.1,0-4.3,4.2-4.3,8.4s0.2,8.4,4.3,8.4C305.9,44,306.1,39.8,306.1,35.6L306.1,35.6z"/>
	<path d="M313.1,27.2h7.2v3.3h0.1c0.9-2,2.5-3.6,5-3.6c2.2,0,3.7,1.2,3.7,3.3c0,1.6-0.7,2.5-2.4,2.5c-1.2,0-2.4-0.4-2.4-1.8
		c0-0.3,0.3-1.8,0.3-2c0-0.5-0.3-0.9-0.8-0.9c0,0,0,0-0.1,0c-1.1,0-3.3,2.1-3.3,5.4v10h3.1V44h-10.4v-0.6h2.5V27.8h-2.5V27.2z"/>
	<path d="M357.2,43.4c-0.7,1.1-2.3,1.2-3.5,1.2c-2.6,0-3.8-1.1-4.1-2.7h-0.1c-0.8,2.1-2.1,2.7-4.9,2.7c-2.5,0-5.6-0.9-5.6-3.9
		s2.6-3.9,5.2-4.7c4.2-1.3,5.1-1.6,5.1-3.6V30c0-1.4-0.5-2.8-2.4-2.8c-1.2,0-2.2,0.5-2.2,1.9c0,0.3,0.2,1.8,0.2,2.2
		c0,1.6-1.7,1.6-2.4,1.6c-1.1,0-2.3-0.2-2.3-2c0-2.8,3.3-4.2,6.7-4.2c4,0,7.2,1.1,7.2,5.5v9.7c0,1,0.2,1.9,1.3,1.9
		c0.6,0,1.1-0.3,1.5-0.7L357.2,43.4z M349.3,34.3L349.3,34.3c-0.2,0.3-0.4,0.6-1.1,0.9c-2,0.9-4.1,1.6-4.1,4.7
		c0,1.2,0.1,3.7,2.5,3.7c1.3,0,2.7-1.1,2.7-4.2V34.3z"/>
	<path d="M357.9,15.8h7.4v27.6h2.6V44h-10v-0.6h2.6V16.3h-2.6V15.8z"/>
	<path d="M369.1,15.8h7.4v27.6h2.6V44h-10v-0.6h2.6V16.3h-2.6V15.8z"/>
	<path d="M389.9,15.8h7.4v27.6h2.6V44h-10v-0.6h2.6V16.3h-2.6V15.8z"/>
	<path d="M401.1,27.2h7.4v16.2h2.6V44h-10v-0.6h2.6V27.8h-2.6V27.2z M406,16c1.5,0,2.8,1.2,2.8,2.8c0,1.5-1.2,2.8-2.8,2.8
		c-1.5,0-2.8-1.2-2.8-2.8C403.3,17.3,404.5,16,406,16L406,16z"/>
	<path d="M412.3,27.2h2.6c0-5.1,0-11.7,7.8-11.7c2.3,0,4.9,1.1,4.9,3.8c0,1.2-1,2.2-2.2,2.2c-1.4,0-2.1-0.6-2.1-2
		c0-0.4,0.3-1.8,0.3-2c0-0.9-0.8-1.4-1.7-1.4c-2.2,0-2.2,2.4-2.2,5.1v6.1h3.2v0.6h-3.2v15.7h3V44h-10.4v-0.6h2.6V27.8h-2.6V27.2z"/>
	<path d="M430,34.2v1.8c0,3.7,0.3,8.1,5,8.1c2.7,0,5.1-1.9,5.8-4.5l0.6,0.2c-0.5,1.9-2.4,4.9-6.9,4.9c-5.4,0-9.7-3.4-9.7-9
		c0-4.5,4-8.9,9.1-8.9c3.6,0,7.7,2.2,7.7,7.5L430,34.2z M436.3,33.6V31c0-1.1,0-3.8-2.5-3.8c-3.5,0-3.6,3.8-3.7,6.4L436.3,33.6z"/>
	<path d="M444.7,27.2c2.5-1.8,4.2-3.1,4.2-5c0-0.6-0.2-1.2-0.6-1.6c-0.5,0.3-1.1,0.4-1.7,0.4c-1.5,0-2.7-1.2-2.7-2.7
		c0,0,0-0.1,0-0.1c0-2,1.6-2.8,3-2.8c2,0,3.6,1.7,3.6,4.7c0,4.1-3.3,6.2-5.5,7.6L444.7,27.2z"/>
	<path d="M451,38.3h0.6c1.2,2.9,2.4,5.7,6,5.7c0.9,0,3.5,0,3.5-3c0-1-0.3-2-3.1-3l-3.2-1.2c-1.4-0.6-3.6-1.8-3.6-4.5
		c0-3.1,2.6-5.6,6.4-5.6c2,0,3.5,1,4.1,1s0.7-0.3,0.7-0.5h0.6v4.8h-0.5c-1.1-2.5-2-4.7-5.2-4.7c-1.7,0-3.4,0.9-3.4,2.7
		c0,0.7,0.2,1.9,2.9,2.8l3.3,1.1c2.8,1,4.3,2.6,4.3,5c0,3.4-3.2,5.6-6.7,5.6c-1.9,0-4.5-1.1-5.5-1.1c-0.4,0-0.6,0.2-0.7,0.6H451
		V38.3z"/>
	<path d="M288.1,78.2h2.6v0.6h-7.3v-2.9h-0.1c-0.8,2.1-2.3,3.4-4.6,3.4c-5.1,0-8.5-4.3-8.5-9c0-3.6,2.5-8.9,8.5-8.9
		c2.3,0,3.8,1.2,4.5,3.3h0.1V51.1h-2.7v-0.6h7.4L288.1,78.2z M279,62c-2.7,0-3.6,2.1-3.6,8.4c0,5.1,0.3,8.4,3.2,8.4
		c4.4,0,4.6-5.1,4.6-8.4C283.3,66.9,282.9,62,279,62z"/>
	<path d="M297.3,68.9v1.8c0,3.7,0.3,8.1,5,8.1c2.7,0,5.1-1.9,5.8-4.5l0.6,0.2c-0.5,1.9-2.4,4.9-6.9,4.9c-5.4,0-9.7-3.4-9.7-9
		c0-4.5,4-8.9,9.1-8.9c3.6,0,7.7,2.2,7.7,7.5H297.3z M303.6,68.4v-2.6c0-1.1,0-3.8-2.5-3.8c-3.5,0-3.6,3.8-3.7,6.4L303.6,68.4z"/>
	<path d="M310.8,73.1h0.6c1.2,2.9,2.4,5.7,6,5.7c0.9,0,3.5,0,3.5-3c0-1-0.3-2-3.1-3l-3.2-1.2c-1.4-0.6-3.6-1.8-3.6-4.5
		c0-3.1,2.6-5.6,6.4-5.6c2,0,3.5,1,4.1,1c0.3,0.1,0.7-0.2,0.7-0.5h0.6v4.8h-0.5c-1.1-2.5-2-4.7-5.2-4.7c-1.7,0-3.4,0.9-3.4,2.7
		c0,0.7,0.2,1.9,2.9,2.8l3.3,1.1c2.8,1,4.3,2.6,4.3,5c0,3.4-3.2,5.6-6.7,5.6c-1.9,0-4.5-1.1-5.5-1.1c-0.4,0-0.6,0.2-0.7,0.6h-0.6
		L310.8,73.1z"/>
	<path d="M328.5,57c1.5,0.7,3.3,0.7,4.8,0v5h4.6v0.6h-4.6v13.1c0,1.5,0.3,2.9,2.1,2.9c2,0,2.8-1.8,3.2-3.4l0.6,0.1
		c-0.7,3.6-3.2,4.1-5.2,4.1c-5.5,0-5.5-2.9-5.5-4.7V62.5h-2.6V62h2.6V57z"/>
	<path d="M339.2,62h7.4v16.2h2.6v0.6h-10v-0.6h2.6V62.5h-2.6V62z M344.2,50.8c1.5,0,2.8,1.2,2.8,2.8s-1.2,2.8-2.8,2.8
		s-2.8-1.2-2.8-2.8C341.5,52,342.7,50.8,344.2,50.8C344.2,50.8,344.2,50.8,344.2,50.8L344.2,50.8z"/>
	<path d="M350.6,78.2h2.6V62.5h-2.6V62h7.3v3.9h0.1c0.4-1,1.9-4.3,6.5-4.3c3.4,0,5.4,2.2,5.4,5.5v11.1h2.6v0.6h-9.8v-0.6h2.4V65.9
		c0-2.2-1-3.2-2.5-3.2c-2.5,0-4.7,2.4-4.7,7.2v8.4h2.5v0.6h-9.8V78.2z"/>
	<path d="M392.3,78.1c-0.7,1.1-2.3,1.2-3.5,1.2c-2.6,0-3.8-1.1-4.1-2.7h-0.1c-0.8,2.1-2.1,2.7-4.9,2.7c-2.5,0-5.6-0.9-5.6-3.9
		c0-3,2.6-3.9,5.2-4.7c4.2-1.3,5.1-1.6,5.1-3.6v-2.4c0-1.4-0.5-2.8-2.4-2.8c-1.2,0-2.2,0.5-2.2,1.9c0,0.3,0.2,1.8,0.2,2.2
		c0,1.6-1.7,1.6-2.4,1.6c-1.1,0-2.3-0.2-2.3-2c0-2.7,3.3-4.2,6.7-4.2c4,0,7.2,1.1,7.2,5.5v9.7c0,1,0.2,1.9,1.3,1.9
		c0.6,0,1.1-0.3,1.5-0.7L392.3,78.1z M384.4,69.1L384.4,69.1c-0.2,0.3-0.4,0.6-1.1,0.9c-2,0.9-4.1,1.6-4.1,4.7
		c0,1.2,0.1,3.7,2.5,3.7c1.3,0,2.7-1.1,2.7-4.2V69.1z"/>
	<path d="M395.5,57c1.5,0.7,3.3,0.7,4.8,0v5h4.6v0.6h-4.6v13.1c0,1.5,0.3,2.9,2.1,2.9c2,0,2.8-1.8,3.2-3.4l0.6,0.1
		c-0.7,3.6-3.2,4.1-5.2,4.1c-5.5,0-5.5-2.9-5.5-4.7V62.5h-2.6V62h2.6V57z"/>
	<path d="M406.3,62h7.4v16.2h2.6v0.6h-10v-0.6h2.6V62.5h-2.6L406.3,62z M411.3,50.8c1.5,0,2.8,1.2,2.8,2.8s-1.2,2.8-2.8,2.8
		s-2.8-1.2-2.8-2.8S409.7,50.8,411.3,50.8C411.3,50.8,411.3,50.8,411.3,50.8z"/>
	<path d="M436.4,70.3c0,4.8-4.1,9-9.5,9s-9.5-4.1-9.5-9s4.1-8.9,9.5-8.9S436.4,65.5,436.4,70.3z M431.1,70.3c0-4.2-0.2-8.4-4.3-8.4
		c-4.1,0-4.3,4.2-4.3,8.4s0.2,8.4,4.3,8.4S431.1,74.6,431.1,70.3z"/>
	<path d="M438.2,78.2h2.6V62.5h-2.6V62h7.3v3.9h0.1c0.4-1,1.9-4.3,6.5-4.3c3.4,0,5.4,2.2,5.4,5.5v11.1h2.6v0.6h-9.8v-0.6h2.4V65.9
		c0-2.2-1-3.2-2.5-3.2c-2.5,0-4.7,2.4-4.7,7.2v8.4h2.5v0.6h-9.8V78.2z"/>
	<path d="M461.7,73.1h0.6c1.2,2.9,2.4,5.7,6,5.7c0.9,0,3.5,0,3.5-3c0-1-0.3-2-3.1-3l-3.2-1.2c-1.4-0.6-3.6-1.8-3.6-4.5
		c0-3.1,2.6-5.6,6.4-5.6c2,0,3.5,1,4.1,1c0.3,0.1,0.7-0.2,0.7-0.5h0.6v4.8h-0.5c-1.1-2.5-2-4.7-5.2-4.7c-1.7,0-3.4,0.9-3.4,2.7
		c0,0.7,0.2,1.9,2.9,2.8l3.3,1.1c2.8,1,4.3,2.6,4.3,5c0,3.4-3.2,5.6-6.7,5.6c-1.9,0-4.5-1.1-5.5-1.1c-0.4,0-0.6,0.2-0.7,0.6h-0.6
		L461.7,73.1z"/>
</g>
</svg>
