<?xml version="1.0" encoding="UTF-8"?>
<svg width="143px" height="34px" viewBox="0 0 143 34" version="1.1" xmlns="http://www.w3.org/2000/svg" xmlns:xlink="http://www.w3.org/1999/xlink">
    <!-- Generator: Sketch 52.6 (67491) - http://www.bohemiancoding.com/sketch -->
    <title>Judobank Logo (pos-nav)</title>
    <desc>Created with Sketch.</desc>
    <defs>
        <polygon id="path-1" points="1.83640129e-05 0.21832973 7.77965714 0.21832973 7.77965714 26 1.83640129e-05 26"></polygon>
        <polygon id="path-3" points="0.175263158 0.025 17.8098158 0.025 17.8098158 24.8047664 0.175263158 24.8047664"></polygon>
        <polygon id="path-5" points="0.0073 0.104711111 3.9095 0.104711111 3.9095 1.81426667 0.0073 1.81426667"></polygon>
        <polygon id="path-7" points="0.155439474 0.025 17.7902289 0.025 17.7902289 24.8047664 0.155439474 24.8047664"></polygon>
    </defs>
    <g id="Judobank-Logo-(pos-nav)" stroke="none" stroke-width="1" fill="none" fill-rule="evenodd">
        <g>
            <path d="M24,9.15927117 L24,17.6592712 L24,17.6933277 C23.9654724,21.4525198 20.8542036,24.5 16.9826179,24.5 C13.1457964,24.5 10.0345276,21.4525198 10,17.6933277 L10,17.6592712 L10,9.15927117 C10,8.24484178 10.7603169,7.5 11.6937448,7.5 C12.6619369,7.5 13.4222538,8.24484178 13.4222538,9.15927117 L13.4222538,17.6254463 C13.4222538,19.5557797 15.0121793,21.1474011 16.9826179,21.1474011 C18.9875842,21.1474011 20.5777462,19.5557797 20.5777462,17.6254463 L20.5777462,9.15927117 C20.5777462,8.24484178 21.3382996,7.5 22.3062552,7.5 C23.2396831,7.5 24,8.24484178 24,9.15927117" id="Fill-1" fill="#74AA50"></path>
            <g id="Group-5" transform="translate(0.000000, 7.500000)">
                <mask id="mask-2" fill="white">
                    <use xlink:href="#path-1"></use>
                </mask>
                <g id="Clip-4"></g>
                <path d="M7.77965714,1.89591532 L7.77965714,17.6802577 L7.77965714,17.7142216 C7.77965714,20.0422757 6.91085714,22.2337712 5.3072,23.8771586 C4.43862857,24.7672486 3.36937143,25.4521495 2.2,25.8971946 C2.03291429,25.9658252 1.83245714,26.0000234 1.63222857,26.0000234 C0.963885714,26.0000234 0.329142857,25.5549784 0.0950857143,24.8700775 C-0.205714286,23.9799874 0.228571429,23.0212667 1.09737143,22.7132486 C1.79931429,22.4391946 2.43405714,22.0283477 2.96845714,21.4804739 C3.97097143,20.4531225 4.50537143,19.1182216 4.472,17.7142216 L4.472,17.6113928 L4.472,1.89591532 C4.472,0.971627027 5.20685714,0.21832973 6.10902857,0.21832973 C7.04457143,0.21832973 7.77965714,0.971627027 7.77965714,1.89591532" id="Fill-3" fill="#74AA50" mask="url(#mask-2)"></path>
            </g>
            <path d="M5.42405789,3.07594211 C5.15131108,2.8031953 5,2.40922768 5,2.01526007 C5,1.62150738 5.15131108,1.22732483 5.42405789,0.95479295 C5.7271099,0.681831208 6.09077232,0.5 6.48473993,0.5 C6.87870755,0.5 7.27267517,0.681831208 7.54520705,0.95479295 C7.84825906,1.22732483 8,1.62150738 8,2.01526007 C8,2.40922768 7.84825906,2.8031953 7.54520705,3.07594211 C7.27267517,3.34847399 6.87870755,3.5 6.48473993,3.5 C6.09077232,3.5 5.7271099,3.34847399 5.42405789,3.07594211" id="Fill-6" fill="#74AA50"></path>
            <g id="Group-10" transform="translate(26.000000, 0.500000)">
                <mask id="mask-4" fill="white">
                    <use xlink:href="#path-3"></use>
                </mask>
                <g id="Clip-9"></g>
                <path d="M14.229,16.0769626 C14.229,17.4337383 13.6998947,18.7895794 12.6414474,19.7295327 C11.6895789,20.6685514 10.3144737,21.1898131 8.93913158,21.1898131 C7.56402632,21.1898131 6.29478947,20.6685514 5.23681579,19.7295327 C4.28471053,18.7895794 3.75631579,17.4337383 3.75631579,16.0769626 C3.75631579,14.7201869 4.28471053,13.3634112 5.23681579,12.4243925 C6.29478947,11.4844393 7.56402632,10.8585047 8.93913158,10.8585047 C10.3144737,10.8585047 11.6895789,11.4844393 12.6414474,12.4243925 C13.6998947,13.3634112 14.229,14.7201869 14.229,16.0769626 M17.8098158,16.1064019 L17.8098158,16.0715888 L17.8098158,1.72299065 C17.8098158,0.787242991 17.037,0.0248598131 16.0536316,0.0248598131 C15.1050789,0.0248598131 14.3322632,0.787242991 14.3322632,1.72299065 L14.3322632,9.1753271 C12.8567368,8.0664486 10.9951579,7.40803738 8.99265789,7.40803738 C4.10992105,7.40803738 0.175263158,11.2891121 0.175263158,16.1064019 C0.175263158,20.8886449 4.10992105,24.8047664 8.99265789,24.8047664 C13.8405789,24.8047664 17.8098158,20.8886449 17.8098158,16.1064019" id="Fill-8" fill="#74AA50" mask="url(#mask-4)"></path>
            </g>
            <path d="M59.6346128,16.052398 C59.6346128,17.4010462 59.1154208,18.7487812 58.07795,19.682812 C57.1445916,20.6163862 55.7963819,21.1344297 54.4474872,21.1344297 C53.0992774,21.1344297 51.8544952,20.6163862 50.8170244,19.682812 C49.883666,18.7487812 49.3653872,17.4010462 49.3653872,16.052398 C49.3653872,14.703978 49.883666,13.3553298 50.8170244,12.4219839 C51.8544952,11.4877248 53.0992774,10.865342 54.4474872,10.865342 C55.7963819,10.865342 57.1445916,11.4877248 58.07795,12.4219839 C59.1154208,13.3553298 59.6346128,14.703978 59.6346128,16.052398 M63,16.0001142 C63,11.3025625 59.1973864,7.5 54.5,7.5 C49.8023852,7.5 46,11.3025625 46,16.0001142 C46,20.6415007 49.8023852,24.5 54.5,24.5 C59.1973864,24.5 63,20.6415007 63,16.0001142" id="Fill-11" fill="#74AA50"></path>
            <path d="M102,16.1191813 L102,22.7965296 C102,23.7844557 101.284446,24.5 100.296507,24.5 C99.6152007,24.5 98.6615093,23.7844557 98.6615093,22.7965296 C97.1963818,24.0228182 95.5611561,24.5 93.6190687,24.5 C88.8156788,24.5 85,20.922735 85,16.1191813 C85,11.3156276 88.8156788,7.5 93.6190687,7.5 C98.4226869,7.5 102,11.3156276 102,16.1191813 M98.6615093,16.1191813 C98.6615093,13.2574606 96.4808279,10.8386742 93.6190687,10.8386742 C90.7573096,10.8386742 88.3382624,13.2574606 88.3382624,16.1191813 C88.3382624,18.980902 90.7573096,21.1613258 93.6190687,21.1613258 C96.4808279,21.1613258 98.6615093,18.980902 98.6615093,16.1191813" id="Fill-13" fill="#1F2A44"></path>
            <path d="M122,16 L122,22.8065755 C122,23.7550028 121.254993,24.5 120.306553,24.5 C119.392361,24.5 118.647354,23.7550028 118.647354,22.8065755 L118.647354,16 C118.647354,13.155403 116.344521,10.8526015 113.500114,10.8526015 C110.655251,10.8526015 108.352418,13.155403 108.352418,16 L108.352418,22.8065755 C108.352418,23.7550028 107.607639,24.5 106.659199,24.5 C105.745007,24.5 105,23.7550028 105,22.8065755 L105,16 C105,11.2927959 108.82641,7.5 113.500114,7.5 C118.173133,7.5 122,11.2927959 122,16" id="Fill-15" fill="#1F2A44"></path>
            <path d="M137.381083,24.0962017 C137.071611,24.3655533 136.693029,24.5 136.314448,24.5 C135.798583,24.5 135.316922,24.2982154 135.007451,23.8944171 L128.471996,16.2268311 L127.405361,16.9331918 L127.405361,22.8181562 C127.405361,23.7597414 126.614463,24.5 125.685579,24.5 C124.756695,24.5 124,23.7597414 124,22.8181562 L124,16.0584864 L124,2.14771675 C124,1.23980054 124.756695,0.5 125.685579,0.5 C126.614463,0.5 127.405361,1.23980054 127.405361,2.14771675 L127.405361,12.9982774 L135.213843,7.9873312 C135.936334,7.41564632 137.002501,7.48298421 137.621913,8.18911581 C138.206419,8.89524741 138.10334,9.97173737 137.381083,10.5431932 L131.361259,14.4107697 L137.621913,21.7757933 C138.206419,22.4819249 138.10334,23.5242878 137.381083,24.0962017" id="Fill-17" fill="#1F2A44"></path>
            <g id="Group-21" transform="translate(139.000000, 22.500000)">
                <mask id="mask-6" fill="white">
                    <use xlink:href="#path-5"></use>
                </mask>
                <g id="Clip-20"></g>
                <path d="M0.6008,0.404711111 L0.0073,0.404711111 L0.0073,0.104711111 L1.5623,0.104711111 L1.5623,0.404711111 L0.9693,0.404711111 L0.9693,1.81426667 L0.6008,1.81426667 L0.6008,0.404711111 Z M1.9738,0.104711111 L2.36755,0.104711111 L2.94805,0.915155556 L3.52855,0.104711111 L3.90955,0.104711111 L3.90955,1.81426667 L3.5538,1.81426667 L3.5538,0.598933333 L2.96055,1.41471111 L2.92305,1.41471111 L2.33005,0.598933333 L2.33005,1.81426667 L1.9738,1.81426667 L1.9738,0.104711111 Z" id="Fill-19" fill="#1F2A44" mask="url(#mask-6)"></path>
            </g>
            <g id="Group-24" transform="translate(65.000000, 0.500000)">
                <mask id="mask-8" fill="white">
                    <use xlink:href="#path-7"></use>
                </mask>
                <g id="Clip-23"></g>
                <path d="M3.73649211,16.0769626 C3.73649211,14.7201869 4.26559737,13.3634112 5.32404474,12.4243925 C6.27591316,11.4844393 7.65078158,10.8585047 9.02636053,10.8585047 C10.4014658,10.8585047 11.6707026,11.4844393 12.7286763,12.4243925 C13.6805447,13.3634112 14.2091763,14.7201869 14.2091763,16.0769626 C14.2091763,17.4337383 13.6805447,18.7895794 12.7286763,19.7295327 C11.6707026,20.6685514 10.4014658,21.1898131 9.02636053,21.1898131 C7.65078158,21.1898131 6.27591316,20.6685514 5.32404474,19.7295327 C4.26559737,18.7895794 3.73649211,17.4337383 3.73649211,16.0769626 Z M0.155439474,16.1064019 C0.155439474,20.8886449 4.12515,24.8047664 8.97259737,24.8047664 C13.8555711,24.8047664 17.7902289,20.8886449 17.7902289,16.1064019 C17.7902289,11.2891121 13.8555711,7.40803738 8.97259737,7.40803738 C6.97009737,7.40803738 5.10875526,8.0664486 3.63299211,9.1753271 L3.63299211,1.72299065 C3.63299211,0.787242991 2.86041316,0.0248598131 1.91186053,0.0248598131 C0.928492105,0.0248598131 0.155439474,0.787242991 0.155439474,1.72299065 L0.155439474,16.0715888 L0.155439474,16.1064019 Z" id="Fill-22" fill="#1F2A44" mask="url(#mask-8)"></path>
            </g>
        </g>
    </g>
</svg>