<svg width="361" height="87" viewBox="0 0 361 87" fill="none" xmlns="http://www.w3.org/2000/svg">
<g clip-path="url(#clip0_1305_2023)">
<path d="M169.2 55.53C169.2 73.29 157.36 86.58 140.32 86.58C130.17 86.58 122.68 81.99 118.45 74.5L118.21 83.44C118.21 84.53 117.73 85.13 116.64 85.13H109.63C108.54 85.13 107.94 84.53 107.94 83.44V1.69C107.95 0.6 108.55 0 109.64 0H117.25C118.34 0 118.94 0.6 118.94 1.69V35.83C123.29 28.82 130.54 24.47 140.32 24.47C157.36 24.47 169.2 37.88 169.2 55.52V55.53ZM158.57 55.52C158.57 43.08 150.11 34.5 138.39 34.5C126.67 34.5 118.7 43.08 118.7 55.64C118.7 68.2 126.79 76.54 138.39 76.54C149.99 76.54 158.57 68.08 158.57 55.52Z" fill="#190079"/>
<path d="M236.74 27.62V83.44C236.74 84.53 236.14 85.13 235.05 85.13H228.04C226.95 85.13 226.47 84.53 226.47 83.44L226.23 74.5C222 81.99 214.51 86.58 204.36 86.58C187.32 86.58 175.48 73.29 175.48 55.53C175.48 37.77 187.32 24.48 204.36 24.48C214.51 24.48 222 29.19 226.23 36.68L226.47 27.62C226.47 26.53 226.95 25.93 228.04 25.93H235.05C236.14 25.93 236.74 26.53 236.74 27.62ZM225.99 55.65C225.99 43.09 217.89 34.51 206.3 34.51C194.71 34.51 186.12 43.09 186.12 55.53C186.12 67.97 194.58 76.55 206.3 76.55C218.02 76.55 225.99 68.21 225.99 55.65Z" fill="#190079"/>
<path d="M299.26 48.64V83.43C299.26 84.52 298.66 85.12 297.57 85.12H289.96C288.87 85.12 288.39 84.52 288.39 83.43V50.67C288.39 40.76 282.65 34.51 273.58 34.51C264.51 34.51 257.19 40.77 257.19 50.67V83.44C257.19 84.53 256.71 85.13 255.62 85.13H248.01C246.92 85.13 246.32 84.53 246.32 83.44V27.62C246.32 26.53 246.92 25.93 248.01 25.93H255.14C256.35 25.93 256.83 26.41 256.83 27.74L257.19 35.23C260.57 29.19 267.29 24.48 276.84 24.48C289.65 24.48 299.26 33.06 299.26 48.64Z" fill="#190079"/>
<path d="M358.64 85.13H350.54C349.57 85.13 348.97 84.89 348.36 84.04L328.55 58.43L319.13 68.82V83.44C319.13 84.53 318.53 85.13 317.44 85.13H309.83C308.74 85.13 308.14 84.53 308.14 83.44V1.69C308.14 0.6 308.74 0 309.83 0H317.44C318.53 0 319.13 0.6 319.13 1.69V55.28L344.62 26.89C345.22 26.17 345.83 25.92 346.67 25.92H355.85C357.18 25.92 357.42 26.89 356.58 27.85L335.32 51.17L359.72 83.07C360.57 84.16 360.08 85.12 358.63 85.12" fill="#190079"/>
<path d="M98.4 27.2099V59.43C98.4 75.04 86.38 86.8099 70.42 86.8099C54.46 86.8099 42.35 75.04 42.35 59.43V27.2099C42.35 26.4199 42.79 25.95 43.57 25.95H52.15C52.94 25.95 53.39 26.4199 53.39 27.2099V58.04C53.62 68.42 61.1 76.5599 70.42 76.5599C79.74 76.5599 87.35 68.0299 87.35 57.5499V27.2099C87.35 26.4199 87.79 25.95 88.57 25.95H97.15C97.94 25.95 98.39 26.4199 98.39 27.2099" fill="#190079"/>
<path d="M12.84 50.21C5.76 50.21 0 44.45 0 37.37C0 30.29 5.76 24.52 12.84 24.52C19.92 24.52 25.68 30.28 25.68 37.37C25.68 44.46 19.92 50.21 12.84 50.21Z" fill="#00F7AF"/>
<path d="M12.84 86.8099C5.76 86.8099 0 81.0499 0 73.9699C0 66.8899 5.76 61.1299 12.84 61.1299C19.92 61.1299 25.68 66.8899 25.68 73.9699C25.68 81.0499 19.92 86.8099 12.84 86.8099Z" fill="#00F7AF"/>
</g>
<defs>
<clipPath id="clip0_1305_2023">
<rect width="360.15" height="86.81" fill="white"/>
</clipPath>
</defs>
</svg>
