<svg id="Layer_1" data-name="Layer 1" xmlns="http://www.w3.org/2000/svg" xmlns:xlink="http://www.w3.org/1999/xlink" viewBox="0 0 200 50"><defs><style>.cls-1{fill:#212e79;}.cls-2{fill:url(#linear-gradient);}.cls-3{fill:url(#linear-gradient-2);}.cls-4{fill:url(#linear-gradient-3);}.cls-5{fill:url(#linear-gradient-4);}.cls-6{fill:url(#linear-gradient-5);}.cls-7{fill:url(#linear-gradient-6);}</style><linearGradient id="linear-gradient" x1="11.39" y1="-1.62" x2="21.51" y2="14.3" gradientTransform="matrix(1, 0, 0, -1, 0, 52)" gradientUnits="userSpaceOnUse"><stop offset="0" stop-color="#00a0d3"/><stop offset="0.36" stop-color="#00a0d3"/><stop offset="0.53" stop-color="#009dd1"/><stop offset="0.66" stop-color="#0094c9"/><stop offset="0.77" stop-color="#0084bc"/><stop offset="0.87" stop-color="#006daa"/><stop offset="0.97" stop-color="#005193"/><stop offset="1" stop-color="#004489"/></linearGradient><linearGradient id="linear-gradient-2" x1="6.88" y1="33.4" x2="6.83" y2="57.7" gradientTransform="matrix(1, 0, 0, -1, 0, 52)" gradientUnits="userSpaceOnUse"><stop offset="0" stop-color="#00448a"/><stop offset="0.08" stop-color="#00448a"/><stop offset="0.09" stop-color="#004a8f"/><stop offset="0.17" stop-color="#0069a8"/><stop offset="0.25" stop-color="#0082bb"/><stop offset="0.34" stop-color="#0093c9"/><stop offset="0.43" stop-color="#009ed1"/><stop offset="0.54" stop-color="#00a1d4"/><stop offset="1" stop-color="#00a1d4"/></linearGradient><linearGradient id="linear-gradient-3" x1="-0.47" y1="35.53" x2="27.24" y2="35.53" gradientTransform="matrix(1, 0, 0, -1, 0, 52)" gradientUnits="userSpaceOnUse"><stop offset="0" stop-color="#3c5f9d"/><stop offset="0.01" stop-color="#4b6ba4"/><stop offset="0.05" stop-color="#758eb9"/><stop offset="0.09" stop-color="#9aaccc"/><stop offset="0.14" stop-color="#b9c6dc"/><stop offset="0.19" stop-color="#d3dbe9"/><stop offset="0.24" stop-color="#e7ebf3"/><stop offset="0.31" stop-color="#f4f6fa"/><stop offset="0.38" stop-color="#fdfdfe"/><stop offset="0.52" stop-color="#fff"/><stop offset="0.59" stop-color="#e9edf4"/><stop offset="0.74" stop-color="#b1bfd8"/><stop offset="0.94" stop-color="#5775ab"/><stop offset="1" stop-color="#3c5f9d"/></linearGradient><linearGradient id="linear-gradient-4" x1="-0.47" y1="18.46" x2="27.24" y2="18.46" gradientTransform="matrix(1, 0, 0, -1, 0, 52)" gradientUnits="userSpaceOnUse"><stop offset="0" stop-color="#3c5f9d"/><stop offset="0.01" stop-color="#4b6ba4"/><stop offset="0.05" stop-color="#758eb9"/><stop offset="0.09" stop-color="#9aaccc"/><stop offset="0.14" stop-color="#b9c6dc"/><stop offset="0.19" stop-color="#d3dbe9"/><stop offset="0.24" stop-color="#e7ebf3"/><stop offset="0.31" stop-color="#f4f6fa"/><stop offset="0.38" stop-color="#fdfdfe"/><stop offset="0.52" stop-color="#fff"/><stop offset="0.55" stop-color="#fff"/><stop offset="0.62" stop-color="#e9edf4"/><stop offset="0.77" stop-color="#b1bfd8"/><stop offset="0.84" stop-color="#98aacb"/><stop offset="0.94" stop-color="#5775ab"/><stop offset="1" stop-color="#3c5f9d"/></linearGradient><linearGradient id="linear-gradient-5" x1="13.57" y1="22.99" x2="14.27" y2="4.35" gradientTransform="matrix(1, 0, 0, -1, 0, 52)" gradientUnits="userSpaceOnUse"><stop offset="0" stop-color="#fff"/><stop offset="0.52" stop-color="#fff"/><stop offset="0.59" stop-color="#e9edf4"/><stop offset="0.74" stop-color="#b1bfd8"/><stop offset="0.94" stop-color="#5775ab"/><stop offset="1" stop-color="#3c5f9d"/></linearGradient><linearGradient id="linear-gradient-6" x1="13" y1="-1.94" x2="1.35" y2="27.98" gradientTransform="matrix(1, 0, 0, -1, 0, 52)" gradientUnits="userSpaceOnUse"><stop offset="0" stop-color="#00448a"/><stop offset="0.09" stop-color="#00448a"/><stop offset="0.12" stop-color="#005497"/><stop offset="0.2" stop-color="#0070ad"/><stop offset="0.29" stop-color="#0086be"/><stop offset="0.38" stop-color="#0095ca"/><stop offset="0.49" stop-color="#009ed2"/><stop offset="0.65" stop-color="#00a1d4"/><stop offset="1" stop-color="#00a1d4"/></linearGradient></defs><polygon class="cls-1" points="0 9.05 27.8 25 27.8 40.96 0 25 0 9.05"/><path class="cls-2" d="M27.8,42.08,14.5,34.45V49.36Z"/><path d="M126.4,28.24c0-1.41,1.3-2,2.8-2a6.22,6.22,0,0,1,3.3.8l1.1-2a10.3,10.3,0,0,0-4.5-1.1c-3.6,0-5.5,2.1-5.5,4.71a4.3,4.3,0,0,0,1.2,3.1c2.1,2.3,6.3,2.8,6.3,5.51,0,1.6-1.6,2.2-3.1,2.2a7.21,7.21,0,0,1-4-1.2l-1,1.8a9.16,9.16,0,0,0,5.1,1.7c3.4,0,6-1.9,6-4.9C134.1,31.64,126.4,31.74,126.4,28.24Z"/><path d="M141.4,38.85l-.2-1.2L137.4,29h-3.2l5.9,12.81c-.9,2.81-2.1,3.71-3.5,3.71a3.2,3.2,0,0,1-1.9-.5l-.4,1.4a7.4,7.4,0,0,0,2.9.8c1.8,0,4-1,5.5-5l4.8-13.31h-2.8Z"/><path d="M156.9,38.85l.2.2a3.23,3.23,0,0,1-1.7.3,4.41,4.41,0,0,1,0-8.81h.3v-1.8a7.57,7.57,0,0,0-1.5-.1c-3.9,0-6,3.4-6,6.6,0,4,3.7,6.51,7.2,6.51a9.9,9.9,0,0,0,4.2-.9V23.43l.4-.8h-3.1Z"/><path d="M169.4,28.74a7,7,0,0,0-4.5,1.7l-.3-1.4h-2.3V41.55H165V32.64a6.52,6.52,0,0,1,3.4-1.5c1.7,0,2,1.5,2,2.9v7.51h2.8V33.14C173.2,29.94,171.3,28.74,169.4,28.74Z"/><path d="M180.9,28.64c-3.4,0-5.5,2.9-5.5,6.5,0,3.41,1.9,6.71,6.1,6.71a8.15,8.15,0,0,0,4.6-1.5l-.7-1.2a7.65,7.65,0,0,1-3,.6,4.24,4.24,0,0,1-3.7-2.1,6.76,6.76,0,0,1-.6-2.81c0-2,.7-4.1,2.7-4.1,1.6,0,2.4,1.5,2.6,2.9V34l-.3-.2h-3.8v.8a5.7,5.7,0,0,0,.1,1.3h6.9v-.8C186.3,31.24,184.2,28.64,180.9,28.64Z"/><path d="M197.2,29l-3.3,9.81-.2-1.2L189.9,29h-3.2l5.9,12.81c-.9,2.81-2.1,3.71-3.5,3.71a3.2,3.2,0,0,1-1.9-.5l-.5,1.4a7.4,7.4,0,0,0,2.9.8c1.8,0,4-1,5.5-5L200,29Z"/><path d="M100.1,28.64a5.6,5.6,0,0,0-4.2,1.8,6.78,6.78,0,0,0-1.8,4.9A6.48,6.48,0,0,0,96,40.25a6.32,6.32,0,0,0,8.6-.2,7,7,0,0,0,1.8-4.81,6.9,6.9,0,0,0-1.7-4.8A7,7,0,0,0,100.1,28.64Zm0,11c-2.1,0-3.3-1.8-3.3-4.41s1.2-4.3,3.3-4.3,3.3,1.7,3.3,4.3S102.2,39.65,100.1,39.65Z"/><path d="M115.3,22.93a5.85,5.85,0,0,0-2.2-.5c-1.7,0-4.1.7-4.1,4.2v1.91h-1.8v2.1H109V40.75l-.5.8h3.2V30.94l-.2-.3h2.2l1.2-2.1h-3.3v-2c0-1.1.1-1.8.8-2.2s1.4-.3,2.6.2l.7-1.3Z"/><path d="M44,32.14a3.86,3.86,0,0,0,2.2-3.7c0-2.11-1.5-4.41-4.9-4.41H36V40.75l-.5.8h5.6c4.5,0,6.2-2.7,6.2-5.2A4.1,4.1,0,0,0,44,32.14Zm-2.9,7.11H38.9V26.73l-.2-.3h2c1.9,0,2.8,1,2.8,2.51a2.48,2.48,0,0,1-2.5,2.5h-.9v2.4h1.1c2,0,3.2,1,3.2,2.51C44.5,38.05,43.3,39.25,41.1,39.25Z"/><path d="M54.8,28.74a8.27,8.27,0,0,0-4.8,1.5l1,1.7a6.68,6.68,0,0,1,3.3-1,2.23,2.23,0,0,1,2.5,1.9v5.81a3.47,3.47,0,0,1-2.5,1,1.91,1.91,0,0,1-2.2-1.5v-.4c0-1.2.9-1.8,2.7-1.9h.8V33.74H54.5c-3.3,0-5.2,1.6-5.2,4.21A3.89,3.89,0,0,0,53,42h.3a5.94,5.94,0,0,0,3.8-1.4l.7,1.2h2V33.34C59.6,29.94,57.7,28.74,54.8,28.74Z"/><path d="M69.2,28.74a7,7,0,0,0-4.5,1.7L64.4,29H62.1V41.55h2.7V32.64a6.52,6.52,0,0,1,3.4-1.5c1.7,0,2,1.5,2,2.9v7.51H73V33.14C73,29.94,71.1,28.74,69.2,28.74Z"/><path d="M86.1,29H82.8l-4.2,4.3V22.63H75.3l.5.8V40.75l-.5.8h3.3v-6l4.8,6h3.3l-5.9-7.21Z"/><path class="cls-3" d="M13.7,15.82V0L0,7.91Z"/><path class="cls-4" d="M27.8,25V24L0,7.91V9.05Z"/><path class="cls-5" d="M0,25v1.14L27.8,42.08V41Z"/><path class="cls-6" d="M14.5,34.35l-.9-.51V49.36l.45.25.45-.25Z"/><path class="cls-7" d="M13.6,49.36V34L0,26.14V42.07Z"/></svg>