<svg xmlns="http://www.w3.org/2000/svg" width="113" height="30" viewBox="0 0 113 30">
    <defs>
        <linearGradient id="a" x1="63.375%" x2="14.655%" y1="99.513%" y2="-.356%">
            <stop offset="0%" stop-color="#BE0000"/>
            <stop offset="38.98%" stop-color="#DE0000"/>
            <stop offset="76.8%" stop-color="#F60000"/>
            <stop offset="100%" stop-color="#F00"/>
        </linearGradient>
        <linearGradient id="b" x1="44.013%" x2="53.719%" y1="104.077%" y2="2.631%">
            <stop offset="65%" stop-color="#FFF" stop-opacity="0"/>
            <stop offset="72.85%" stop-color="#E0E0E0" stop-opacity=".262"/>
            <stop offset="81.48%" stop-color="#C5C5C5" stop-opacity=".549"/>
            <stop offset="89.14%" stop-color="#B5B5B5" stop-opacity=".805"/>
            <stop offset="95%" stop-color="#AFAFAF"/>
        </linearGradient>
        <linearGradient id="c" x1=".302%" x2="100.601%" y1="50.621%" y2="50.621%">
            <stop offset="0%" stop-color="#FFF" stop-opacity="0"/>
            <stop offset="8.391%" stop-color="#F1F1F1" stop-opacity=".093"/>
            <stop offset="29.21%" stop-color="#D4D4D4" stop-opacity=".325"/>
            <stop offset="49.93%" stop-color="#C0C0C0" stop-opacity=".555"/>
            <stop offset="70.32%" stop-color="#B3B3B3" stop-opacity=".781"/>
            <stop offset="90%" stop-color="#AFAFAF"/>
        </linearGradient>
        <linearGradient id="d" x1="-.117%" x2="99.914%" y1="50.059%" y2="50.059%">
            <stop offset="25%" stop-color="#FFF" stop-opacity="0"/>
            <stop offset="46.15%" stop-color="#EDEDED" stop-opacity=".282"/>
            <stop offset="88.6%" stop-color="#BDBDBD" stop-opacity=".848"/>
            <stop offset="100%" stop-color="#AFAFAF"/>
        </linearGradient>
    </defs>
    <g fill="none" fill-rule="evenodd">
        <g fill="#323232" fill-rule="nonzero">
            <path d="M67.197 8.203c0 1.408-.58 2.403-1.491 2.983l1.491 2.32h-1.326l-1.242-1.989c-.166 0-.332.083-.498.083-1.822 0-3.065-1.326-3.065-3.314v-4.06c0-2.072 1.243-3.315 3.065-3.315 1.823 0 3.066 1.326 3.066 3.315v3.977zm-5.137 0c0 1.243.746 2.237 1.989 2.237 1.242 0 1.988-.911 1.988-2.237V4.06c0-1.243-.746-2.237-1.988-2.237-1.243 0-1.989.911-1.989 2.237v4.143zM69.766 11.351L72.749.83h1.077L76.89 11.35h-1.16L75.07 8.95h-3.563l-.663 2.402h-1.077zm1.988-3.397h3.066L73.246 2.57l-1.492 5.385zM85.923 11.351h-.912l-4.06-8.12v8.12h-.994V.911h.994l3.978 7.955V.91h.994zM88.823.911h6.048V1.99h-2.485v9.362h-1.077V1.99h-2.486zM96.197 11.351L99.18.83h1.077l3.066 10.522h-1.16L101.5 8.95h-3.563l-.663 2.402h-1.077zm2.072-3.397h3.065L99.76 2.57l-1.491 5.385zM110.614 3.894v-.248c0-1.077-.663-1.906-1.823-1.906s-1.822.663-1.822 1.574c0 .746.497 1.243 1.077 1.492l1.574.663c1.077.497 2.32 1.077 2.32 2.9 0 1.822-1.243 3.065-3.066 3.065-1.823 0-3.065-1.16-3.065-2.983v-.248h1.077v.331c0 1.077.745 1.823 1.988 1.823 1.243 0 1.989-.828 1.989-1.906 0-1.16-.746-1.574-1.574-1.988l-1.326-.58c-1.077-.497-1.906-1.243-1.906-2.652 0-1.574 1.16-2.734 2.9-2.734s2.9 1.16 2.9 2.983v.166h-1.243v.248zM62.226 20.797v7.954h-.995v-10.44h.995l2.485 5.469 2.486-5.469h.994v10.523h-1.077V20.88l-2.071 4.474h-.663zM77.803 25.603c0 2.071-1.243 3.314-3.066 3.314-1.823 0-3.066-1.326-3.066-3.314v-4.06c0-2.072 1.243-3.314 3.066-3.314 1.823 0 3.066 1.325 3.066 3.314v4.06zm-5.054 0c0 1.243.745 2.237 1.988 2.237 1.243 0 1.989-.911 1.989-2.237V21.46c0-1.243-.746-2.237-1.989-2.237s-1.988.911-1.988 2.237v4.143zM87.414 28.751h-.911l-4.06-8.12v8.12h-.994v-10.44h.994l3.977 7.955V18.31h.994zM92.303 23.946v3.728h4.391v1.077h-5.468v-10.44h5.385v1.078h-4.308v3.48h3.894v1.077zM100.257 18.311l2.154 5.138 2.155-5.138h1.077l-2.734 6.298v4.225h-1.078v-4.143l-2.734-6.297h1.16z"/>
        </g>
        <path stroke="#323232" stroke-width=".5" d="M50.543.746v28.171"/>
        <g fill-rule="nonzero">
            <path fill="url(#a)" d="M11.269 28.006h28.585L16.986 4.97C13.92 1.906 9.777.083 5.469.083H.663l.331.911L2.57 5.137l8.7 22.869z" transform="translate(0 .829)"/>
            <path fill="#FFF" d="M2.569 5.966C5.717 11.35 13.92 11.849 14.83 20.217c0 .332.332.58.663.663 4.723.746 9.363 2.651 13.34 5.883H29c.083-.083.083-.166 0-.166-2.817-2.9-6.131-5.22-9.943-6.794l-1.16-.497a1.637 1.637 0 0 1-.994-1.492c.083-2.485 5.966-1.988 6.546-3.148l.082-.166c-1.242-.994-2.651-1.823-4.225-2.237 0 .083-.083.331.248.911.332.58-.414 1.492-1.491.497l-.083-.082C10.026 6.297 4.06 10.109.911 1.906l1.658 4.06z"/>
            <path fill="url(#b)" d="M21.709 13.506s-1.326.083-2.072-1.243c.249.414 0 .911-.58.911v1.989c.829-.249 1.823-.414 2.652-.58v-1.077z" transform="translate(0 .829)"/>
            <path fill="url(#c)" d="M16.406 20.217c4.391.829 8.617 2.734 12.345 5.717-8.285-7.043-12.014-5.8-12.345-5.717z" transform="translate(0 .829)"/>
            <path fill="url(#d)" d="M4.226 5.551C2.9 4.64 1.823 3.314.994.994L2.57 5.137C5.717 10.523 13.92 11.02 14.83 19.39 13.92 8.783 9.28 10.357 4.226 5.55z" transform="translate(0 .829)"/>
        </g>
    </g>
</svg>
