<svg data-name="Layer 1" xmlns="http://www.w3.org/2000/svg" width="500.5" height="136.3" viewBox="0 0 500.5 136.3"><title>qccu-logo</title><path d="M130.32 31.32L114.24 3.48a6.59 6.59 0 0 0-11.43 0L86.74 31.32a79.76 79.76 0 0 1 14.63 18.39 79.29 79.29 0 0 1 7.16 16.46 79.43 79.43 0 0 1 21.79-34.85" fill="#f68b1f"/><path d="M83.9 76.51l21.1 36.6V89.47a72.54 72.54 0 0 0-36.24-62.82l-14.45-8.34a8 8 0 0 0-12.07 7v27.6H43a47.39 47.39 0 0 1 40.9 23.6m86.89-58.2a8 8 0 0 0-8 0l-14.45 8.34A72.54 72.54 0 0 0 112 89.47v23.64l21.14-36.6a47.39 47.39 0 0 1 40.93-23.64h.73V25.28a8 8 0 0 0-4-7" fill="#faa61a"/><path d="M210.43 59.86h-36.34A40.4 40.4 0 0 0 139.21 80l-24.55 42.52a137 137 0 0 0 53.65-13.69 137 137 0 0 0 47.33-38.32 6.6 6.6 0 0 0-5.21-10.65M43 59.86H6.63a6.47 6.47 0 0 0-5.94 3.72 6.43 6.43 0 0 0 .73 6.93 136.86 136.86 0 0 0 47.33 38.32 136.93 136.93 0 0 0 53.64 13.69L77.85 80A40.41 40.41 0 0 0 43 59.86" fill="#ffc40c"/><path d="M300.28 21.79l-.06 23.89h-6.21v-3.3a8.53 8.53 0 0 1-7.39 3.81c-5.26 0-8.5-3.63-8.49-9.45v-15h6.21v13.64c0 3.13 1.16 4.87 4.38 4.88 3.43 0 5.3-2 5.31-5.94V21.77zm28.32 13.62h-18.32a5.92 5.92 0 0 0 6.19 5.75 5.54 5.54 0 0 0 5.31-3h6.43c-1.8 5.64-6.58 8.1-11.71 8.09-7.47 0-12.58-5.33-12.56-12.45a12.08 12.08 0 0 1 12.49-12.48c7.91 0 12.8 6.24 12.17 14.1m-18-4.6h11.42a5.54 5.54 0 0 0-5.63-4.4 5.78 5.78 0 0 0-5.79 4.37m46.16 4.69h-18.32a5.91 5.91 0 0 0 6.19 5.74 5.52 5.52 0 0 0 5.31-3h6.43c-1.8 5.64-6.58 8.1-11.7 8.09-7.48 0-12.59-5.33-12.57-12.45a12.08 12.08 0 0 1 12.49-12.48c7.91 0 12.8 6.24 12.17 14.1m-18-4.6h11.42a5.57 5.57 0 0 0-5.63-4.4 5.8 5.8 0 0 0-5.79 4.38m43.86.04v15h-6.21V32.26c0-3.13-1.16-4.87-4.46-4.88-3.52 0-5.39 2-5.4 5.94v12.55h-6.25l.06-23.89h6.21v3.25a8.61 8.61 0 0 1 7.43-3.78c5.38 0 8.63 3.58 8.62 9.45m3.15 7.1h6.3c.47 1.91 1.9 3.22 5.76 3.23 2.74 0 4-.64 4.05-2 0-1.6-1.87-1.73-5.47-2.61-6.77-1.63-9.55-3.15-9.53-7.28 0-5 4.18-7.94 10.48-7.92 6.64 0 9.89 3.24 10.71 7.67h-6.3c-.47-1.52-1.77-2.43-4.64-2.44-2.48 0-4 .69-4 2 0 1.13 1.08 1.35 4.55 2.14 6.82 1.58 10.64 2.89 10.63 7.67 0 5.34-4.76 7.93-10.67 7.92-6.38 0-11-3.16-11.87-8.41m25.904 7.976l.07-33.44 6.21.013-.07 33.44zM446.05 22.15L446 46h-6.21v-3.2a8.87 8.87 0 0 1-7.48 3.72c-6.25 0-10.89-5.15-10.87-12.49s4.77-12.45 10.89-12.44a9 9 0 0 1 7.55 3.89v-3.35zm-6.24 11.93c0-3.91-2.63-6.57-6.1-6.57s-6 2.63-6.06 6.54 2.59 6.56 6 6.57 6.13-2.59 6.14-6.54m32.65-2.96v15h-6.21V32.49c0-3.13-1.16-4.87-4.46-4.88-3.51 0-5.39 2-5.39 5.94V46.1h-6.21l.06-23.88h6.21v3.26a8.59 8.59 0 0 1 7.44-3.76c5.38 0 8.63 3.58 8.62 9.45m28-18.44l-.09 33.44h-6.2v-3.23a9 9 0 0 1-7.53 3.71c-6.21 0-10.89-5.15-10.87-12.48s4.77-12.46 10.89-12.44a9 9 0 0 1 7.55 3.88v-12.9zm-6.26 21.48c0-3.91-2.64-6.57-6.11-6.57s-6 2.63-6.05 6.54 2.59 6.56 6 6.57 6.13-2.59 6.14-6.54m-224.4 6.39a17 17 0 0 0-12.38-28.74 16.62 16.62 0 0 0-16.94 17.21 17 17 0 0 0 16.94 16.58 17.59 17.59 0 0 0 7.1-1.43l.22-.09 1 1.25a5.94 5.94 0 0 0 8.24 1.18l-4.36-5.82zm-12.39-1.13A10.76 10.76 0 1 1 268 28.74a10.63 10.63 0 0 1-10.55 10.73m-16.96 27.7a16.19 16.19 0 0 1 16.64-16.56A15.62 15.62 0 0 1 272.6 62.2h-7a9 9 0 0 0-8.52-5.34c-5.91 0-10 4.33-10 10.34s4 10.37 9.92 10.38a9 9 0 0 0 8.54-5.29h7a15.62 15.62 0 0 1-15.53 11.51 16.17 16.17 0 0 1-16.56-16.64M299.36 72a12.25 12.25 0 1 1-12.24-12.3A12 12 0 0 1 299.36 72m-18.34 0c0 3.89 2.63 6.47 6.06 6.48s6.07-2.56 6.08-6.45-2.63-6.46-6.05-6.47-6.11 2.53-6.11 6.37m43.88-11.65l-.06 23.52h-6.11v-3.27a8.39 8.39 0 0 1-7.28 3.75c-5.17 0-8.37-3.57-8.36-9.3V60.23h6.11v13.42c0 3.08 1.14 4.79 4.31 4.8 3.37 0 5.22-2 5.23-5.85V60.25zm25.6 8.83v14.75h-6.11V70.43c0-3.07-1.14-4.79-4.39-4.8-3.46 0-5.3 2-5.31 5.85v12.35h-6.12l.06-23.52h6.11v3.2a8.46 8.46 0 0 1 7.33-3.7c5.3 0 8.49 3.53 8.48 9.3m21.72 13.44a14.37 14.37 0 0 1-7 1.86c-4.7 0-8.8-2.84-8.78-9.6v-8.68h-4.19v-5.78h4.19v-5.09l6.14-1.26v6.41h8.72v5.77h-8.73v8.34c0 2.77 1.32 4.23 3.75 4.24a16 16 0 0 0 4.92-1.14zM390.17 60v6.3a14.19 14.19 0 0 0-1.5-.09c-3.89 0-7.23 1.69-7.25 7.25v10.48h-6.12l.06-23.52h6.12v4.1a7.64 7.64 0 0 1 7.36-4.59 10.22 10.22 0 0 1 1.37.09m26.59.49l-15.39 34.16-6.5-.01 6.19-13.8-9.01-20.41 6.49.01 5.79 13.78 5.89-13.75 6.54.02z" fill="#b5121b"/><path d="M261 115c0 4.42-3.05 7.12-8.34 7.12h-10.9v-25.2h10.71c4.89 0 7.65 2.34 7.65 6.48a5.23 5.23 0 0 1-3.34 5.24c2.84.87 4.17 3.28 4.17 6.33m-9-14.16h-6.15v6.47h6.2c2.95 0 4-1.19 4-3.24s-1.16-3.23-4.06-3.23m4.88 13.84c0-2.31-1.08-3.63-4.38-3.63h-6.65v7.18h6.68c3.31 0 4.35-1.4 4.35-3.55m27.29-12.33v19.77h-4.06v-3.31a7.89 7.89 0 0 1-6.9 3.74c-5.29 0-9.13-4.28-9.13-10.32s3.92-10.31 9.09-10.31a8 8 0 0 1 6.94 3.81v-3.38zm-4 9.88a6.07 6.07 0 0 0-6.08-6.43c-3.45 0-5.9 2.66-5.9 6.43s2.49 6.44 5.9 6.44 6.08-2.63 6.08-6.44m25.62-2.59v12.48h-4.07v-11.65c0-3-1.33-4.67-4.31-4.67-3.49 0-5.35 2.26-5.35 6.07v10.25h-4.07v-19.77H292v3.27a7.29 7.29 0 0 1 6.61-3.71c4.45 0 7.12 2.92 7.12 7.73m17.4 12.48l-9.31-9.13v9.13h-4.06V94.41h4.06v16.46l8.56-8.55h5.21l-9.67 9.38 10.46 10.39h-5.25z" fill="#58595b"/></svg>