<?xml version="1.0" encoding="utf-8"?>
<!-- Generator: Adobe Illustrator 19.0.0, SVG Export Plug-In . SVG Version: 6.00 Build 0)  -->
<svg version="1.1" id="HSBC_x5F_MASTERBRAND_x5F_LOGO_x5F_WW_x5F_CMYK"
	 xmlns="http://www.w3.org/2000/svg" xmlns:xlink="http://www.w3.org/1999/xlink" x="0px" y="0px" viewBox="0 0 177 38"
	 style="enable-background:new 0 0 177 38;" xml:space="preserve">
<style type="text/css">
	.st0{fill:#FFFFFF;}
	.st1{fill:#DB0011;}
	.st2{display:none;}
	.st3{display:inline;}
	.st4{display:none;fill:#FEF382;}
</style>
<g>
	<path d="M94.3,20.1h-6.7v6.6h-3.4V11.2h3.4v6.3h6.7v-6.3h3.4v15.5h-3.4V20.1z"/>
	<path d="M105.8,27c-3.3,0-6.1-1.3-6.2-5h3.4c0,1.7,1,2.6,2.9,2.6c1.4,0,2.9-0.7,2.9-2.2c0-1.2-1.1-1.6-2.8-2.1l-1.1-0.3
		c-2.4-0.7-4.9-1.7-4.9-4.4c0-3.5,3.2-4.6,6.2-4.6c3,0,5.6,1.1,5.6,4.5h-3.4c-0.1-1.4-0.9-2.2-2.5-2.2c-1.2,0-2.5,0.7-2.5,2
		c0,1.1,1,1.5,3.2,2.2l1.3,0.4c2.7,0.8,4.3,1.8,4.3,4.3C112.2,25.7,108.8,27,105.8,27z"/>
	<path d="M114.1,11.2h5.4c1.7,0,2.4,0,3,0.2c1.9,0.4,3.3,1.7,3.3,3.7c0,2-1.3,3-3.1,3.5c2.1,0.4,3.6,1.5,3.6,3.8
		c0,3.5-3.5,4.3-6.2,4.3h-6.1V11.2z M119.5,17.7c1.5,0,3-0.3,3-2.1c0-1.6-1.4-2-2.8-2h-2.4v4.1H119.5z M119.9,24.4
		c1.6,0,3.1-0.4,3.1-2.3c0-1.8-1.3-2.3-2.9-2.3h-2.7v4.5H119.9z"/>
	<path d="M135.2,27c-5,0-7.3-3.2-7.3-7.9c0-4.7,2.5-8.2,7.4-8.2c3.1,0,6.1,1.4,6.2,4.9h-3.5c-0.2-1.5-1.2-2.4-2.7-2.4
		c-3,0-3.9,3.3-3.9,5.7c0,2.5,0.9,5.3,3.8,5.3c1.5,0,2.6-0.8,2.9-2.4h3.5C141.2,25.7,138.4,27,135.2,27z"/>
	<g>
		<rect x="22.5" y="0.5" class="st0" width="37" height="37"/>
		<polygon class="st1" points="59.6,37.5 78.1,19 59.6,0.5 59.6,0.5 		"/>
		<polygon class="st1" points="22.5,37.5 4,19 22.5,0.5 22.5,0.5 		"/>
		<polygon class="st1" points="59.6,0.5 41,19 22.5,0.5 22.5,0.5 		"/>
		<polygon class="st1" points="22.5,37.5 41,19 59.6,37.5 59.6,37.5 		"/>
	</g>
</g>
<g class="st2">
	<path class="st3" d="M88.6,13.8l0.1,0.1l1.2-1.7l-0.1-0.1C89,11,87,9.8,85.6,9.2l-0.1,0l-1,1.5l0.2,0.1
		C86.1,11.3,87.5,12.3,88.6,13.8z"/>
	<path class="st3" d="M88.1,18.3l0.1,0.1l1.1-1.7l-0.1-0.1c-0.9-1.1-2.9-2.4-4.4-2.9l-0.1,0l-1,1.6l0.2,0.1
		C85.2,15.8,86.9,16.9,88.1,18.3z"/>
	<polygon class="st3" points="93.4,11.6 102.7,11.6 102.7,9.7 91.4,9.7 91.4,27.5 103.6,27.5 103.6,25.6 93.4,25.6 	"/>
	<path class="st3" d="M88.5,19.6c-1.1,3-2.2,5.2-4.5,7.5l-0.1,0.1l1.5,1.4l0.1-0.1c2.5-2.3,3.8-5.6,4.6-8l0.1-0.2l-1.7-0.8
		L88.5,19.6z"/>
	<polygon class="st3" points="119.7,21.6 119.7,18.6 127,18.6 127,16.7 119.7,16.7 119.7,13.9 127.3,13.9 127.3,12 119.7,12 
		119.7,8.8 117.7,8.8 117.7,12 110,12 110,13.9 117.7,13.9 117.7,16.7 110.3,16.7 110.3,18.6 117.7,18.6 117.7,21.6 109.1,21.6 
		109.1,23.5 117.7,23.5 117.7,29.2 119.7,29.2 119.7,23.5 128.4,23.5 128.4,21.6 	"/>
	<g class="st3">
		<rect x="22.5" y="0.5" class="st0" width="37" height="37"/>
		<polygon class="st1" points="59.6,0.5 59.6,37.5 78.1,19 		"/>
		<polygon class="st1" points="22.5,0.5 41,19 59.6,0.5 		"/>
		<polygon class="st1" points="22.5,0.5 4,19 22.5,37.5 		"/>
		<polygon class="st1" points="22.5,37.5 59.6,37.5 41,19 		"/>
	</g>
</g>
<g class="st2">
	<g class="st3">
	</g>
	<g class="st3">
	</g>
	<g class="st3">
	</g>
	<g class="st3">
	</g>
</g>
<g class="st2">
	<g class="st3">
		<g>
			<polygon class="st1" points="78.2,19 59.6,0.5 59.6,37.6 			"/>
			<polygon class="st1" points="41.1,19 59.6,0.5 22.5,0.5 			"/>
			<polygon class="st1" points="4,19 22.5,37.6 22.5,0.5 			"/>
			<polygon class="st1" points="41.1,19 22.5,37.6 59.6,37.6 			"/>
		</g>
	</g>
	<path class="st3" d="M84.4,15.2l1-1.1c1,0.7,2.4,1.9,3.1,3.3l-1.1,1.1C86.8,17.4,85.7,16,84.4,15.2z M84.4,28.4
		c2.2-2.5,3.2-5.7,3.7-8.2l1.3,0.6c-0.5,3-2,6.1-3.9,8.5L84.4,28.4z M85.9,10.1L87,9.2c1.2,0.7,2.1,1.6,2.8,2.8L88.7,13
		C88,11.5,86.9,10.7,85.9,10.1z M90.2,9.8h15v1.4h-6.6c0.8,0.6,1.3,1.1,1.8,2l-0.6,0.4h5V15h-4.6v2.4h3.8v1.4h-3.8v2.3h3.8v1.4h-3.8
		v2.6h4.7v1.4H93.8l0-8.7c-0.3,0.5-0.8,1-1.2,1.5c-0.2-0.1-0.6-0.4-0.9-0.8c0,0.8,0,6.5,0,9.5h14l0,1.4c-5.2,0-10.3,0-15.5,0
		L90.2,9.8z M91.7,18.2c0.9-1,2.7-4.4,3.1-7h-3.1V18.2z M97.9,11.2h-3c0.4,0.2,0.7,0.3,1.2,0.5c-0.1,0.7-0.3,1.3-0.5,1.9H99
		c-0.3-0.7-1-1.3-1.7-1.9L97.9,11.2z M95.2,17.4h3.5V15h-3.5V17.4z M95.2,21.1h3.5v-2.3h-3.5V21.1z M95.2,22.5v2.6h3.5v-2.6H95.2z"
		/>
	<path class="st3" d="M117,28c-0.2-0.5-0.7-0.9-1.1-1.3l-0.6-0.5l-2,0l0-4l13.8,0l0,3.9h-2.3c-0.3,0.7-0.7,1.3-1.2,1.9l6.8,0v1.4
		H110V28L117,28z M129.6,21.2h-18.9v-1.3l18.9,0V21.2z M127.4,17.6l0-7h1.5l0,8.3h-17.5v-8.2l1.5,0v6.9l6.6,0V9.2h1.5v8.4H127.4z
		 M118.7,16.3h-2l0,1.1h-1.4l0-1.1h-1.9l0-1h1.9l0-1.3l-1.9,0v-1h1.9l0-1.2l-1.9,0l0-1h1.9V9.5h1.4v1.3l2,0l0,0.9h-2V13l2,0v1h-2
		v1.3h2L118.7,16.3z M114.8,25l10.8,0v-1.6l-10.8,0L114.8,25z M121.7,28c0.7-0.5,1.2-1.2,1.5-1.9h-6c0.6,0.6,1.1,1.2,1.4,1.9
		L121.7,28z M124.9,17.4h-1.3v-1.2l-2,0v-1h2v-1.3h-2V13h2l0-1.3h-2l0-0.9l1.9,0l0-1.3h1.3v1.3l2,0v0.9l-2,0l0,1.3l2,0l0,0.9h-2v1.2
		h2.1v1h-2L124.9,17.4z"/>
</g>
<rect y="19.4" class="st4" width="4" height="4"/>
</svg>
