<svg id="_5c60e4f1bad523783716223e_SocietyOneLogo" data-name="5c60e4f1bad523783716223e_SocietyOneLogo" xmlns="http://www.w3.org/2000/svg" width="125.264" height="25" viewBox="0 0 125.264 25">
  <path id="Path_95" data-name="Path 95" d="M137.483,13.81c-3.5,0-6.243,2.048-6.243,7.422s2.087,7.589,6.817,7.589a8.966,8.966,0,0,0,4.751-1.29.518.518,0,0,0,.223-.626l-.824-2.215a.511.511,0,0,0-.643-.31,9.686,9.686,0,0,1-2.932.539c-1.461,0-1.958-.348-2.087-1.937h6.323a.518.518,0,0,0,.518-.518v-.494C143.385,15.963,141.66,13.81,137.483,13.81Zm-1.259,6.17c.052-2.348.5-3,1.415-3,.967,0,1.259,1.256,1.259,3Z" transform="translate(-85.596 -9.007)" fill="#1dbc6e" fill-rule="evenodd"/>
  <path id="Path_96" data-name="Path 96" d="M174.685,18.285a3.926,3.926,0,0,0,.577-.038.515.515,0,0,1,.584.421l.389,2.355a.515.515,0,0,1-.313.567,8.347,8.347,0,0,1-3.092.556c-2.4,0-4.02-.9-4.02-4.2V10.919h-.783a.518.518,0,0,1-.518-.518V8a.518.518,0,0,1,.518-.518h.776V4.756a.515.515,0,0,1,.431-.511l4.083-.675a.518.518,0,0,1,.623.508v3.4h1.148a.428.428,0,0,1,.428.428v2.584a.428.428,0,0,1-.428.428h-1.148V17.3C173.941,18.07,174.135,18.285,174.685,18.285Z" transform="translate(-109.251 -2.322)" fill="#1dbc6e" fill-rule="evenodd"/>
  <path id="Path_97" data-name="Path 97" d="M84.27,25.047a4.949,4.949,0,0,0,1.9-.4.508.508,0,0,1,.7.268l.786,1.969a.518.518,0,0,1-.15.588,6.3,6.3,0,0,1-4.017,1.349c-4.309,0-6.347-2.414-6.347-7.627,0-5.1,2.327-7.394,6.4-7.394a7.651,7.651,0,0,1,3.673.807.518.518,0,0,1,.3.47v2.288a.518.518,0,0,1-.515.518H84.659a.292.292,0,0,1-.264-.191l-.348-.536a.755.755,0,0,0-.5-.191c-.835,0-1.2.63-1.2,4.121C82.364,24.118,82.757,25.047,84.27,25.047Z" transform="translate(-50.311 -9)" fill="#1dbc6e" fill-rule="evenodd"/>
  <path id="Path_98" data-name="Path 98" d="M44.65,13.81c-4.125,0-6.26,2.292-6.26,7.505s2.135,7.516,6.26,7.516,6.26-2.292,6.26-7.505S48.779,13.81,44.65,13.81Zm0,11.846c-.835,0-1.231-.7-1.231-4.34s.4-4.34,1.231-4.34,1.235.7,1.235,4.34-.4,4.34-1.235,4.34Z" transform="translate(-25.038 -9.007)" fill="#1dbc6e" fill-rule="evenodd"/>
  <path id="Path_99" data-name="Path 99" d="M12.4,13.692c0,4.038-2.01,6.26-6.813,6.26A11.672,11.672,0,0,1,.4,18.888a.511.511,0,0,1-.271-.459V15.264a.518.518,0,0,1,.518-.5H3.2a.518.518,0,0,1,.463.289L4.2,16.137a2.824,2.824,0,0,0,1.391.348c1.148,0,1.739-.348,1.739-1.69,0-1.391-.577-1.857-2.275-2.32C.967,11.344,0,9.3,0,6.215,0,1.738,2.782.239,6.5.239a12.089,12.089,0,0,1,4.647.894.508.508,0,0,1,.289.47V4.441a.518.518,0,0,1-.515.518H8.312a.518.518,0,0,1-.466-.282L7.5,3.957a2.807,2.807,0,0,0-1.2-.219A1.216,1.216,0,0,0,4.939,5.129c0,.956.55,1.447,2.219,1.913C10.942,8.1,12.4,9.682,12.4,13.692Z" transform="translate(0 -0.156)" fill="#1dbc6e" fill-rule="evenodd"/>
  <path id="Path_100" data-name="Path 100" d="M202.435,29.1c-1.137,3.958-2.3,5.137-6.486,5.565a.532.532,0,0,1-.567-.348l-.89-2.737a.414.414,0,0,1,.348-.532c1.934-.233,2.828-.522,3.419-1.064a.407.407,0,0,0-.278-.7l-.643-.143a.407.407,0,0,1-.393-.3l-2.782-10.236-.633-.209a.407.407,0,0,1-.278-.386V15.237a.407.407,0,0,1,.407-.407h5.648a.348.348,0,0,1,.348.348v2.876a.348.348,0,0,1-.23.313l-.463.219s1.089,4.966,1.262,5.8a.139.139,0,0,0,.271,0l1.482-5.8-.466-.219a.348.348,0,0,1-.226-.323V15.178a.348.348,0,0,1,.348-.348h4.344a.407.407,0,0,1,.4.407v2.782a.407.407,0,0,1-.278.386l-.636.209Z" transform="translate(-126.039 -9.672)" fill="#1dbc6e" fill-rule="evenodd"/>
  <path id="Path_101" data-name="Path 101" d="M116.392,26.476l-.7-.157-.056.066V16.473A.643.643,0,0,0,115,15.83h-4.72a.518.518,0,0,0-.518.518v2.581a.515.515,0,0,0,.348.487l.417.146V29.14a.643.643,0,0,0,.643.661h3.986v-.024h1.123a.518.518,0,0,0,.522-.536V26.98a.518.518,0,0,0-.407-.5Z" transform="translate(-71.586 -10.324)" fill="#1dbc6e" fill-rule="evenodd"/>
  <path id="Path_102" data-name="Path 102" d="M282.43,14.449V17.03a.518.518,0,0,0,.348.49l.56.261v7.074l-.5.111a.522.522,0,0,0-.4.5v2.264a.518.518,0,0,0,.518.515h4.991a.515.515,0,0,0,.515-.515V18a2.344,2.344,0,0,1,1.151-.327c.522,0,.863.3.863,1.009v9.039a.515.515,0,0,0,.508.515h5.217a.515.515,0,0,0,.515-.515V25.454a.518.518,0,0,0-.4-.5l-.7-.153V17.754c0-3-1.412-4.174-3.683-4.174a5.619,5.619,0,0,0-3.968,1.857l-.268-1.106a.518.518,0,0,0-.5-.393h-4.236a.518.518,0,0,0-.518.511Z" transform="translate(-184.203 -8.857)" fill="#264b65"/>
  <path id="Path_103" data-name="Path 103" d="M250.415,9.881c0-6.716-2.4-9.881-7.6-9.881s-7.6,3.165-7.6,9.881,2.4,9.849,7.6,9.849S250.415,16.593,250.415,9.881Zm-7.6-6.4c1.565,0,1.906,1.586,1.906,6.389s-.348,6.358-1.906,6.358-1.906-1.555-1.906-6.358S241.251,3.478,242.819,3.478Z" transform="translate(-153.412 0)" fill="#264b65"/>
  <path id="Path_104" data-name="Path 104" d="M336.8,27.257a.525.525,0,0,0,.223-.63l-.824-2.215a.511.511,0,0,0-.643-.31,9.582,9.582,0,0,1-2.932.539c-1.461,0-1.958-.348-2.087-1.937h6.323a.518.518,0,0,0,.518-.518v-.494c0-6.006-1.739-8.163-5.912-8.163-3.5,0-6.243,2.048-6.243,7.425s2.087,7.585,6.817,7.585A8.99,8.99,0,0,0,336.8,27.257Zm-6.584-7.544c.052-2.348.5-3,1.416-3,.967,0,1.259,1.256,1.259,3Z" transform="translate(-212.111 -8.824)" fill="#264b65"/>
</svg>
