<svg width="220" height="60" viewBox="0 0 220 60" fill="none" xmlns="http://www.w3.org/2000/svg">
<g clip-path="url(#clip0_536_2284)">
<path d="M112.46 23.1499C111.748 21.4666 109.871 20.366 107.734 20.366C106.504 20.366 105.209 20.6897 103.979 21.3371C103.137 21.7903 102.555 22.5025 101.389 23.4089C101.389 22.1788 101.195 21.3371 100.677 20.366L97.5693 22.3083C97.8283 23.2794 97.9578 24.1858 97.9578 25.9987V40.6955H101.648V26.1282C103.008 24.7038 105.209 23.4737 106.633 23.4737C107.54 23.4737 108.252 23.7326 108.705 24.2506C109.158 24.898 109.353 25.4807 109.353 27.2935V40.7602H113.043V25.675C112.978 24.7685 112.784 23.8621 112.46 23.1499Z" fill="#003A5D"/>
<path d="M167.493 20.366C165.356 20.366 163.608 21.5314 161.989 23.7974V23.4089C161.989 22.4378 161.666 21.1429 161.342 20.366H161.277L158.105 22.373C158.364 23.3442 158.493 24.5096 158.493 26.1929V40.6955H162.184V28.0057C162.184 25.8692 164.126 23.9916 166.327 23.9916C166.716 23.9916 166.975 24.0564 167.363 24.1858L168.658 20.5602C168.399 20.4307 168.011 20.366 167.493 20.366Z" fill="#003A5D"/>
<path d="M145.868 23.1499C147.163 23.1499 148.134 23.7326 148.782 24.5096C149.559 25.4807 150.012 27.0993 150.012 28.9769H141.66C141.66 25.3512 143.084 23.1499 145.868 23.1499ZM153.897 31.6314V30.9839C153.832 26.4519 153.249 24.2506 151.436 22.5025C150.012 21.0781 148.199 20.366 145.933 20.366C143.473 20.366 141.466 21.2076 139.847 23.0852C138.099 25.0923 137.452 27.2935 137.452 30.725C137.452 37.1993 140.883 41.1487 146.451 41.1487C148.847 41.1487 151.048 40.4365 152.925 39.0122L151.566 36.8109C150.206 37.8468 148.782 38.3647 147.098 38.3647C145.156 38.3647 143.538 37.5878 142.502 36.0339C141.919 35.0628 141.66 33.7679 141.66 32.0846V31.6314H153.897Z" fill="#003A5D"/>
<path d="M72.8374 38.1705C72.449 37.782 72.3195 37.3288 72.3195 35.257V17.5172C72.3195 15.057 72.3195 13.1794 71.9958 11.8845H71.931L68.3701 14.0858C68.4996 15.1864 68.5644 16.4166 68.5644 18.2941V36.1634C68.5644 38.1057 68.7586 38.7532 69.3413 39.5948C70.0535 40.6307 70.9599 41.0839 72.3842 41.0839L74.0676 38.4294C73.5496 38.5589 73.0964 38.4294 72.8374 38.1705Z" fill="#003A5D"/>
<path d="M121.654 27.0993C121.654 24.5743 122.949 23.2147 125.344 23.2147C127.869 23.2147 129.035 24.4448 129.035 26.9698C129.035 29.4301 127.805 30.725 125.344 30.725C122.949 30.725 121.654 29.4948 121.654 27.0993ZM127.222 36.3577H124.114C123.143 36.3577 122.69 35.9692 122.69 35.3865C122.69 34.5448 124.632 33.6384 125.862 33.25C131.107 33.25 133.114 30.0128 133.114 27.1641C133.114 25.9339 132.725 24.8333 131.625 23.5384C132.596 23.7974 132.79 23.8621 133.373 23.8621C134.668 23.8621 135.574 23.5384 136.739 22.6967L134.797 20.366C133.696 21.1429 132.725 21.5314 131.495 21.5314C130.589 21.5314 129.553 21.1429 128.452 20.8192C127.222 20.4955 126.38 20.366 125.28 20.366C120.683 20.366 117.575 23.0852 117.575 27.0346C117.575 29.7538 119.194 31.8256 122.301 32.732C120.035 33.5737 118.352 34.3506 118.352 36.1634C118.352 37.5878 119.388 38.6237 121.136 38.8179C121.848 38.8827 123.467 39.0122 124.891 39.0122C128.841 39.0122 130.394 40.1128 130.394 41.9904C130.394 44.0622 128.776 45.357 125.474 45.357C125.15 45.357 124.891 45.357 124.568 45.2923L122.56 47.8173C123.532 48.0115 124.632 48.0763 125.862 48.0763C130.783 48.0763 134.344 45.9397 134.344 41.6666C134.473 38.7532 132.337 36.3577 127.222 36.3577Z" fill="#003A5D"/>
<path d="M63.0611 38.1705C62.6726 37.782 62.5431 37.3288 62.5431 35.257V17.5172C62.5431 15.057 62.5431 13.1794 62.2194 11.8845L62.0252 11.9493L58.5938 14.0858C58.7232 15.1864 58.788 16.4166 58.788 18.3589V36.2282C58.788 38.1705 58.9822 38.8179 59.5649 39.6596C60.2771 40.6955 61.1835 41.0839 62.4784 41.1487L64.1617 38.4942C63.7085 38.5589 63.32 38.4294 63.0611 38.1705Z" fill="#003A5D"/>
<path d="M33.4083 23.3442C32.8256 21.5961 30.7538 20.366 28.3583 20.366C26.8692 20.366 25.5095 20.7545 23.9557 21.7256C23.1788 22.2436 22.7256 22.6968 21.8191 23.4737C21.8839 22.4378 21.9486 21.5314 21.9486 20.8192V16.4166C21.9486 14.4743 21.8191 13.05 21.4954 11.8198L21.3012 11.8846L17.9993 13.9564C18.1288 14.798 18.1935 15.7044 18.1935 16.7403V40.6955H21.9486V26.5814C23.5025 24.8333 25.5743 23.5384 27.3224 23.5384C28.2935 23.5384 29.1999 23.8622 29.5236 24.3154C29.9121 24.7686 30.2358 25.675 30.2358 27.0993V40.825H33.7967V26.5814C33.7967 24.7686 33.732 24.2506 33.4083 23.3442Z" fill="#003A5D"/>
<path d="M8.67634 38.4294C7.51095 38.4294 6.5398 37.9762 5.76287 37.264C4.72698 36.1634 4.14428 34.3506 4.14428 31.5666C4.14428 28.8473 4.40326 26.905 5.11544 25.5454C5.82762 24.1858 7.12249 23.4089 8.67634 23.4089C9.97122 23.4089 10.8776 23.7973 12.1725 24.898L13.8558 22.2435C12.4315 21.0134 10.7481 20.4307 8.67634 20.4307C6.73403 20.4307 4.92121 21.1428 3.4321 22.4377C1.48979 24.1211 0.0654297 26.7108 0.0654297 31.1134C0.0654297 34.0916 0.648123 36.3576 2.00774 38.2352C3.4321 40.1775 5.56864 41.2134 8.48211 41.2134C10.9424 41.2134 12.561 40.566 14.4385 38.8826L12.8847 36.4224C11.6546 37.7172 10.1654 38.4294 8.67634 38.4294Z" fill="#003A5D"/>
<path d="M49.4003 36.0987C48.4938 37.6525 46.8753 38.6884 45.1919 38.6884C43.1201 38.6884 42.0195 37.4583 42.0195 35.257C42.0195 33.9621 42.2785 33.25 43.0554 32.4083C43.8323 31.5019 45.5156 30.9839 48.2996 30.9839C48.6233 30.9839 48.9471 31.0487 49.5298 31.0487L49.4003 36.0987ZM53.0907 34.3506C53.0907 31.5019 53.2201 28.3942 53.2201 26.9698C53.2201 25.0275 53.1554 24.3801 52.8317 23.5384C52.0548 21.4666 49.9182 20.366 47.0047 20.366C43.4438 20.366 40.9836 21.5961 39.106 22.6967L40.7246 25.2865C42.3432 24.1858 44.5445 23.3442 46.4868 23.3442C49.2708 23.3442 49.6592 24.898 49.6592 27.2288V28.5884C49.1413 28.5237 48.7528 28.5237 48.2349 28.5237C41.7605 28.5237 38.0054 30.9839 38.0054 35.516C38.0054 39.2711 40.4656 41.2782 44.4797 41.2782C47.9759 41.2782 49.6592 39.3359 50.1772 38.6884C50.6304 40.0481 51.6016 41.084 52.8317 41.5372L54.4503 38.9474C53.1554 38.041 53.0907 36.9404 53.0907 34.3506Z" fill="#003A5D"/>
<path d="M85.3327 23.1499C86.6276 23.1499 87.5987 23.7326 88.1814 24.5096C88.9583 25.4807 89.4115 27.0993 89.4115 28.9769H81.0596C81.1244 25.3512 82.484 23.1499 85.3327 23.1499ZM93.2962 31.6314V30.9839C93.2314 26.4519 92.584 24.2506 90.8359 22.5025C89.4116 21.0781 87.5987 20.366 85.3974 20.366C82.9372 20.366 80.9301 21.2076 79.3115 23.0852C77.5635 25.0923 76.916 27.2935 76.916 30.725C76.916 37.1993 80.3474 41.1487 85.9154 41.1487C88.3109 41.1487 90.4474 40.4365 92.325 39.0769L90.9654 36.8756C89.6705 37.8468 88.2462 38.3647 86.5628 38.3647C84.6205 38.3647 83.0019 37.5878 81.966 36.0339C81.3833 35.0628 81.1244 33.7679 81.1244 32.0846V31.6314H93.2962Z" fill="#003A5D"/>
<path d="M189.57 50.3423L191.577 45.5513L198.052 51.9609C197.987 51.9609 197.857 51.9609 197.793 51.9609C194.556 52.0256 191.836 51.3135 189.57 50.3423Z" fill="#007AAE"/>
<path d="M182.448 23.6032L178.37 20.1071C179.406 18.0353 180.83 16.093 182.448 14.4744V23.6032Z" fill="#007AAE"/>
<path d="M204.461 45.5513H213.59C211.583 47.5583 209.123 49.1769 206.468 50.3423L204.461 45.5513Z" fill="#378AB9"/>
<path d="M189.57 9.68334C192.16 8.58269 195.009 8 197.987 8L191.513 14.4096L189.57 9.68334Z" fill="#378AB9"/>
<path d="M193.455 41.0193L197.987 42.8969L191.577 45.5513L193.455 41.0193Z" fill="#378AB9"/>
<path d="M197.987 17.1289L204.461 14.4744L202.584 19.0064L197.987 17.1289Z" fill="#378AB9"/>
<path d="M197.987 42.8967L204.461 45.5512L197.987 52.0256V42.8967Z" fill="#003A5D"/>
<path d="M177.657 21.5962L177.722 21.6609L182.384 23.6032L175.974 30.0129C176.039 27.0347 176.622 24.1859 177.657 21.5962Z" fill="#003A5D"/>
<path d="M206.404 9.68335L204.461 14.4744L197.987 17.1289L206.404 9.68335Z" fill="#003A5D"/>
<path d="M188.858 20.9487L182.448 14.4744V18.8769L188.858 20.9487Z" fill="#003A5D"/>
<path d="M202.584 41.0193L199.735 34.2212L206.468 40.6956L204.461 45.5513L202.584 41.0193Z" fill="#003A5D"/>
<path d="M191.577 14.4744L197.987 17.1289L193.455 19.0064L191.577 14.4744Z" fill="#003A5D"/>
<path d="M184.002 27.3584L182.448 23.6033L186.981 25.4808L185.945 28.0706L184.002 27.3584Z" fill="#003A5D"/>
<path d="M188.858 39.1416L193.455 41.0192L196.368 34.0269L188.858 39.1416Z" fill="#003A5D"/>
<path d="M202.195 28.2649L210.871 30.013L208.993 25.481L202.195 28.2649Z" fill="#003A5D"/>
<path d="M211.842 27.7468L210.871 30.0129H220L211.842 27.7468Z" fill="#003A5D"/>
<path d="M189.57 50.3423C185.75 48.7237 183.29 46.3929 182.448 45.5513H191.577L189.57 50.3423Z" fill="#003A5D"/>
<path d="M207.116 20.9488L213.525 19.4597V23.6033L207.116 20.9488Z" fill="#5696C1"/>
<path d="M213.525 36.4873L219.935 30.0776C219.935 33.0558 219.352 35.9693 218.252 38.5591L213.525 36.4873Z" fill="#5696C1"/>
<path d="M197.987 42.8969L202.584 41.0193L204.461 45.5513L197.987 42.8969Z" fill="#5696C1"/>
<path d="M206.404 9.68335C206.404 9.68335 209.576 10.525 213.526 14.4744H206.404V9.68335Z" fill="#5696C1"/>
<path d="M176.039 30.0129H185.103L182.448 36.4873L176.039 30.0129Z" fill="#BFD22B"/>
<path d="M191.577 14.4744L193.455 19.0064L188.858 20.9487L191.577 14.4744Z" fill="#BFD22B"/>
<path d="M208.993 34.6097L213.525 36.4873L210.871 30.0129L208.993 34.6097Z" fill="#BFD22B"/>
<path d="M186.981 25.4808L188.858 20.9487L182.448 23.6032L186.981 25.4808Z" fill="#BFD22B"/>
<path d="M193.455 41.0192L188.858 39.1416L191.577 45.5512L193.455 41.0192Z" fill="#BFD22B"/>
<path d="M186.981 34.6098L188.858 39.1418L193.908 31.6963L186.981 34.6098Z" fill="#BFD22B"/>
<path d="M220 30.0129L213.526 23.6033L211.842 27.7469L220 30.0129Z" fill="#BFD22B"/>
<path d="M204.461 14.4744L207.116 20.9487L202.584 19.0064L204.461 14.4744Z" fill="#BFD22B"/>
<path d="M185.945 28.0706L191.707 30.0129H185.103L184.002 27.3584L185.945 28.0706Z" fill="#007FB1"/>
<path d="M193.455 19.0065L195.721 18.1001L196.239 25.6751L193.455 19.0065Z" fill="#007FB1"/>
<path d="M204.461 45.5513L203.814 51.2487C202.001 51.7667 200.059 52.0256 198.052 52.0256L204.461 45.5513Z" fill="#006CA3"/>
<path d="M182.448 14.4744C184.456 12.4673 186.916 10.8487 189.57 9.68335L191.577 14.4744H182.448Z" fill="#006CA3"/>
<path d="M177.657 38.4294C178.758 41.1487 180.377 43.5442 182.449 45.5512V36.4224L177.657 38.4294Z" fill="#006CA3"/>
<path d="M207.116 39.1418L213.525 45.5514V36.4873L207.116 39.1418Z" fill="#006CA3"/>
<path d="M208.993 25.4808L213.525 23.6032L207.116 20.9487L208.993 25.4808Z" fill="#006CA3"/>
<path d="M186.981 34.6096L182.448 36.4872L188.858 39.1417L186.981 34.6096Z" fill="#006CA3"/>
<path d="M199.865 25.6103L201.159 22.3731L207.116 20.9487L199.865 25.6103Z" fill="#006CA3"/>
<path d="M218.316 21.6609C217.216 18.9417 215.597 16.5462 213.525 14.4744V23.6032L218.316 21.6609Z" fill="#006CA3"/>
<path d="M197.987 8.0647V17.1288L202.843 12.8557L197.987 8.0647Z" fill="#006CA3"/>
</g>
<defs>
<clipPath id="clip0_536_2284">
<rect width="220" height="60" fill="white"/>
</clipPath>
</defs>
</svg>
