<?xml version="1.0" encoding="UTF-8"?>
<svg width="76px" height="88px" viewBox="0 0 76 88" version="1.1" xmlns="http://www.w3.org/2000/svg" xmlns:xlink="http://www.w3.org/1999/xlink">
    <!-- Generator: Sketch 47.1 (45422) - http://www.bohemiancoding.com/sketch -->
    <title>Logo</title>
    <desc>Created with Sketch.</desc>
    <defs>
        <polygon id="path-1" points="0.272447368 88 67.2891316 88 67.2891316 0.693404082 0.272447368 0.693404082"></polygon>
        <polygon id="path-3" points="6.64004641e-16 16.7962684 6.64004641e-16 0.200689474 16.5926263 0.200689474 16.5926263 16.7962684"></polygon>
    </defs>
    <g id="Symbols" stroke="none" stroke-width="1" fill="none" fill-rule="evenodd">
        <g id="Header" transform="translate(-128.000000, -24.000000)">
            <g id="Logo">
                <g transform="translate(128.000000, 24.000000)">
                    <g id="Group-3" transform="translate(8.000000, 0.000000)">
                        <mask id="mask-2" fill="white">
                            <use xlink:href="#path-1"></use>
                        </mask>
                        <g id="Clip-2"></g>
                        <path d="M0.272447368,0.693404082 L0.272447368,8.72205714 C0.958710526,9.50417959 1.78723684,9.81307755 2.98618421,9.81307755 C3.58744737,9.81307755 4.75776316,9.52303673 5.59881579,9.24287347 L5.59881579,9.23748571 C5.65697368,9.21683265 5.71155263,9.20336327 5.76971053,9.18540408 C5.85471053,9.15577143 6.01486842,9.11087347 6.01486842,9.11087347 C6.61792105,8.93846531 7.75513158,8.8307102 8.48881579,8.8307102 C11.1927105,8.8307102 13.3069737,9.81756735 14.3663421,11.5075265 C15.0293421,12.5653224 15.3433947,13.6769959 15.4552368,15.0257306 C16.8268684,13.0843429 18.8239211,12.0328327 21.3309737,12.0328327 C23.9570263,12.0328327 25.6042368,13.0951184 26.7387632,15.4953633 C28.0334474,13.2513633 30.2282368,12.0328327 32.8542895,12.0328327 C35.2056579,12.0328327 37.1651316,13.0547102 38.1457632,14.8667918 C38.7720789,16.0853224 39.0467632,17.656751 39.0467632,20.5293224 L39.0467632,31.8202612 L34.0299737,31.8202612 L34.0299737,22.3782204 C34.0299737,20.1369143 33.9136579,18.9156898 33.6765526,18.2089959 C33.2068158,16.8719347 32.3433947,16.2424653 31.0120263,16.2424653 C29.6788684,16.2424653 28.5443421,17.0290776 27.8768684,18.5214857 C27.4062368,19.5855673 27.2863421,20.3703837 27.2863421,22.8110367 L27.2863421,31.8202612 L22.2713421,31.8202612 L22.2713421,21.8681796 C22.2713421,19.2703837 22.1917105,18.6005061 21.8391842,17.8569959 C21.3309737,16.8324245 20.4272895,16.2424653 19.3330263,16.2424653 C18.1555526,16.2424653 17.0183421,16.9500571 16.2730263,18.2089959 C15.6878684,19.1904653 15.5330789,20.0165878 15.5330789,22.0639347 L15.5330789,31.8202612 L10.5109211,31.8202612 L10.5109211,17.1072 C10.5109211,16.8916898 10.5082368,16.6169143 10.5037632,16.3107102 L10.5019737,16.3107102 C10.5019737,14.4214041 9.77007895,13.0439347 7.50728947,13.0439347 C7.15834211,13.0439347 6.36918421,13.0762612 6.01128947,13.1579755 L5.56123684,13.278302 C4.14844737,13.6707102 3.14186842,13.9697306 2.16392105,13.9697306 C1.49465789,13.9697306 0.866552632,13.872751 0.272447368,13.7129143 L0.272447368,88.0001796 L67.2891316,88.0001796 L67.2891316,0.693404082 L0.272447368,0.693404082 Z" id="Fill-1" fill="#00467F" mask="url(#mask-2)"></path>
                    </g>
                    <path d="M67,51.8756409 C67,45.7470751 63.6867619,42 58.3117557,42 C52.6236596,42 49,46.0728277 49,52.4388064 C49,59.1314579 52.7010426,63 59.0135396,63 C61.5049167,63 63.7294559,62.5187327 65.7129515,61.591166 L65.6355685,57.1162088 C63.2215743,58.6060208 61.5840787,59.1719469 59.5979147,59.1719469 C56.3238128,59.1719469 54.1428571,57.2349152 53.9089292,54.1338241 L66.8834808,54.1338241 C66.9608638,53.2872354 67,52.2796109 67,51.8756409 M62.2449474,50.5459445 L53.8306567,50.5459445 C54.1428571,47.478901 55.7794634,45.6274484 58.1970154,45.6274484 C60.6866136,45.6274484 62.2058111,47.4402524 62.2449474,50.5459445" id="Fill-4" fill="#FFFFFF"></path>
                    <polygon id="Fill-6" fill="#FFFFFF" points="30.9168712 58.6400068 24.08585 58.6400068 24.08585 36 19 36 19 63 36 63 36 43.1896517 30.9168712 43.1896517"></polygon>
                    <path d="M32.5020907,35 C31.121425,35 30,36.1201272 30,37.4979086 C30,38.8781998 31.121425,40 32.5020907,40 C33.8810838,40 35,38.8781998 35,37.4979086 C35,36.1201272 33.8810838,35 32.5020907,35" id="Fill-8" fill="#FFFFFF"></path>
                    <path d="M59.1467378,24.2990223 C58.7559817,25.4454306 58.6012889,26.1579897 58.2078503,27.5416171 C57.9333374,26.5918389 57.8555439,26.3943067 57.3843118,24.9313057 L53.390016,13 L47.5206278,13 L55.4654045,33.5442508 C54.4827023,36.0742865 53.5053651,36.9050041 51.5086643,36.9050041 C50.9095646,36.9050041 49.739979,36.6136667 48.8976628,36.3358589 L48.4809756,36.2005628 C47.8818759,36.0273839 46.7453749,35.920951 46.0130427,35.920951 C43.3090466,35.920951 41.1961026,36.909514 40.1382893,38.6079302 C39.2745128,39.9906556 39,41.4626763 39,43.4307826 L39,47.1838944 L39,63 L44.0145535,63 L44.0145535,47.1838944 L48.4040762,47.1838944 L48.4040762,43.4307826 L44.0145535,43.4307826 C44.0145535,41.5348342 44.728108,40.1503049 46.9894857,40.1503049 C47.3400037,40.1503049 48.127775,40.1845799 48.4854465,40.2666595 L48.9396892,40.3875239 C50.3489147,40.7807844 51.352183,40.8168633 52.3313086,40.8168633 C54.4460409,40.8168633 56.2102553,40.1818739 57.4638937,38.9975827 C58.4036754,38.0901974 59.3416687,36.3917812 60.2832388,33.9005304 L68,13 L62.9094413,13 L59.1467378,24.2990223 Z" id="Fill-10" fill="#FFFFFF"></path>
                    <g id="Group-14" transform="translate(0.000000, 64.000000)">
                        <mask id="mask-4" fill="white">
                            <use xlink:href="#path-3"></use>
                        </mask>
                        <g id="Clip-13"></g>
                        <path d="M16.5926263,8.49847895 C16.5926263,13.0813211 12.8803632,16.7962684 8.29752105,16.7962684 C3.71378421,16.7962684 -0.000268421053,13.0813211 -0.000268421053,8.49847895 C-0.000268421053,3.91563684 3.71378421,0.200689474 8.29752105,0.200689474 C12.8803632,0.200689474 16.5926263,3.91563684 16.5926263,8.49847895" id="Fill-12" fill="#00AEEF" mask="url(#mask-4)"></path>
                    </g>
                    <path d="M2.04512635,71.2824302 C2.04512635,71.0041051 2.0234657,70.3571429 2,70.0788177 L3.34386282,70.0788177 L3.36732852,70.8251232 C3.75,70.2873563 4.32851986,70 5.06137184,70 C5.79241877,70 6.25090253,70.2676519 6.56949458,70.8735632 C6.92960289,70.3078818 7.54151625,70 8.2734657,70 C8.92960289,70 9.47563177,70.2577997 9.74819495,70.7151067 C9.9232852,71.0238095 10,71.4211823 10,72.1461412 L10,75 L8.60198556,75 L8.60198556,72.6141215 C8.60198556,72.047619 8.56949458,71.7389163 8.50270758,71.5599343 C8.37274368,71.2224959 8.13086643,71.0640394 7.7599278,71.0640394 C7.38898917,71.0640394 7.07129964,71.2627258 6.88537906,71.6395731 C6.75541516,71.908867 6.72202166,72.1075534 6.72202166,72.7233169 L6.72202166,75 L5.32310469,75 L5.32310469,72.4852217 C5.32310469,71.8284072 5.30054152,71.6600985 5.20216606,71.4712644 C5.06137184,71.2126437 4.80956679,71.0640394 4.50361011,71.0640394 C4.17509025,71.0640394 3.85920578,71.2422003 3.65072202,71.5599343 C3.48736462,71.8087028 3.44404332,72.0172414 3.44404332,72.5353038 L3.44404332,75 L2.04512635,75 L2.04512635,71.2824302 Z" id="Fill-15" fill="#FFFFFF"></path>
                    <path d="M11.0947571,76.8756452 C11.6892737,76.8756452 11.979798,76.6372595 12.2722463,75.9099015 L10,70 L11.6536797,70 L12.8417508,73.4321915 C12.982203,73.8526513 13.005291,73.9089629 13.0870611,74.1820741 C13.2034632,73.7850774 13.2496392,73.5795401 13.3660414,73.2501173 L14.4848485,70 L16,70 L13.7037037,76.0112623 C13.4247234,76.727358 13.1447811,77.2163304 12.8658009,77.4772407 C12.4925445,77.8188644 11.968254,78 11.3391053,78 C11.048581,78 10.9321789,78 10.5137085,77.8873768 L10.3857624,77.8526513 L10.4886965,76.7498827 C10.7340067,76.8418583 10.8850409,76.8756452 11.0947571,76.8756452" id="Fill-17" fill="#FFFFFF"></path>
                    <path d="M19,71.3621522 L19,69.7847781 C19.0363306,68.1752127 19.1180745,67.7098183 19.4750227,67.129455 C19.9191644,66.414808 20.8029064,66 21.9346049,66 C22.3124432,66 22.5594914,66.0321913 23.0326975,66.1499195 L22.9037239,67.8588181 C22.6548592,67.792596 22.5404178,67.7769602 22.3442325,67.7769602 C21.7892825,67.7769602 21.4105359,68.0252932 21.2306994,68.4906875 C21.1153497,68.7537365 21.0980926,68.9873534 21.0980926,69.7847781 L22.9346049,69.7847781 L22.9346049,71.3621522 L21.0980926,71.3621522 L21.0980926,78 L19,78 L19,71.3621522 Z M23.9009991,78 L26,78 L26,69.7847781 L23.9009991,69.7847781 L23.9009991,78 Z" id="Fill-19" fill="#00AEEF"></path>
                    <path d="M27.0775717,72.9898634 C27.0775717,72.0828559 27.0463744,71.0189511 27,70.1269282 L28.8271501,70.1269282 L28.8887015,71.3821067 C29.1787521,70.9537241 29.2959528,70.793301 29.5548061,70.5870428 C30.0126476,70.2212428 30.7133221,70 31.4426644,70 C32.3423272,70 33.1011804,70.3649185 33.5278246,71.0189511 C33.8617201,71.5425297 34,72.2582636 34,73.5610401 L34,78 L32.0522766,78 L32.0522766,74.0379022 C32.0522766,72.3851917 31.6551433,71.6994271 30.7133221,71.6994271 C30.0885329,71.6994271 29.5725126,72.0502424 29.2833052,72.6549141 C29.0860034,73.0542089 29.0261383,73.4349934 29.0261383,74.2609079 L29.0261383,78 L27.0775717,78 L27.0775717,72.9898634 Z" id="Fill-21" fill="#00AEEF"></path>
                    <path d="M40.162884,76.7336509 C39.6573041,77.5643136 38.8173041,78 37.6613166,78 C36.0453918,78 35,77.0480728 35,75.5790385 C35,73.921178 36.3139812,73.0766566 38.9287774,73.0766566 C39.230721,73.0766566 39.514232,73.0913816 40.0698433,73.1398874 L40.0698433,73.0619316 C40.0698433,71.9688177 39.4826332,71.4205284 38.325768,71.4205284 C37.5191223,71.4205284 36.5834483,71.7496752 35.9040752,72.265916 L35.8373668,70.5456908 C36.6791223,70.1853616 37.5954859,70 38.547837,70 C39.8635737,70 40.9063323,70.4045041 41.4294671,71.1234301 C41.808652,71.6717194 41.9201254,72.265916 41.9201254,73.9367692 L41.9201254,75.0619316 C41.9201254,75.8588133 41.9517241,76.9216111 42,77.8761369 L40.1944828,77.8761369 L40.162884,76.7336509 Z M38.2309718,76.6409701 C38.9428213,76.6409701 39.5774295,76.2191425 39.8934169,75.561715 C40.036489,75.2498917 40.101442,74.9198787 40.101442,74.3585968 C39.9092163,74.3438718 39.7047022,74.3291468 39.5458307,74.3291468 C37.8491536,74.3291468 37.0126646,74.7648333 37.0126646,75.6388047 C37.0126646,76.2338675 37.5024451,76.6409701 38.2309718,76.6409701 L38.2309718,76.6409701 Z" id="Fill-23" fill="#00AEEF"></path>
                    <path d="M44.0759036,72.9898634 C44.0759036,72.0828559 44.0472289,71.0189511 44,70.1269282 L45.8259036,70.1269282 L45.8874699,71.3821067 C46.1750602,70.9537241 46.2981928,70.793301 46.5562651,70.5870428 C47.0142169,70.2221243 47.7125301,70 48.4454217,70 C49.3419277,70 50.1026506,70.3649185 50.5285542,71.0189511 C50.8633735,71.5425297 51,72.2582636 51,73.5610401 L51,78 L49.0518072,78 L49.0518072,74.0379022 C49.0518072,72.3851917 48.6562651,71.6994271 47.7125301,71.6994271 C47.0901205,71.6994271 46.5714458,72.0502424 46.2838554,72.6549141 C46.0839759,73.0542089 46.0266265,73.4349934 46.0266265,74.2609079 L46.0266265,78 L44.0759036,78 L44.0759036,72.9898634 Z" id="Fill-25" fill="#00AEEF"></path>
                    <path d="M58,77.6994602 C57.1739326,77.9374243 56.7334831,78 56.1186517,78 C53.5892135,78 52,76.4576402 52,73.9616613 C52,72.7841798 52.3397753,71.8473064 53.0373034,71.16338 C53.7833708,70.4318607 54.9033708,70 56.0862921,70 C56.6229213,70 57.1253933,70.0802027 57.8202247,70.2555911 L57.658427,71.8940178 C57.1406742,71.7036466 56.8647191,71.6384268 56.428764,71.6384268 C55.0660674,71.6384268 54.1573034,72.5788256 54.1573034,73.9925085 C54.1573034,75.377107 55.0813483,76.2989975 56.4602247,76.2989975 C56.9635955,76.2989975 57.3033708,76.234659 57.8885393,75.981712 L58,77.6994602 Z" id="Fill-27" fill="#00AEEF"></path>
                    <path d="M64.4988608,77.4616775 C63.7265859,77.8154566 62.8628133,78 61.8949514,78 C59.4396211,78 58,76.5262039 58,73.9766132 C58,71.5520357 59.410241,70 61.6212975,70 C63.7123156,70 65,71.4278729 65,73.7614542 C65,73.9145317 64.9848903,74.2989263 64.9563497,74.6212395 L59.9097014,74.6212395 C59.9995203,75.8033379 60.8490227,76.5406612 62.1224367,76.5406612 C62.8938722,76.5406612 63.5301595,76.3246519 64.4711596,75.7582651 L64.4988608,77.4616775 Z M63.1524164,73.2545976 C63.1364672,72.0733496 62.5471879,71.3810992 61.5759683,71.3810992 C60.6374865,71.3810992 59.9995203,72.0869565 59.8786425,73.2545976 L63.1524164,73.2545976 Z" id="Fill-29" fill="#00AEEF"></path>
                    <path d="M23,67.0003957 C23,67.5512465 23.4473476,68 24.0015835,68 C24.5526524,68 25,67.5512465 25,67.0003957 C25,66.447962 24.5526524,66 24.0015835,66 C23.4473476,66 23,66.447962 23,67.0003957" id="Fill-31" fill="#00AEEF"></path>
                </g>
            </g>
        </g>
    </g>
</svg>