<?xml version="1.0" encoding="utf-8"?>
<!-- Generator: Adobe Illustrator 25.3.1, SVG Export Plug-In . SVG Version: 6.00 Build 0)  -->
<svg version="1.1" id="Layer_1" xmlns="http://www.w3.org/2000/svg" xmlns:xlink="http://www.w3.org/1999/xlink" x="0px" y="0px"
	 viewBox="0 0 3965 1152.8" style="enable-background:new 0 0 3965 1152.8;" xml:space="preserve">
<path d="M1517.7,1043.4c-10.9,2-27.2,4.4-48.9,7.4c-20.8,3.9-42,5.9-63.7,5.9c-21.7,0-41.5-1.5-59.3-4.4c-16.8-3-31.1-8.9-43-17.7
	c-11.9-8.9-21.2-20.7-28.2-35.5c-5.9-15.8-8.9-35.9-8.9-60.6V81.8c10.9-2,26.7-4.4,47.4-7.4c21.7-3.9,43.5-5.9,65.2-5.9
	s41,1.5,57.8,4.4c17.8,3,32.6,8.9,44.4,17.7c11.8,8.9,20.7,21.2,26.7,36.9c6.9,14.8,10.4,34.5,10.4,59.1V1043.4z"/>
<path d="M2377.5,685.9c0,61.1-9.4,115.7-28.1,164c-18.8,47.3-45.4,87.2-80,119.6c-33.6,32.5-74.1,57.1-121.5,73.9
	c-47.4,16.7-100.3,25.1-158.5,25.1s-111.1-8.9-158.6-26.6c-47.4-17.7-88.4-42.8-123-75.3c-33.6-33.5-59.8-73.9-78.5-121.1
	c-18.8-47.3-28.1-100.4-28.1-159.5c0-58.1,9.4-110.8,28.1-158c18.8-47.3,44.9-87.1,78.5-119.6c34.6-33.5,75.6-59.1,123-76.8
	c47.4-17.7,100.3-26.6,158.6-26.6s111.1,9.4,158.5,28.1c47.4,17.7,87.9,43.3,121.5,76.8c34.6,32.5,61.2,72.4,80,119.6
	C2368.1,576.6,2377.5,628.8,2377.5,685.9z M1858.9,685.9c0,60.1,11.4,106.4,34.1,138.8c23.7,31.5,56.3,47.3,97.8,47.3
	s73.1-16.2,94.8-48.7c22.7-32.5,34.1-78.3,34.1-137.4s-11.4-104.4-34.1-135.9c-22.7-32.5-54.8-48.7-96.3-48.7s-73.6,16.2-96.3,48.7
	C1870.2,581.5,1858.9,626.8,1858.9,685.9z"/>
<path d="M2803.4,885.3c16.8,0,35.1-1.5,54.8-4.4c20.7-3.9,36.1-8.9,45.9-14.8V747.9l-106.7,8.9c-27.6,2-50.4,7.9-68.2,17.7
	c-17.8,9.8-26.7,24.6-26.7,44.3c0,19.7,7.4,35.9,22.2,48.7C2740.7,879.4,2766.9,885.3,2803.4,885.3z M2791.6,304.8
	c53.3,0,101.7,5.4,145.2,16.2c44.4,10.8,82,27.6,112.6,50.2c31.6,21.7,55.8,49.7,72.6,84.2c16.8,33.5,25.2,73.4,25.2,119.6V906
	c0,25.6-7.4,46.8-22.2,63.5c-13.8,15.8-30.6,29.5-50.4,41.4c-64.2,38.4-154.6,57.6-271.2,57.6c-52.3,0-99.8-4.9-142.2-14.8
	c-41.5-9.8-77.5-24.6-108.2-44.3c-29.6-19.7-52.9-44.8-69.6-75.3c-15.8-30.5-23.7-66-23.7-106.4c0-67.9,20.2-120.1,60.8-156.6
	c40.5-36.4,103.2-59.1,188.2-67.9l194.1-20.7v-10.3c0-28.6-12.8-48.7-38.5-60.6c-24.7-12.8-60.8-19.2-108.2-19.2
	c-37.5,0-74.1,3.9-109.7,11.8c-35.6,7.9-67.7,17.7-96.3,29.5c-12.9-8.9-23.7-22.2-32.6-39.9c-8.9-18.7-13.3-37.9-13.3-57.6
	c0-25.6,5.9-45.8,17.8-60.6c12.8-15.8,32.1-29.1,57.8-39.9c28.7-10.8,62.2-18.7,100.8-23.6C2720,307.3,2757,304.8,2791.6,304.8z"/>
<path d="M3713.1,589.9c0-30.5-8.9-52.7-26.7-66.5c-16.8-14.8-40-22.2-69.6-22.2c-19.8,0-39.5,2.5-59.3,7.4
	c-18.8,4.9-35.1,12.3-48.9,22.2v512.6c-9.9,3-25.7,5.9-47.4,8.9c-20.8,3-42.5,4.4-65.2,4.4c-21.7,0-41.5-1.5-59.3-4.4
	c-16.8-3-31.1-8.9-43-17.7c-11.9-8.9-21.2-20.7-28.2-35.5c-5.9-15.8-8.9-35.9-8.9-60.6V495.4c0-26.6,5.4-48.3,16.3-65
	c11.8-16.7,27.7-32,47.4-45.8c33.6-23.6,75.6-42.8,125.9-57.6c51.4-14.8,108.2-22.2,170.4-22.2c111.6,0,197.6,24.6,257.8,73.9
	c60.3,48.3,90.4,115.7,90.4,202.4v462.3c-9.9,3-25.7,5.9-47.4,8.9c-20.7,3-42.5,4.4-65.2,4.4c-21.7,0-41.5-1.5-59.3-4.4
	c-16.8-3-31.1-8.9-43-17.7c-11.9-8.9-21.2-20.7-28.2-35.5c-5.9-15.8-8.9-35.9-8.9-60.6V589.9z"/>
<path d="M1072.4,377.2c-60.3-49.4-146.2-74.1-257.9-74.1c-1.8,0-3.6,0-5.4,0c-1.8,0-3.6,0-5.4,0c-111.7,0-197.6,24.7-257.9,74.1
	c-60.3,48.4-90.4,116.1-90.4,203V777c-1.1,27.7-9.9,48-26.6,60.9c-16.8,14.8-40,22.2-69.7,22.2c-1.8,0-3.6,0-5.4-0.1
	c-1.8,0-3.6,0.1-5.4,0.1c-29.6,0-52.9-7.4-69.7-22.2c-17.8-13.8-26.7-36-26.7-66.7V421.6c0-24.7-3-44.9-8.9-60.7
	c-6.9-14.8-16.3-26.7-28.2-35.6c-11.9-8.9-26.2-14.8-43-17.8c-17.8-3-37.5-4.4-59.3-4.4c-22.7,0-44.5,1.5-65.2,4.4
	c-21.7,3-37.5,5.9-47.4,8.9v463.7c0,86.9,30.1,154.6,90.4,203c60.3,49.4,146.2,74.1,257.9,74.1c1.8,0,3.6,0,5.4,0c1.8,0,3.6,0,5.4,0
	c111.7,0,197.6-24.7,257.9-74.1c60.3-48.4,90.4-116.1,90.4-203V583.3c1.1-27.7,9.9-48,26.6-60.9c16.8-14.8,40-22.2,69.7-22.2
	c1.8,0,3.6,0,5.4,0.1c1.8,0,3.6-0.1,5.4-0.1c29.6,0,52.9,7.4,69.7,22.2c17.8,13.8,26.7,36,26.7,66.7v349.6c0,24.7,3,44.9,8.9,60.7
	c6.9,14.8,16.3,26.7,28.2,35.6c11.9,8.9,26.2,14.8,43,17.8c17.8,3,37.5,4.4,59.3,4.4c22.7,0,44.5-1.5,65.2-4.4
	c21.7-3,37.5-5.9,47.4-8.9V580.2C1162.8,493.2,1132.7,425.6,1072.4,377.2z"/>
</svg>
