<svg xmlns="http://www.w3.org/2000/svg" width="194.849" height="53.919" viewBox="0 0 194.849 53.919">
  <g id="qbank-logo" transform="translate(-0.004)">
    <path id="Path_2515" data-name="Path 2515" d="M348.478,176.229v-.067a2.031,2.031,0,0,1,.037-.408,1.219,1.219,0,0,1,.134-.354.61.61,0,0,1,.3-.268,1.323,1.323,0,0,1,.524-.091,1.366,1.366,0,0,1,.536.091.61.61,0,0,1,.311.274,1.219,1.219,0,0,1,.134.354,2,2,0,0,1,.03.4v.067Zm3.091.293q0-2.359-2.1-2.359a2.03,2.03,0,0,0-1.561.567,2.439,2.439,0,0,0-.53,1.7v.39a2.335,2.335,0,0,0,.518,1.7,2.439,2.439,0,0,0,1.756.518,6.859,6.859,0,0,0,1.725-.2v-.811a12.691,12.691,0,0,1-1.677.11,2.524,2.524,0,0,1-.671-.073.677.677,0,0,1-.378-.238.9.9,0,0,1-.152-.341,2.469,2.469,0,0,1-.03-.469v-.073h3.1v-.427Zm-4.877,1.53c-.524.043-.939.067-1.256.067a1.085,1.085,0,0,1-.8-.256,1.408,1.408,0,0,1-.25-.963v-.61a1.4,1.4,0,0,1,.25-.963,1.1,1.1,0,0,1,.786-.25,4.081,4.081,0,0,1,.457,0l.073.4h.732v-1.171a4.7,4.7,0,0,0-1.433-.171q-1.957,0-1.957,2.14v.61q0,2.152,1.957,2.146a5.1,5.1,0,0,0,1.433-.171v-.811Zm-4.4-5.542h-1.128v1.049h1.128Zm.384,5.548-.4-.043v-3.737h-1.5v.866l.4.043v2.829l-.4.043v.847h1.908v-.866Zm-2.67.116h-.7c-.091,0-.311,0-.36-.091a.768.768,0,0,1-.073-.421v-2.548H340v-.866h-1.134v-1.158h-1.091v1.158h-.866v.8l.866.067v2.573a1.463,1.463,0,0,0,.293,1.03,1.341,1.341,0,0,0,.988.3,3.743,3.743,0,0,0,.939-.122v-.719Zm-3.963-1.341a3.657,3.657,0,0,0-1.091-.61l-.372-.159a2.439,2.439,0,0,1-.567-.3.439.439,0,0,1-.14-.341.311.311,0,0,1,.183-.311,1.689,1.689,0,0,1,.61-.079h.671l.085.39h.774v-1.067a3.567,3.567,0,0,0-.652-.122,7.319,7.319,0,0,0-.86-.055,2.743,2.743,0,0,0-1.414.287,1.055,1.055,0,0,0-.457.963,1.183,1.183,0,0,0,.3.847,2.981,2.981,0,0,0,1,.61l.341.14a3.1,3.1,0,0,1,.671.348.445.445,0,0,1,.146.354.421.421,0,0,1-.177.372,1.177,1.177,0,0,1-.61.116h-.75l-.073-.463H332.9v1.146a5.121,5.121,0,0,0,.671.122,6.839,6.839,0,0,0,.914.061c1.256,0,1.884-.457,1.884-1.378a1.219,1.219,0,0,0-.311-.841m-3.957,1.219-.415-.043V174.3h-1.53v.866l.4.043v2.628a3.488,3.488,0,0,1-1.219.311.61.61,0,0,1-.53-.189,1.28,1.28,0,0,1-.134-.7V174.3h-1.494v.866l.4.043v2.048a4.877,4.877,0,0,0,.03.555,2.142,2.142,0,0,0,.116.494,1.012,1.012,0,0,0,.238.4,1.116,1.116,0,0,0,.408.256,1.683,1.683,0,0,0,.61.1,3.426,3.426,0,0,0,1.609-.488v.335h1.463v-.866Zm-5.487-5.267H324.61v.872l.415.043v5.554a.848.848,0,0,1-.091.469c-.061.079-.2.122-.421.122H324v.793a2.94,2.94,0,0,0,.719.067,1.494,1.494,0,0,0,1.116-.348,1.585,1.585,0,0,0,.335-1.134v-5.523l.415-.043v-.872Z" transform="translate(-158.795 -126.816)" fill="#005191"/>
    <path id="Path_2516" data-name="Path 2516" d="M269.674,176.217v-.067a2.031,2.031,0,0,1,.037-.408,1.22,1.22,0,0,1,.134-.354.61.61,0,0,1,.3-.268,1.317,1.317,0,0,1,.524-.1,1.262,1.262,0,0,1,.536.1.61.61,0,0,1,.311.274,1.218,1.218,0,0,1,.134.354,2,2,0,0,1,.03.4v.067Zm3.091.293q0-2.359-2.1-2.359a2.055,2.055,0,0,0-1.567.567,2.439,2.439,0,0,0-.53,1.7v.39a2.335,2.335,0,0,0,.518,1.7,2.439,2.439,0,0,0,1.756.518,6.859,6.859,0,0,0,1.725-.2v-.811a12.687,12.687,0,0,1-1.677.11,2.523,2.523,0,0,1-.671-.073.7.7,0,0,1-.378-.238.915.915,0,0,1-.152-.335,2.467,2.467,0,0,1-.03-.469v-.073h3.1Zm-4.877,1.53c-.524.043-.939.067-1.256.067a1.085,1.085,0,0,1-.8-.256,1.378,1.378,0,0,1-.25-.963v-.61a1.4,1.4,0,0,1,.25-.963,1.061,1.061,0,0,1,.786-.25,3.88,3.88,0,0,1,.451,0l.073.4h.732V174.3a4.719,4.719,0,0,0-1.439-.171q-1.957,0-1.957,2.14v.61q0,2.152,1.957,2.146a5.14,5.14,0,0,0,1.439-.171v-.811Zm-4.432-5.542h-1.128v1.049h1.128Zm.384,5.548-.4-.043v-3.737h-1.5v.866l.4.043V178l-.4.043v.847h1.908v-.866Zm-2.6-3.78h-1.262l-.75,2.652q-.226.841-.329,1.262h0q-.116-.506-.329-1.262l-.756-2.652h-1.28v.866l.4.055,1.219,3.725h1.518l1.219-3.725.415-.055v-.866Zm-5.341-.116a2.366,2.366,0,0,0-1.585.476v-.378h-1.439v.866l.4.043v2.829l-.4.043v.866h1.908v-.866l-.415-.043v-2.567a3.847,3.847,0,0,1,1.536-.274v-.994Zm-6.9,2.067v-.067a2.029,2.029,0,0,1,.037-.408,1.219,1.219,0,0,1,.134-.354.61.61,0,0,1,.3-.268,1.317,1.317,0,0,1,.524-.1,1.281,1.281,0,0,1,.536.1.61.61,0,0,1,.311.274,1.219,1.219,0,0,1,.134.354,2,2,0,0,1,.03.4v.067Zm3.1.293q0-2.359-2.1-2.359a2.055,2.055,0,0,0-1.567.567,2.439,2.439,0,0,0-.53,1.7v.39a2.335,2.335,0,0,0,.518,1.7,2.439,2.439,0,0,0,1.756.518,6.859,6.859,0,0,0,1.725-.2v-.811a12.688,12.688,0,0,1-1.677.11,2.524,2.524,0,0,1-.671-.073.677.677,0,0,1-.378-.238.915.915,0,0,1-.152-.335,2.467,2.467,0,0,1,0-.469v-.073h3.1Zm-5.255-.311a2.9,2.9,0,0,0-1.055-.707l-.957-.421a2.018,2.018,0,0,1-.61-.366.64.64,0,0,1-.171-.457.518.518,0,0,1,.28-.506,1.945,1.945,0,0,1,.86-.146h.914l.1.543h.756v-1.28a7.548,7.548,0,0,0-1.829-.2,2.823,2.823,0,0,0-1.652.39,1.4,1.4,0,0,0-.549,1.219,1.53,1.53,0,0,0,.329,1.043,2.957,2.957,0,0,0,1.024.689l.963.427a2.1,2.1,0,0,1,.61.39.7.7,0,0,1,.171.482c0,.524-.341.786-1.018.786-.256,0-.61,0-1.1-.03l-.085-.567h-.756v1.36a8,8,0,0,0,1.939.183,2.506,2.506,0,0,0,1.61-.445,1.628,1.628,0,0,0,.555-1.335,1.543,1.543,0,0,0-.317-1.061m-6.31,1.829c-.524.043-.939.067-1.256.067a1.085,1.085,0,0,1-.8-.256,1.408,1.408,0,0,1-.25-.963v-.61a1.4,1.4,0,0,1,.25-.963,1.067,1.067,0,0,1,.786-.25,4.081,4.081,0,0,1,.457,0l.073.4h.732v-1.171a4.718,4.718,0,0,0-1.439-.171q-1.957,0-1.957,2.14v.61q0,2.152,1.957,2.146a5.169,5.169,0,0,0,1.439-.171v-.793Zm-4.432-5.542h-1.128v1.049h1.128Zm.39,5.548-.4-.043v-3.737h-1.5v.866l.4.043v2.829l-.4.043v.866H236.5v-.866Zm-2.634,0-.415-.043V172.5h-1.494v.86l.4.043V178l-.4.043v.847h1.908Zm-4.048-.213a1.085,1.085,0,0,1-.835.274l-.8-.03v-2.823a2.2,2.2,0,0,1,.951-.171.884.884,0,0,1,.732.25,1.439,1.439,0,0,1,.2.884v.652a1.457,1.457,0,0,1-.25.969m1.341-1.628a2.31,2.31,0,0,0-.451-1.567,1.829,1.829,0,0,0-1.42-.5,2.652,2.652,0,0,0-1.1.213v-1.847h-1.5v.86l.415.043v5.487c.756.079,1.384.122,1.872.122a2.323,2.323,0,0,0,1.652-.512,2.213,2.213,0,0,0,.536-1.664v-.61Zm-4.993,1.829-.415-.043v-3.737h-1.494v.866l.4.043v2.628a3.488,3.488,0,0,1-1.219.311.61.61,0,0,1-.53-.189,1.28,1.28,0,0,1-.134-.7v-2.957H221.28v.866l.4.043V177.2a4.877,4.877,0,0,0,.03.555,2.14,2.14,0,0,0,.116.494,1.012,1.012,0,0,0,.238.4,1.116,1.116,0,0,0,.408.256,1.683,1.683,0,0,0,.61.1,3.426,3.426,0,0,0,1.609-.488v.378h1.463v-.866ZM219.2,175.5a2.438,2.438,0,0,1-1.158.2h-.725v-2.012h.725a2.689,2.689,0,0,1,1.164.183.78.78,0,0,1,.347.762v.091a.841.841,0,0,1-.354.78m-1.469,2.53-.421-.043v-1.3h.744a6.7,6.7,0,0,0,.829-.043,2.921,2.921,0,0,0,.707-.171,1.725,1.725,0,0,0,.579-.335,1.475,1.475,0,0,0,.366-.567,2.335,2.335,0,0,0,.14-.841v-.116a2.158,2.158,0,0,0-.2-.988,1.353,1.353,0,0,0-.61-.61,2.859,2.859,0,0,0-.835-.274,6.707,6.707,0,0,0-1.067-.073c-.75,0-1.488,0-2.213.049v.872l.421.043v4.268l-.421.03v.951h1.981Z" transform="translate(-116.54 -126.805)" fill="#005191"/>
    <path id="Path_2517" data-name="Path 2517" d="M182.608,178.058l-.415-.043v-2.036a4.421,4.421,0,0,0-.055-.768,1.463,1.463,0,0,0-.213-.555.933.933,0,0,0-.469-.372,2.219,2.219,0,0,0-.786-.122,3.048,3.048,0,0,0-1.445.4V172.51h-1.494v.86l.4.043v4.6l-.4.043v.847h1.908v-.866l-.415-.043v-2.634a2.926,2.926,0,0,1,1.14-.3.744.744,0,0,1,.61.183,1.323,1.323,0,0,1,.14.732v2.932h1.5v-.866Zm-5.639.116h-.7c-.091,0-.311,0-.36-.091a.786.786,0,0,1-.067-.421v-2.548h1.128v-.866h-1.128v-1.158H174.75v1.158h-.866v.8l.866.067v2.573a1.463,1.463,0,0,0,.293,1.03,1.341,1.341,0,0,0,.988.3,3.743,3.743,0,0,0,.939-.122Zm-3.481-.116-.415-.043v-5.487H171.58v.86l.4.043v4.6l-.4.043v.829h1.908v-.866Zm-5.176.2c-.433,0-.652-.183-.652-.543v-.207a.573.573,0,0,1,.25-.561,2.122,2.122,0,0,1,.89-.134h.61v1.164a2.152,2.152,0,0,1-1.073.28m2.542-.2-.4-.043v-2.158a1.768,1.768,0,0,0-.4-1.311,2.164,2.164,0,0,0-1.481-.384,5.011,5.011,0,0,0-.963.085,4.146,4.146,0,0,0-.683.165v1.079h.75l.073-.415h.61a1.365,1.365,0,0,1,.786.146.866.866,0,0,1,.177.652v.28h-.555a5.224,5.224,0,0,0-.732.03,3.322,3.322,0,0,0-.61.11,1.171,1.171,0,0,0-.469.238,1.14,1.14,0,0,0-.287.408,1.579,1.579,0,0,0-.11.61v.183a1.219,1.219,0,0,0,1.372,1.323,2.524,2.524,0,0,0,1.463-.421v.3h1.42v-.872Zm-8.072-1.829v-.067a2.031,2.031,0,0,1,.037-.408,1.11,1.11,0,0,1,.134-.348.61.61,0,0,1,.3-.268,1.317,1.317,0,0,1,.524-.1,1.28,1.28,0,0,1,.537.1.61.61,0,0,1,.311.274,1.219,1.219,0,0,1,.134.354,2,2,0,0,1,0,.4v.067h-2.012Zm3.1.293q0-2.359-2.1-2.359a2.055,2.055,0,0,0-1.567.567,2.439,2.439,0,0,0-.53,1.7v.39a2.335,2.335,0,0,0,.518,1.7,2.439,2.439,0,0,0,1.756.518,6.86,6.86,0,0,0,1.725-.2v-.811a12.691,12.691,0,0,1-1.677.11,2.524,2.524,0,0,1-.671-.073.677.677,0,0,1-.378-.238.915.915,0,0,1-.152-.335,2.468,2.468,0,0,1-.03-.469v-.073h3.1Zm-6.877-2.853.421.043v1.536h-2.689v-1.524l.421-.043v-.872h-2v.872l.421.043v4.3l-.421.043v.841h2v-.854l-.421-.043v-1.792h2.689v1.792l-.421.043v.854h1.987v-.854l-.421-.043v-4.3l.421-.043v-.86h-1.987Z" transform="translate(-92.897 -126.816)" fill="#005191"/>
    <path id="Path_2518" data-name="Path 2518" d="M126.563,176.229v-.067a2.029,2.029,0,0,1,.037-.408,1.22,1.22,0,0,1,.134-.354.61.61,0,0,1,.3-.268,1.317,1.317,0,0,1,.524-.1,1.262,1.262,0,0,1,.536.1.61.61,0,0,1,.311.274,1.219,1.219,0,0,1,.134.354,2,2,0,0,1,0,.4v.067Zm3.1.293q0-2.359-2.1-2.359a2.055,2.055,0,0,0-1.567.567,2.439,2.439,0,0,0-.53,1.7v.39a2.335,2.335,0,0,0,.518,1.7,2.439,2.439,0,0,0,1.756.518,6.572,6.572,0,0,0,1.725-.2v-.811a12.691,12.691,0,0,1-1.677.11,2.525,2.525,0,0,1-.671-.073.677.677,0,0,1-.378-.238.9.9,0,0,1-.152-.341,2.469,2.469,0,0,1,0-.469v-.073h3.1Zm-4.578-2.359a2.365,2.365,0,0,0-1.591.494v-.378h-1.42v.866l.4.043v2.829l-.4.043v.847h1.908v-.866l-.415-.043V175.43a3.847,3.847,0,0,1,1.536-.274v-.994Zm-4.146-1.652h-1.128v1.049h1.128Zm.39,5.548-.4-.043v-3.737h-1.5v.866l.4.043v2.829l-.4.043v.847h1.908v-.866Zm-2.817-2.75h-2.573v-1.561h1.908l.085.463h.762v-1.4H114.37v.878l.421.043v4.3l-.421.043v.835h1.987v-.854l-.415-.043v-1.774h2.573v-.927Z" transform="translate(-76.967 -126.816)" fill="#005191"/>
    <path id="Path_2519" data-name="Path 2519" d="M80.277,176.229v-.067a2.03,2.03,0,0,1,.037-.408,1.219,1.219,0,0,1,.134-.354.61.61,0,0,1,.3-.268,1.317,1.317,0,0,1,.524-.1,1.262,1.262,0,0,1,.536.1.61.61,0,0,1,.311.274,1.219,1.219,0,0,1,.134.354,2,2,0,0,1,0,.4v.067Zm3.1.293q0-2.359-2.1-2.359a2.054,2.054,0,0,0-1.567.567,2.439,2.439,0,0,0-.53,1.7v.39a2.335,2.335,0,0,0,.518,1.7,2.439,2.439,0,0,0,1.756.518,6.859,6.859,0,0,0,1.725-.2v-.811a12.691,12.691,0,0,1-1.677.11,2.524,2.524,0,0,1-.671-.073.7.7,0,0,1-.378-.238.915.915,0,0,1-.152-.335,2.47,2.47,0,0,1-.03-.469v-.073h3.1v-.433Zm-4.877,1.53c-.524.043-.939.067-1.256.067a1.085,1.085,0,0,1-.8-.256,1.378,1.378,0,0,1-.25-.963v-.61a1.4,1.4,0,0,1,.25-.963,1.067,1.067,0,0,1,.786-.25,3.886,3.886,0,0,1,.451,0l.073.4h.732v-1.171a4.7,4.7,0,0,0-1.433-.171q-1.957,0-1.957,2.14v.61q0,2.152,1.957,2.146a5.1,5.1,0,0,0,1.433-.171v-.811Zm-4.432-5.542H72.943v1.049h1.128Zm.39,5.548-.4-.043v-3.737H72.559v.866l.4.043v2.829l-.4.043v.847h1.908v-.866Zm-2.634,0-.415-.043v-5.487H69.919v.86l.4.043v4.6l-.4.043v.829h1.908Zm-4.048-.226a.963.963,0,0,1-.774.287.933.933,0,0,1-.768-.287,1.482,1.482,0,0,1-.238-.945v-.567a1.482,1.482,0,0,1,.238-.945,1.183,1.183,0,0,1,1.542,0,1.481,1.481,0,0,1,.238.945v.567a1.408,1.408,0,0,1-.238.945M69.1,176.32a2.1,2.1,0,1,0-4.2,0v.567a2.1,2.1,0,1,0,4.2,0Zm-6.188-.78a2.439,2.439,0,0,1-1.158.2h-.732v-2.012h.732a2.689,2.689,0,0,1,1.164.183.78.78,0,0,1,.348.762v.091a.817.817,0,0,1-.354.78m-1.463,2.512-.421-.043v-1.3h.744a6.7,6.7,0,0,0,.829-.043,2.92,2.92,0,0,0,.707-.171,1.726,1.726,0,0,0,.61-.335,1.475,1.475,0,0,0,.366-.567,2.335,2.335,0,0,0,.14-.841v-.116a2.158,2.158,0,0,0-.2-.988,1.353,1.353,0,0,0-.61-.61,2.859,2.859,0,0,0-.835-.274,6.709,6.709,0,0,0-1.067-.073c-.75,0-1.488,0-2.213.049v.872l.421.043v4.268l-.421.03v.951h1.951Z" transform="translate(-55.548 -126.816)" fill="#005191"/>
    <path id="Path_2520" data-name="Path 2520" d="M187.523,109.691l5.31,12.51h-10.62Zm-.36-11.791L169.91,135.833h6.584l3.621-8.578h14.808l3.621,8.578h6.737L188.084,97.9Z" transform="translate(-98.646 -97.693)" fill="#005191"/>
    <path id="Path_2521" data-name="Path 2521" d="M180.234,0,179.21.207V38.14h6.383v-24l23.435,24.709.713-.152V.719h-6.377V24.356Z" transform="translate(-69.953)" fill="#005191"/>
    <path id="Path_2522" data-name="Path 2522" d="M260.352,1.18l-14.7,16.845V1.18H239.27V38.6h6.383V20.628L260.968,38.6h7.913L251.725,19.146,268.064,1.18Z" transform="translate(-93.397 -0.461)" fill="#005191"/>
    <path id="Path_2523" data-name="Path 2523" d="M366.987,105.208H363.5a1.494,1.494,0,0,1-1.5-1.494v-3.487a1.494,1.494,0,0,1,1.494-1.488h3.487a1.5,1.5,0,0,1,1.494,1.488v3.487a1.494,1.494,0,0,1-1.494,1.494" transform="translate(-173.628 -98.021)" fill="#005191"/>
    <path id="Path_2524" data-name="Path 2524" d="M366.991,130.588H363.5a1.494,1.494,0,0,1-1.494-1.494v-3.487a1.494,1.494,0,0,1,1.494-1.488h3.487a1.5,1.5,0,0,1,1.494,1.488v3.487a1.494,1.494,0,0,1-1.494,1.494" transform="translate(-173.632 -107.928)" fill="#3374a7"/>
    <path id="Path_2525" data-name="Path 2525" d="M366.991,155.994H363.5a1.494,1.494,0,0,1-1.494-1.494v-3.457a1.494,1.494,0,0,1,1.494-1.494h3.487a1.5,1.5,0,0,1,1.494,1.494v3.487a1.494,1.494,0,0,1-1.494,1.494" transform="translate(-173.632 -117.854)" fill="#00a1b4"/>
    <path id="Path_2526" data-name="Path 2526" d="M356.381,117.858h-3.487a1.494,1.494,0,0,1-1.494-1.494v-3.487a1.494,1.494,0,0,1,1.494-1.488h3.487a1.5,1.5,0,0,1,1.494,1.488v3.487a1.5,1.5,0,0,1-1.494,1.494" transform="translate(-169.49 -102.958)" fill="#19629c"/>
    <path id="Path_2527" data-name="Path 2527" d="M356.381,143.3h-3.487a1.494,1.494,0,0,1-1.494-1.482v-3.487a1.494,1.494,0,0,1,1.494-1.488h3.487a1.5,1.5,0,0,1,1.494,1.488v3.487a1.5,1.5,0,0,1-1.494,1.494" transform="translate(-169.49 -112.893)" fill="#66c7d2"/>
    <path id="Path_2528" data-name="Path 2528" d="M115.377,130.292a11.114,11.114,0,0,1-3.993.61h-6.017V119.269h5.487a10.576,10.576,0,0,1,4.5.658,5.729,5.729,0,0,1,0,10.364m-10.011-26.276h4.749a8.6,8.6,0,0,1,3.944.658,4.67,4.67,0,0,1,2.53,4.4,4.756,4.756,0,0,1-2.53,4.6,9.06,9.06,0,0,1-3.792.61h-4.877Zm-21.1,25.935-2.195,1.872a1.219,1.219,0,0,1-1.75-.14l-2.39-2.8a12.644,12.644,0,0,1-6.1,1.549,12.959,12.959,0,1,1,10.206-5.048l2.439,2.823a1.25,1.25,0,0,1-.146,1.75m33.281-13.76a8.419,8.419,0,0,0,4.749-7.834c0-2.981-1.061-5.914-3.792-7.584-1.829-1.317-4.4-2.042-7.925-2.042H99.4V130.9H90.515a7.407,7.407,0,0,1-3.883-.951l-.408-.207A19.186,19.186,0,0,0,90.686,117.4,18.832,18.832,0,1,0,71.853,136.5,18.546,18.546,0,0,0,81.9,133.547c.146.091.354.219.4.238a16.772,16.772,0,0,0,7.926,2.365h20.155c4.6,0,6.822-.354,9.45-2.176a9.767,9.767,0,0,0,4.548-8.535,9.283,9.283,0,0,0-6.828-9.242" transform="translate(-53.02 -98.017)" fill="#005191"/>
    <path id="Path_2529" data-name="Path 2529" d="M95.3,141.166l-2.195,1.872a1.219,1.219,0,0,1-1.75-.14l-1.9-2.231a1.219,1.219,0,0,1,.14-1.75l2.195-1.872a1.219,1.219,0,0,1,1.75.14l1.9,2.231a1.219,1.219,0,0,1-.14,1.75" transform="translate(-67.122 -112.853)" fill="#005191"/>
    <path id="Path_2530" data-name="Path 2530" d="M317.024,179.675H315.61a.61.61,0,0,1-.61-.61v-1.4a.61.61,0,0,1,.61-.61h1.4a.61.61,0,0,1,.61.61v1.4a.61.61,0,0,1-.61.61" transform="translate(-155.282 -128.593)" fill="#005191"/>
    <path id="Path_2531" data-name="Path 2531" d="M207.566,179.675h-1.4a.61.61,0,0,1-.61-.61v-1.4a.61.61,0,0,1,.61-.61h1.4a.61.61,0,0,1,.61.61v1.4a.61.61,0,0,1-.61.61" transform="translate(-112.562 -128.593)" fill="#005191"/>
    <path id="Path_2532" data-name="Path 2532" d="M147.266,179.675h-1.4a.61.61,0,0,1-.61-.61v-1.4a.61.61,0,0,1,.61-.61h1.4a.61.61,0,0,1,.61.61v1.4a.61.61,0,0,1-.61.61" transform="translate(-89.024 -128.593)" fill="#005191"/>
    <path id="Path_2533" data-name="Path 2533" d="M106.4,179.675H105a.61.61,0,0,1-.61-.61v-1.4a.61.61,0,0,1,.61-.61h1.4a.61.61,0,0,1,.61.61v1.4a.61.61,0,0,1-.61.61" transform="translate(-73.071 -128.593)" fill="#005191"/>
  </g>
</svg>
