<?xml version="1.0" encoding="UTF-8"?>
<svg width="153px" height="56px" viewBox="0 0 153 56" version="1.1" xmlns="http://www.w3.org/2000/svg" xmlns:xlink="http://www.w3.org/1999/xlink">
    <title>2E86D7AF-468D-435C-8817-F57281ECE4BA@1x</title>
    <g id="Assets-for-Dev" stroke="none" stroke-width="1" fill="none" fill-rule="evenodd">
        <g id="Menu-and-Footer-assets" transform="translate(-80.000000, -92.000000)">
            <g id="Group-2" transform="translate(80.000000, 92.000000)">
                <path d="M25.7916981,31.7615118 C25.1686483,31.0215398 24.7368814,30.1398645 24.5343396,29.1939646 L0.486037736,29.1939646 C0.486037736,29.3101911 0.570566038,29.4158514 0.612830189,29.5320779 L0.612830189,29.5320779 C0.612830189,29.6377382 0.707924528,29.7328326 0.771320755,29.8384929 L0.771320755,29.8384929 C0.821462008,29.9303673 0.877951327,30.0186318 0.940377358,30.1026439 L0.940377358,30.1554741 L1.17283019,30.4407571 L21.9667925,54.6475496 C22.056531,54.7511936 22.1517621,54.8499517 22.2520755,54.9433986 L22.4316981,55.1018892 L22.5584906,55.2075496 L22.6324528,55.2075496 C23.551695,55.8635146 24.7264537,56.0475601 25.8022642,55.7041533 L26.0135849,55.619625 L26.1615094,55.5667948 C26.6454421,55.3363471 27.0769732,55.0091027 27.429434,54.6052854 L36.4211321,44.1132099 L25.7916981,31.7615118 Z" id="Path" fill="#99D9D5"></path>
                <path d="M75.0716981,30.1660401 L75.0716981,30.1660401 C75.1341241,30.0820281 75.1906135,29.9937635 75.2407547,29.9018892 L75.2407547,29.9018892 C75.3552706,29.6961785 75.4507614,29.4804399 75.5260377,29.2573609 L51.5516981,29.2573609 C51.351267,30.2008244 50.9191589,31.0795652 50.2943396,31.814342 L39.6649057,44.2188703 L48.6566038,54.7109458 C48.7463424,54.8145898 48.8415734,54.9133479 48.9418868,55.0067948 L49.1320755,55.1652854 C49.1721316,55.2030738 49.2144758,55.2383606 49.2588679,55.2709458 L49.3222642,55.2709458 C50.2421515,55.9253287 51.4161346,56.1092527 52.4920755,55.7675496 L52.7033962,55.6830212 L52.8513208,55.619625 C53.337038,55.3968538 53.7693841,55.0725943 54.1192453,54.6686816 L74.8498113,30.4830212 C74.9329082,30.3915984 75.0071993,30.2925436 75.0716981,30.1871722" id="Path" fill="#99D9D5"></path>
                <path d="M51.5516981,26.7426439 L75.6,26.7426439 C75.5606373,26.6274354 75.5147777,26.51455 75.4626415,26.4045307 L75.4626415,26.4045307 C75.4626415,26.2988703 75.3675472,26.203776 75.314717,26.0981156 L75.314717,26.0981156 C75.2645757,26.0062413 75.2080864,25.9179767 75.1456604,25.8339646 L75.1456604,25.7811345 C75.0783794,25.681027 75.0042394,25.5857041 74.9237736,25.4958514 L54.1932075,1.31019106 C53.6057433,0.618857521 52.7797285,0.173790153 51.8792453,0.0633986079 L51.4460377,0.0633986079 C50.386594,0.0633986079 49.3812743,0.531492595 48.6988679,1.34188917 L39.7071698,11.8233986 L50.3366038,24.2279269 C50.9637428,24.9652265 51.3960389,25.8479825 51.5939623,26.7954741" id="Path" fill="#99D9D5"></path>
                <path d="M0.972075472,25.7600024 L0.972075472,25.7600024 L0.803018868,26.0347194 L0.803018868,26.0347194 C0.739622642,26.1403797 0.697358491,26.2354741 0.644528302,26.3411345 L0.644528302,26.3411345 C0.595873626,26.451338 0.553540802,26.5642255 0.517735849,26.6792477 L24.5660377,26.6792477 C24.7639611,25.731756 25.1962572,24.8490001 25.8233962,24.1117005 L36.4633962,11.7071722 L27.4716981,1.22566276 C27.378529,1.11840186 27.2797759,1.01612186 27.1758491,0.919247665 C26.612074,0.402369378 25.8972502,0.0801430822 25.1366038,1.50152427e-14 L24.7033962,1.50152427e-14 C23.643631,-0.00121834784 22.6377271,0.466913826 21.9562264,1.27849295 L1.21509434,25.4641533 L0.982641509,25.7494363" id="Path" fill="#99D9D5"></path>
                <path d="M48.4558491,25.8128326 L38.0271698,13.6407571 L27.5879245,25.8128326 C26.5315849,27.0556822 26.5315849,28.8809264 27.5879245,30.123776 L38.0271698,42.2641533 L48.4558491,30.1026439 C49.5121887,28.8597943 49.5121887,27.0345501 48.4558491,25.7917005" id="Path" fill="#00A0B9"></path>
                <path d="M90.5509434,13.1018892 L90.5509434,11.1788703 L95.4324528,11.1788703 L95.4324528,15.9230212 C94.8743061,16.6404683 94.1487057,17.2100647 93.3192453,17.5818892 C92.4223834,17.9834248 91.4489906,18.1853137 90.4664151,18.1735873 C88.2713764,18.2080899 86.2376578,17.0244657 85.1833962,15.0988703 C84.6468251,14.129655 84.3735996,13.0367531 84.3909434,11.929059 C84.3737052,10.8394743 84.6433546,9.76452079 85.1728302,8.81207785 C85.6823754,7.89048823 86.4353072,7.12659143 87.349434,6.60377597 C89.2953355,5.51210534 91.6691928,5.51210534 93.6150943,6.60377597 C94.4746406,7.06048634 95.1419376,7.81025824 95.4958491,8.71698351 L93.7101887,9.59396465 C93.4418223,9.00583277 92.9943184,8.51764675 92.4316981,8.19924766 C91.8264405,7.84600474 91.135361,7.66683597 90.434717,7.68151182 C89.3595905,7.64528524 88.3206562,8.0724027 87.5818868,8.854342 C86.8293169,9.66891152 86.4270654,10.7466417 86.4618868,11.8550967 C86.4217504,12.9884771 86.8276614,14.0924033 87.5924528,14.9298137 C88.3271758,15.7274272 89.3719004,16.1669054 90.4558491,16.134342 C91.525915,16.1806027 92.5754773,15.8307486 93.4037736,15.1517005 L93.4037736,13.0384929 L90.5509434,13.1018892 Z" id="Path" fill="#00384D"></path>
                <path d="M104.022642,12.8060401 L108.407547,12.8060401 C108.367491,12.3050323 108.122911,11.842622 107.731321,11.5275496 C107.326638,11.1806526 106.805814,10.9994961 106.273208,11.0203797 C105.753291,11.0055491 105.244687,11.1738372 104.836226,11.4958514 C104.435583,11.8375221 104.151234,12.2954351 104.022642,12.8060401 M110.362264,13.4505684 C110.365985,13.7266337 110.344767,14.002471 110.298868,14.2747194 L103.906415,14.2747194 C103.977681,14.8921735 104.27051,15.4628139 104.730566,15.8807571 C105.195403,16.2753519 105.790614,16.4825457 106.4,16.4618892 C106.853967,16.4681448 107.302958,16.3667598 107.710189,16.1660401 C108.073052,15.9980797 108.380818,15.7306172 108.597736,15.3947194 L110.119245,16.3667948 C109.789103,16.9584232 109.278086,17.4287072 108.661132,17.7086816 C107.942044,18.0366858 107.158523,18.199167 106.368302,18.1841533 C105.598086,18.1922374 104.83958,17.9953174 104.170566,17.6135873 C103.507871,17.2346572 102.960179,16.6833142 102.58566,16.0181156 C102.195344,15.3367614 101.994678,14.5632867 102.004528,13.7781156 C101.996444,13.0079002 102.193364,12.2493934 102.575094,11.5803797 C102.951227,10.9282044 103.494741,10.3883386 104.149434,10.0166062 C104.813168,9.63137243 105.569267,9.43412919 106.336604,9.44604012 C107.050765,9.44151105 107.753721,9.62362391 108.375849,9.974342 C109.622752,10.6837551 110.38412,12.01615 110.362264,13.4505684" id="Shape" fill="#00384D"></path>
                <path d="M115.518491,16.3667948 C115.988121,16.3662727 116.449899,16.2462832 116.860377,16.0181156 C117.247751,15.807183 117.572244,15.4972742 117.800755,15.1200024 L117.800755,12.5418892 C117.576445,12.1558753 117.251389,11.8381237 116.860377,11.6226439 C116.451244,11.3899149 115.989176,11.2662117 115.518491,11.2633986 C114.839662,11.2518416 114.185235,11.516411 113.705161,11.9964846 C113.225088,12.4765582 112.960518,13.1309854 112.972075,13.8098137 C112.959482,14.4944049 113.226585,15.1545315 113.711698,15.6377382 C114.187372,16.1199425 114.841367,16.3838353 115.518491,16.3667948 M117.800755,9.62566276 L119.713208,9.62566276 L119.713208,18.0150967 L117.800755,18.0150967 L117.800755,16.9056628 C117.547645,17.3153287 117.180414,17.6421648 116.744151,17.8460401 C116.250731,18.0867202 115.708217,18.20969 115.159245,18.2052854 C114.064986,18.2232028 113.018073,17.7596251 112.295849,16.9373609 C110.734291,15.1648073 110.734291,12.5076503 112.295849,10.7350967 C113.018073,9.91283254 114.064986,9.44925477 115.159245,9.46717219 C115.708708,9.46906156 116.250593,9.59550122 116.744151,9.83698351 C117.180414,10.0408588 117.547645,10.367695 117.800755,10.7773609 L117.800755,9.62566276 Z" id="Shape" fill="#00384D"></path>
                <path d="M126.264151,16.2505684 L126.369811,17.9305684 C126.038756,18.0810964 125.676401,18.149944 125.313208,18.1313231 C124.462281,18.1702505 123.632911,17.856848 123.020377,17.264908 C122.407466,16.6262921 122.089495,15.760491 122.143396,14.8769835 L122.143396,11.4430212 L120.537358,11.4430212 L120.537358,9.62566276 L122.143396,9.62566276 L122.143396,7.3962288 L124.055849,7.3962288 L124.055849,9.65736087 L126.253585,9.65736087 L126.253585,11.4747194 L124.055849,11.4747194 L124.055849,14.7924552 C124.035041,15.2134304 124.192264,15.6237436 124.489057,15.9230212 C124.773331,16.1952693 125.152049,16.3467567 125.54566,16.3456628 C125.763849,16.3436927 125.980728,16.3116942 126.190189,16.2505684" id="Path" fill="#00384D"></path>
                <path d="M88.7335849,21.2166062 C89.5264701,21.2200767 90.3102903,21.3854699 91.0369811,21.7026439 C91.7191054,21.9673646 92.3303966,22.3869491 92.8226415,22.9283043 L91.6498113,24.4920779 C91.2420957,24.075682 90.7577411,23.7420155 90.2233962,23.5094363 C89.7087487,23.2760699 89.1507355,23.153667 88.5856604,23.1501911 C88.1056299,23.1279115 87.6312489,23.2613311 87.2332075,23.5305684 C86.8980792,23.7438371 86.6979718,24.1160368 86.7049057,24.5132099 C86.7003195,24.7669774 86.7781786,25.0153849 86.9267925,25.2211345 C87.0747557,25.4403892 87.2791856,25.6156149 87.5184906,25.7283043 C87.7903326,25.8701656 88.0729761,25.9902891 88.3637736,26.0875496 C88.6807547,26.1932099 89.0188679,26.2988703 89.4203774,26.3939646 L90.4769811,26.7215118 C90.8432322,26.8334657 91.1972319,26.9821456 91.5335849,27.1652854 C91.8432275,27.3373973 92.1306464,27.5467518 92.389434,27.7886816 C92.6468822,28.0437251 92.8483931,28.34959 92.9811321,28.6867948 C93.3047185,29.5399933 93.2742903,30.4870706 92.8966038,31.3177382 C92.6996244,31.7575051 92.4156868,32.1528612 92.0618868,32.4800024 C91.6643123,32.8340698 91.2012635,33.1068738 90.6988679,33.2830212 C90.121036,33.4819977 89.5137646,33.5820189 88.9026415,33.5789424 C87.9911951,33.5719477 87.0913288,33.3739771 86.2611321,32.9977382 C85.4592858,32.6610239 84.7387579,32.1566543 84.1479245,31.5184929 L85.4369811,30.0392477 C85.9163675,30.5091297 86.4608019,30.9076698 87.0535849,31.2226439 C87.6293126,31.5024784 88.2625706,31.6436045 88.9026415,31.6347194 C89.4783316,31.6648492 90.0475102,31.5011639 90.5192453,31.1698137 C90.9130482,30.8920433 91.1427954,30.43651 91.1320755,29.9547194 C91.1366828,29.7091102 91.0626373,29.4684622 90.9207547,29.2679269 C90.7635658,29.0625267 90.5610738,28.896194 90.3290566,28.7818892 C90.0561194,28.6511752 89.7735232,28.5416692 89.4837736,28.454342 C89.1667925,28.3486816 88.8286792,28.2535873 88.4271698,28.1584929 C88.0256604,28.0633986 87.7192453,27.9683043 87.370566,27.8520779 C87.0230374,27.7441459 86.6868567,27.6025962 86.3667925,27.4294363 C86.0607859,27.2608805 85.776859,27.0550336 85.5215094,26.8166062 C85.2640612,26.5615627 85.0625503,26.2556978 84.9298113,25.9184929 C84.7853245,25.5188909 84.713749,25.0965955 84.7184906,24.6717005 C84.7074541,23.7178266 85.1265876,22.809704 85.8596226,22.1992477 C86.6744641,21.5256741 87.7088705,21.1758567 88.765283,21.2166062" id="Path" fill="#00384D"></path>
                <path d="M100.060377,27.3977382 C99.5944405,26.9299457 98.9613797,26.6669861 98.3011321,26.6669861 C97.6408844,26.6669861 97.0078237,26.9299457 96.5418868,27.3977382 C96.0769259,27.886633 95.8259613,28.5406621 95.8445283,29.2150967 C95.8248507,29.8854704 96.0806968,30.5346322 96.5524528,31.0113231 C97.0041309,31.490247 97.6376988,31.7551936 98.2958491,31.7403797 C98.9600563,31.7545872 99.5999069,31.4902178 100.060377,31.0113231 C100.530035,30.5332666 100.785514,29.885037 100.768302,29.2150967 C100.787628,28.538533 100.532259,27.8829591 100.060377,27.3977382 M95.2,26.0981156 C96.9219911,24.4079677 99.6802731,24.4079677 101.402264,26.0981156 C103.083578,27.8047846 103.069886,30.54922 101.371626,32.2390279 C99.6733669,33.9288358 96.9288973,33.9288358 95.2306377,32.2390279 C93.5323781,30.54922 93.5186858,27.8047846 95.2,26.0981156" id="Shape" fill="#00384D"></path>
                <path d="M109.738868,25.0098137 L111.661887,25.0098137 L111.661887,33.4626439 L109.738868,33.4626439 L109.738868,32.3320779 C109.478294,32.7354109 109.113103,33.0604305 108.682264,33.2724552 C107.339306,33.9323296 105.72533,33.6647495 104.66717,32.6067948 C104.021765,31.8334429 103.693307,30.844295 103.747925,29.8384929 L103.747925,25.0626439 L105.649811,25.0626439 L105.649811,29.5426439 C105.620216,30.1254415 105.817084,30.6971148 106.199245,31.1381156 C106.574094,31.5334074 107.102668,31.7456086 107.646792,31.7192477 C108.068959,31.7195363 108.483981,31.6103197 108.851321,31.4022665 C109.220274,31.2002814 109.529913,30.9052142 109.749434,30.5464175 L109.738868,25.0098137 Z" id="Path" fill="#00384D"></path>
                <path d="M118.191698,31.6347194 L118.297358,33.3252854 C117.966304,33.4758134 117.603948,33.544661 117.240755,33.5260401 C116.39122,33.5563628 115.565105,33.2441906 114.947925,32.659625 C114.341009,32.0130141 114.02426,31.1467265 114.070943,30.2611345 L114.070943,26.8271722 L112.464906,26.8271722 L112.464906,25.0098137 L114.070943,25.0098137 L114.070943,22.7592477 L116.004528,22.7592477 L116.004528,25.0098137 L118.202264,25.0098137 L118.202264,26.8271722 L116.004528,26.8271722 L116.004528,30.1766062 C115.980691,30.6011872 116.138144,31.0159405 116.437736,31.3177382 C116.724357,31.5863199 117.101558,31.7372001 117.49434,31.7403797 C117.713449,31.7398337 117.931053,31.7041608 118.138868,31.6347194" id="Path" fill="#00384D"></path>
                <path d="M123.950189,24.8301911 C124.901216,24.7885082 125.820626,25.1764447 126.45434,25.8867948 C127.104757,26.6537504 127.437395,27.6403253 127.384151,28.6445307 L127.384151,33.4415118 L125.513962,33.4415118 L125.513962,28.9509458 C125.54647,28.3695764 125.353446,27.7980764 124.975094,27.3554741 C124.605162,26.959441 124.079346,26.7467948 123.538113,26.774342 C123.112613,26.7741452 122.6942,26.8832962 122.323019,27.0913231 C121.950507,27.2846013 121.642164,27.5819322 121.435472,27.9471722 L121.435472,33.4415118 L119.533585,33.4415118 L119.533585,21.3750967 L121.435472,21.3750967 L121.435472,26.1403797 C121.692469,25.731377 122.058355,25.40208 122.492075,25.1894363 C122.956886,24.9530775 123.470999,24.8299799 123.992453,24.8301911" id="Path" fill="#00384D"></path>
                <path d="M130.437736,28.2007571 L134.812075,28.2007571 C134.773862,27.6986706 134.533673,27.233543 134.146415,26.9117005 C133.290193,26.2636113 132.107542,26.2636113 131.251321,26.9117005 C130.842677,27.2464227 130.556553,27.7071944 130.437736,28.2218892 M136.777358,28.8558514 C136.78335,29.1359595 136.758547,29.415878 136.703396,29.6905684 L130.310943,29.6905684 C130.382799,30.3048274 130.675746,30.8719426 131.135094,31.2860401 C131.597292,31.6852271 132.194359,31.8930668 132.804528,31.8671722 C133.257148,31.8717562 133.704979,31.7742447 134.114717,31.5818892 C134.483839,31.4185868 134.793727,31.14559 135.002264,30.8000024 L136.53434,31.7720779 C136.201464,32.3653896 135.686535,32.8358643 135.06566,33.1139646 C134.347415,33.4456055 133.563858,33.6117052 132.77283,33.6000024 C131.214081,33.6111176 129.769543,32.7839379 128.990189,31.4339646 C128.6037,30.7472221 128.403372,29.9714065 128.409057,29.1833986 C128.398418,28.4114946 128.599399,27.6514199 128.990189,26.9856628 C129.363414,26.3348503 129.90315,25.7951144 130.553962,25.4218892 C131.21968,25.0414987 131.97443,24.8446076 132.741132,24.8513231 C133.455415,24.8458092 134.158621,25.0279867 134.780377,25.379625 C135.389015,25.7205561 135.893142,26.2210301 136.238491,26.8271722 C136.598199,27.4422526 136.784427,28.1433459 136.777358,28.8558514" id="Shape" fill="#00384D"></path>
                <path d="M148.590189,24.8301911 C149.542708,24.7971597 150.461832,25.1833459 151.104906,25.8867948 C151.755323,26.6537504 152.087961,27.6403253 152.034717,28.6445307 L152.034717,33.4415118 L150.111698,33.4415118 L150.111698,28.9509458 C150.142025,28.3698744 149.949268,27.7991613 149.57283,27.3554741 C149.201245,26.9618549 148.676593,26.7496795 148.135849,26.774342 C147.70683,26.7728055 147.284671,26.8819845 146.910189,27.0913231 C146.542064,27.2906529 146.235221,27.5865368 146.022642,27.9471722 L146.022642,33.4415118 L144.120755,33.4415118 L144.120755,24.9886816 L146.022642,24.9886816 L146.022642,26.1192477 C146.280915,25.7113206 146.64646,25.38233 147.079245,25.1683043 C147.540733,24.9331862 148.051127,24.8101124 148.569057,24.809059" id="Path" fill="#00384D"></path>
                <path d="M86.8316981,46.8815118 L89.5788679,46.8815118 C90.0439312,46.8871926 90.4917556,46.7056819 90.8216216,46.3778031 C91.1514876,46.0499242 91.3357008,45.6032047 91.3328302,45.1381156 C91.3383518,44.6691388 91.1511968,44.2184391 90.8150943,43.8913231 C90.4948497,43.5591734 90.0507403,43.375404 89.589434,43.3841533 L86.8316981,43.3841533 L86.8316981,46.8815118 Z M86.8316981,41.7569835 L89.1245283,41.7569835 C89.5571439,41.7671998 89.9757955,41.6035451 90.2867925,41.3026439 C90.5947027,41.0164723 90.7673883,40.6135391 90.7622642,40.1932099 C90.7673424,39.7881254 90.5933421,39.4014581 90.2867925,39.1366062 C89.9699642,38.8473452 89.5533918,38.6920773 89.1245283,38.7033986 L86.8316981,38.7033986 L86.8316981,41.7569835 Z M84.8135849,48.7939646 L84.8135849,36.7698137 L89.1773585,36.7698137 C90.1127362,36.7460324 91.0237342,37.0697755 91.7343396,37.6784929 C92.3976665,38.2160515 92.7853575,39.0224486 92.7909434,39.8762288 C92.7940087,40.4612563 92.6087835,41.0317501 92.2626415,41.5033986 C91.9521086,41.958586 91.492485,42.2911592 90.9630189,42.443776 C91.6554839,42.5587709 92.2765157,42.9374488 92.6958491,43.5003797 C93.1465315,44.054916 93.3861201,44.7512203 93.3720755,45.4656628 C93.3823678,46.3801482 92.9971839,47.2545156 92.3154717,47.8641533 C91.6123868,48.5145695 90.6843769,48.8668345 89.7267925,48.8467948 L84.8135849,48.7939646 Z" id="Shape" fill="#00384D"></path>
                <path d="M98.5283019,47.1456628 C98.9945929,47.145211 99.4529736,47.0251589 99.8596226,46.7969835 C100.24998,46.5863258 100.577964,46.2765634 100.810566,45.8988703 L100.810566,43.3207571 C100.58932,42.9323686 100.263505,42.6138752 99.8701887,42.4015118 C99.4631555,42.163707 98.9997043,42.0396334 98.5283019,42.0422255 C97.497905,42.0491755 96.5714559,42.6714203 96.1753041,43.6226454 C95.7791523,44.5738704 95.9900503,45.6697803 96.7109434,46.4060401 C97.1858559,46.8970441 97.8454891,47.1654994 98.5283019,47.1456628 M100.810566,40.4045307 L102.723019,40.4045307 L102.723019,48.7939646 L100.810566,48.7939646 L100.810566,47.6633986 C100.554685,48.0707283 100.188226,48.3968766 99.7539623,48.603776 C99.2563332,48.8431684 98.7106992,48.9660263 98.1584906,48.9630212 C97.064813,48.9780803 96.019043,48.5150087 95.2950943,47.6950967 C93.733536,45.9225432 93.733536,43.2653861 95.2950943,41.4928326 C96.019043,40.6729206 97.064813,40.209849 98.1584906,40.224908 C98.7082572,40.2241738 99.2507271,40.3507501 99.7433962,40.5947194 C100.178647,40.8001282 100.545485,41.1266135 100.8,41.5350967 L100.810566,40.4045307 Z" id="Shape" fill="#00384D"></path>
                <path d="M108.872453,40.224908 C109.827115,40.1799981 110.75108,40.5682188 111.38717,41.2815118 C112.035699,42.0495327 112.368078,43.0353376 112.316981,44.0392477 L112.316981,48.8256628 L110.393962,48.8256628 L110.393962,44.3456628 C110.42647,43.7642934 110.233446,43.1927934 109.855094,42.7501911 C109.484599,42.3538642 108.960257,42.1379586 108.418113,42.1584929 C107.989094,42.1569564 107.566935,42.2661355 107.192453,42.4754741 C106.824328,42.6748038 106.517486,42.9706878 106.304906,43.3313231 L106.304906,48.8256628 L104.381887,48.8256628 L104.381887,40.4362288 L106.29434,40.4362288 L106.29434,41.5667948 C106.555196,41.1583926 106.919822,40.8265829 107.350943,40.6052854 C107.813193,40.3734512 108.323633,40.2539866 108.840755,40.2566062" id="Path" fill="#00384D"></path>
                <polygon id="Path" fill="#00384D" points="121.932075 48.8045307 119.459623 48.8045307 115.877736 44.8317005 115.877736 48.8045307 113.975849 48.8045307 113.975849 36.7698137 115.877736 36.7698137 115.877736 44.0286816 119.290566 40.4045307 121.667925 40.4045307 117.811321 44.4407571"></polygon>
                <path d="M101.212075,9.43547408 C101.467429,9.43600787 101.722156,9.46077297 101.97283,9.50943634 C102.046792,9.50943634 102.300377,9.57283257 102.363774,9.60453068 L101.877736,11.3162288 C101.611607,11.2493078 101.338545,11.2138452 101.064151,11.2105684 C100.681728,11.2367749 100.314928,11.3724909 100.007547,11.6015118 C99.6201062,11.8682048 99.3102254,12.2327705 99.109434,12.6581156 L99.109434,18.0256628 L97.2075472,18.0256628 L97.2075472,9.57283257 L99.109434,9.57283257 L99.109434,10.7245307 C99.3284718,10.3236218 99.6538683,9.99091303 100.049811,9.76302125 C100.413809,9.53183404 100.833831,9.40400114 101.264906,9.39320993" id="Path" fill="#00384D"></path>
                <path d="M142.13434,24.8301911 C142.38998,24.8240693 142.645421,24.8489039 142.895094,24.9041533 L143.286038,24.9886816 L142.8,26.7109458 C142.535336,26.6354637 142.261628,26.5963626 141.986415,26.5947194 C141.604243,26.6220904 141.23776,26.7576893 140.929811,26.9856628 C140.539164,27.2517065 140.225702,27.6161964 140.021132,28.0422665 L140.021132,33.4203797 L138.119245,33.4203797 L138.119245,24.9675496 L140.021132,24.9675496 L140.021132,26.1192477 C140.240839,25.7215668 140.566308,25.3924405 140.961509,25.1683043 C141.323389,24.9325428 141.744739,24.8043058 142.176604,24.7984929" id="Path" fill="#00384D"></path>
            </g>
        </g>
    </g>
</svg>